<svg class="svg-light" xmlns="http://www.w3.org/2000/svg" xmlns:xlink="http://www.w3.org/1999/xlink" version="1.1" x="0px" y="0px" viewBox="0 0 100 100" xml:space="preserve">
	<defs><link href="../css/svg.css" type="text/css" rel="stylesheet" xmlns="http://www.w3.org/1999/xhtml"/></defs>
	<path d="M66.3,47.5c1.1-0.1,1.1,1.6,0,1.7c-2.1,0.2-4.3,0.5-6.4,0.7c-1.1,0.1-1.1-1.6,0-1.7C62,48,64.1,47.7,66.3,47.5z"></path><path d="M55.5,38.7c1.3-1.7,2.6-3.4,3.9-5.1c0.6-0.9,2.1,0,1.5,0.8c-1.3,1.7-2.6,3.4-3.9,5.1C56.3,40.4,54.8,39.5,55.5,38.7          z"></path><path d="M45.7,27.5c0,2.1,0,4.3,0,6.4c0,1.1-1.7,1.1-1.7,0c0-2.1,0-4.3,0-6.4C44,26.4,45.7,26.4,45.7,27.5z"></path><path d="M52.7,42.2c2.1,2.1,3.2,4.8,3.2,7.7c0,3.3-1.2,6-3.5,8c-0.1,0.1-0.3,0.3-0.4,0.4c-0.4,0.7-1.1,3.8-1.1,6.4v0.2          c0,2.8-2.2,5-5,5l-1.7,0c-1.3,0-2.6-0.5-3.5-1.4c-0.9-0.9-1.5-2.2-1.5-3.5v-0.2c0-2.6-0.7-5.7-1.1-6.5          C38,58.2,37.8,58,37.8,58c-2.4-2-3.6-4.8-3.6-8.1c0-2.9,1.1-5.6,3.2-7.7c2-2.1,4.8-3.2,7.7-3.2C47.9,39,50.7,40.1,52.7,42.2          z M39.7,57.2c0.3,0.5,0.6,1.5,0.9,2.6c0.1,0,0.2-0.1,0.3-0.1c1.7,0,3.5,0,5.2,0c1.1,0,1.1,1.7,0,1.7c-1.7,0-3.5,0-5.2,0          c0.2,1.2,0.3,2.4,0.3,3.4v0.2c0,0.8,0.3,1.6,0.9,2.1c0.6,0.6,1.3,0.9,2.1,0.9l1.7,0c1.5,0,2.8-1.1,3-2.6c-0.1,0-0.2,0-0.2,0          c-1.7,0-3.5,0-5.2,0c-1.1,0-1.1-1.7,0-1.7c1.7,0,3.5,0,5.2,0c0.1,0,0.2,0,0.3,0c0.1-2.5,0.7-5.6,1.4-6.6l0.1-0.1l0.6-0.6          c1.9-1.6,2.9-3.8,2.9-6.6c0-2.4-0.9-4.6-2.6-6.3c-1.7-1.7-3.9-2.6-6.3-2.6c-4.9,0-9,4-9,8.9c0,2.7,1,5,3,6.7          C39.1,56.5,39.6,57.1,39.7,57.2L39.7,57.2z"></path><path d="M31.1,33.5c1.3,1.7,2.6,3.4,3.9,5.1c0.6,0.9-0.8,1.7-1.5,0.9c-1.3-1.7-2.6-3.4-3.9-5.1C29,33.5,30.5,32.7,31.1,33.5          z"></path><path d="M24.2,47.5c2.1,0.2,4.3,0.5,6.4,0.7c1.1,0.1,1.1,1.8,0,1.7c-2.1-0.2-4.3-0.5-6.4-0.7C23.1,49,23.1,47.4,24.2,47.5z"></path><path d="M75,52.2c2.8-0.2,5.4,0.8,7.3,2.7c0.8-0.4,1.6-0.6,2.5-0.7c0.7-0.1,1.5,0,2.1,0.2c-0.6-5.5-4.1-9.3-9.8-10.4          l-1.1-0.2l0.3-1c0.4-1.2,0.6-2.5,0.6-3.8c0-7.4-5.1-12.9-11.9-12.9c-2.4,0-4.7,0.6-6.7,1.9l-0.2,0.1l-0.8,0L57,27.7          C53,22.3,46.8,19.1,40,19.1h0c-11.4,0-20.8,8.9-21.4,20.3l0,0.8l-1,0.1c-6.9,0-12.4,5.6-12.4,12.5c0,3.3,1.3,6.5,3.7,8.8          c2.4,2.4,5.5,3.6,8.8,3.6c0.8,0,1.7-0.1,2.5-0.3l0.9-0.2l0.3,0.8C23.3,72.2,32.5,77,43.1,77c0,0,0,0,0,0          c7.8,0,15-2.6,19-6.9c-0.5-0.8-0.8-1.7-0.8-2.7c-0.1-1.6,0.4-3.2,1.5-4.5c0.9-1,2-1.7,3.3-2C66.5,56.3,70.2,52.5,75,52.2z           M82.8,56.9L82.6,57l-0.8,0.1l-0.3-0.4c-1.6-1.8-3.9-2.8-6.3-2.6c-4.1,0.3-7.2,3.7-7.1,7.8l0,0.9l-0.9,0.1          C66,63,65,63.5,64.3,64.3c-0.7,0.9-1.1,1.9-1,3.1c0.1,0.8,0.4,1.6,0.9,2.3c0.1,0.1,0.2,0.2,0.3,0.4c0.8,0.9,2,1.3,3.3,1.2          c0.3,0,0.6-0.1,0.8-0.2l0.8-0.2l0.3,0.8c0.9,2.2,4.3,3.7,8.1,3.4c3.6-0.2,6.6-2,7.4-4.1l0.3-1l0.9,0.4          c0.9,0.4,1.9,0.6,3,0.5c1.4-0.1,2.5-0.6,3.2-1.4c0.6-0.8,0.9-1.8,0.8-3c-0.2-2.2-1.5-3.5-3.6-3.8l-1.1-0.1l0.2-1          c0.1-0.4,0.1-0.8,0.1-1.3c-0.1-1.5-0.8-2.7-1.8-3.4c-0.1-0.1-0.2-0.1-0.2-0.2c-0.7-0.4-1.4-0.6-2.3-0.5          C84.2,56.1,83.4,56.4,82.8,56.9z M91.2,60c0,0.3,0,0.6,0,0.9c2.5,0.7,4.2,2.7,4.3,5.4c0.1,1.7-0.3,3.2-1.3,4.4          c-1,1.2-2.6,2-4.5,2.1c-1.1,0.1-2.1,0-3.1-0.3c-1.4,2.5-4.8,4.3-8.7,4.5c-0.4,0-0.7,0-1.1,0c-3.9,0-7.2-1.6-8.6-3.9          c-0.1,0-0.3,0-0.4,0.1c-1.7,0.1-3.3-0.4-4.5-1.5C59,76.2,51.3,79,43.1,79c0,0,0,0,0,0c-11,0-20.6-5-23.4-11.9          c-0.7,0.1-1.4,0.2-2.1,0.2h0c-3.8,0-7.4-1.5-10.2-4.2c-2.7-2.7-4.2-6.3-4.2-10.2c0-7.6,6-13.9,13.5-14.4          c1.1-12,11.1-21.2,23.2-21.2h0c7.1,0,13.7,3.1,18.1,8.7c2.1-1.1,4.5-1.7,6.9-1.7c3.9,0,7.4,1.6,9.9,4.2          c2.5,2.7,4,6.4,4,10.6c0,1.1-0.1,2.2-0.4,3.3c6.4,1.6,10.3,6.5,10.5,13.2C90.3,56.5,91.1,58.2,91.2,60z"></path>
</svg>