<svg width="1200" height="700" xmlns="http://www.w3.org/2000/svg">
 <!-- Created with Method Draw - http://github.com/duopixel/Method-Draw/ -->

 <g>
  <title>background</title>
  <rect fill="#fff" id="canvas_background" height="702" width="1202" y="-1" x="-1"/>
  <g display="none" overflow="visible" y="0" x="0" height="100%" width="100%" id="canvasGrid">
   <rect fill="url(#gridpattern)" stroke-width="0" y="1" x="1" height="400" width="580"/>
  </g>
 </g>
 <g>
  <title>Layer 1</title>
  <g stroke="null" id="svg_53">
   <path stroke="null" id="svg_4" d="m606.324568,35.307113c-0.393996,0.434407 -0.932458,0.695051 -1.39212,1.042576c0.459662,-0.362006 0.998124,-0.608169 1.39212,-1.042576z" fill="none"/>
   <path stroke="null" id="svg_5" d="m608.242016,32.179385c-0.275797,0.752972 -0.787992,1.346661 -1.221388,1.998271c0.433396,-0.65161 0.932458,-1.245299 1.221388,-1.998271z" fill="none"/>
   <path stroke="null" id="svg_6" d="m607.257026,22.897562c0.32833,0.535768 0.761726,0.999135 0.984991,1.607305c-0.236398,-0.593689 -0.65666,-1.071536 -0.984991,-1.607305z" fill="none"/>
   <path stroke="null" id="svg_7" d="m603.487795,37.421226c-1.076923,0.492328 -2.245779,0.767452 -3.4803,0.767452c1.234522,0 2.403377,-0.275124 3.4803,-0.767452z" fill="none"/>
   <path stroke="null" id="svg_8" d="m600.007495,38.188677c-4.924953,0 -8.930581,-4.401988 -8.930581,-9.846551s4.005628,-9.846551 8.930581,-9.846551c-4.938086,0 -8.943715,4.401988 -8.943715,9.846551s4.005628,9.846551 8.943715,9.846551z" fill="none"/>
   <path stroke="null" id="svg_9" d="m600.007495,18.495575c1.234522,0 2.403377,0.275124 3.4803,0.767452c-1.076923,-0.492328 -2.245779,-0.767452 -3.4803,-0.767452z" fill="none"/>
   <path stroke="null" id="svg_10" d="m604.932448,20.349043c0.472795,0.347525 0.998124,0.593689 1.39212,1.028096c-0.393996,-0.434407 -0.919325,-0.68057 -1.39212,-1.028096z" fill="none"/>
   <path stroke="null" id="svg_11" d="m656.532822,646.502833c4.924953,0 8.904315,4.416468 8.930581,9.846551c-0.013133,-5.444564 -4.005628,-9.846551 -8.930581,-9.846551z" fill="none"/>
   <path stroke="null" id="svg_12" d="m1081.063769,623.696483c1.418386,-3.287011 2.324578,-6.921546 2.324578,-10.802246l0,-582.915845c0,-13.799652 -10.138837,-24.978384 -22.68105,-24.978384l-921.425869,0c-12.515947,0 -22.64165,11.178732 -22.64165,24.978384l0,582.915845c0,3.89518 0.866792,7.529716 2.311445,10.802246l-109.951217,0l0,40.29846c0,13.799652 10.15197,24.978384 22.667917,24.978384l1136.666014,0c12.515947,0 22.667917,-11.164252 22.667917,-24.978384l0,-40.29846l-109.938084,0zm-481.056274,-605.200908c1.234522,0 2.403377,0.275124 3.4803,0.767452c0.551595,0.260644 0.971857,0.709531 1.444653,1.086017c0.472795,0.347525 0.998124,0.593689 1.39212,1.028096c0.393996,0.434407 0.617261,1.013616 0.932458,1.520423c0.32833,0.535768 0.761726,0.999135 0.984991,1.607305c0.446529,1.172898 0.709193,2.476118 0.709193,3.837259s-0.262664,2.649881 -0.709193,3.837259c-0.275797,0.752972 -0.787992,1.346661 -1.221388,1.998271c-0.262664,0.362006 -0.407129,0.810892 -0.69606,1.129457c-0.393996,0.434407 -0.932458,0.695051 -1.39212,1.042576c-0.485929,0.362006 -0.906191,0.825373 -1.444653,1.071536c-1.076923,0.492328 -2.245779,0.767452 -3.4803,0.767452c-4.938086,0 -8.943715,-4.401988 -8.943715,-9.846551s4.005628,-9.846551 8.943715,-9.846551zm-444.664155,34.665653l889.302043,0l0,529.556225l-889.302043,0l0,-529.556225zm501.189482,613.063669l-113.050654,0c-4.924953,0 -8.930581,-4.416468 -8.930581,-9.889992c0,-5.430084 4.005628,-9.846551 8.930581,-9.846551l113.050654,0c4.924953,0 8.930581,4.416468 8.930581,9.846551c-0.013133,5.473524 -4.005628,9.889992 -8.930581,9.889992z"/>
   <polygon stroke="null" id="svg_13" points="272.1763610839844,322.56585541116954 272.1763610839844,340.27519746253245 272.1763610839844,340.2896241830648 532.725830078125,340.2896241830648 532.725830078125,340.27519746253245 532.725830078125,322.56585541116954 532.725830078125,322.5513329380673 272.1763610839844,322.5513329380673 "/>
   <rect stroke="null" transform="matrix(13.133207945718722,0,0,14.480222707190613,-35.75151914908706,-29.60429912816037) " id="svg_14" height="1.225" width="3.488" y="34.620763" x="35.040509"/>
   <rect stroke="null" transform="matrix(13.133207945718722,0,0,14.480222707190613,-35.75151914908706,-29.60429912816037) " id="svg_15" height="1.224" width="3.488" y="24.320763" x="44.959509"/>
   <rect stroke="null" transform="matrix(13.133207945718722,0,0,14.480222707190613,-35.75151914908706,-29.60429912816037) " id="svg_16" height="1.224" width="3.488" y="22.303763" x="37.784509"/>
   <rect stroke="null" transform="matrix(13.133207945718722,0,0,14.480222707190613,-35.75151914908706,-29.60429912816037) " id="svg_17" height="1.224" width="3.489" y="7.836763" x="19.099509"/>
   <rect stroke="null" transform="matrix(13.133207945718722,0,0,14.480222707190613,-35.75151914908706,-29.60429912816037) " id="svg_18" height="1.224" width="3.489" y="18.138763" x="19.099509"/>
   <rect stroke="null" transform="matrix(13.133207945718722,0,0,14.480222707190613,-35.75151914908706,-29.60429912816037) " id="svg_19" height="1.224" width="3.489" y="22.303763" x="19.099509"/>
   <rect stroke="null" transform="matrix(13.133207945718722,0,0,14.480222707190613,-35.75151914908706,-29.60429912816037) " id="svg_20" height="1.224" width="3.489" y="24.320763" x="19.099509"/>
   <rect stroke="null" transform="matrix(13.133207945718722,0,0,14.480222707190613,-35.75151914908706,-29.60429912816037) " id="svg_21" height="1.224" width="5.832" y="20.198763" x="19.099509"/>
   <rect stroke="null" transform="matrix(13.133207945718722,0,0,14.480222707190613,-35.75151914908706,-29.60429912816037) " id="svg_22" height="1.224" width="12.665" y="22.303763" x="23.446509"/>
   <rect stroke="null" transform="matrix(13.133207945718722,0,0,14.480222707190613,-35.75151914908706,-29.60429912816037) " id="svg_23" height="1.223" width="3.489" y="26.380763" x="19.099509"/>
   <rect stroke="null" transform="matrix(13.133207945718722,0,0,14.480222707190613,-35.75151914908706,-29.60429912816037) " id="svg_24" height="1.223" width="3.489" y="30.501763" x="19.099509"/>
   <rect stroke="null" transform="matrix(13.133207945718722,0,0,14.480222707190613,-35.75151914908706,-29.60429912816037) " id="svg_25" height="1.223" width="3.488" y="26.380763" x="52.044509"/>
   <rect stroke="null" transform="matrix(13.133207945718722,0,0,14.480222707190613,-35.75151914908706,-29.60429912816037) " id="svg_26" height="1.223" width="27.761" y="26.380763" x="23.446509"/>
   <rect stroke="null" transform="matrix(13.133207945718722,0,0,14.480222707190613,-35.75151914908706,-29.60429912816037) " id="svg_27" height="1.223" width="27.792" y="28.441763" x="19.099509"/>
   <rect stroke="null" transform="matrix(13.133207945718722,0,0,14.480222707190613,-35.75151914908706,-29.60429912816037) " id="svg_28" height="1.223" width="23.444" y="30.501763" x="23.446509"/>
   <rect stroke="null" transform="matrix(13.133207945718722,0,0,14.480222707190613,-35.75151914908706,-29.60429912816037) " id="svg_29" height="1.223" width="17.012" y="32.562763" x="19.099509"/>
   <rect stroke="null" transform="matrix(13.133207945718722,0,0,14.480222707190613,-35.75151914908706,-29.60429912816037) " id="svg_30" height="1.225" width="14.267" y="34.620763" x="19.099509"/>
   <rect stroke="null" transform="matrix(13.133207945718722,0,0,14.480222707190613,-35.75151914908706,-29.60429912816037) " id="svg_31" height="1.225" width="7.134" y="36.681763" x="19.099509"/>
   <rect stroke="null" transform="matrix(13.133207945718722,0,0,14.480222707190613,-35.75151914908706,-29.60429912816037) " id="svg_32" height="1.223" width="5.832" y="38.743763" x="19.099509"/>
   <rect stroke="null" transform="matrix(13.133207945718722,0,0,14.480222707190613,-35.75151914908706,-29.60429912816037) " id="svg_33" height="1.224" width="8.694" y="9.897763" x="19.099509"/>
   <rect stroke="null" transform="matrix(13.133207945718722,0,0,14.480222707190613,-35.75151914908706,-29.60429912816037) " id="svg_34" height="1.224" width="11.594" y="11.957763" x="19.099509"/>
   <rect stroke="null" transform="matrix(13.133207945718722,0,0,14.480222707190613,-35.75151914908706,-29.60429912816037) " id="svg_35" height="1.224" width="8.694" y="14.017763" x="19.099509"/>
   <rect stroke="null" transform="matrix(13.133207945718722,0,0,14.480222707190613,-35.75151914908706,-29.60429912816037) " id="svg_36" height="1.224" width="8.694" y="16.078763" x="19.099509"/>
   <rect stroke="null" transform="matrix(13.133207945718722,0,0,14.480222707190613,-35.75151914908706,-29.60429912816037) " id="svg_37" height="1.224" width="1.058" y="7.836763" x="17.205509"/>
   <rect stroke="null" transform="matrix(13.133207945718722,0,0,14.480222707190613,-35.75151914908706,-29.60429912816037) " id="svg_38" height="1.224" width="1.058" y="9.897763" x="17.205509"/>
   <rect stroke="null" transform="matrix(13.133207945718722,0,0,14.480222707190613,-35.75151914908706,-29.60429912816037) " id="svg_39" height="1.224" width="1.058" y="11.957763" x="17.205509"/>
   <rect stroke="null" transform="matrix(13.133207945718722,0,0,14.480222707190613,-35.75151914908706,-29.60429912816037) " id="svg_40" height="1.224" width="1.058" y="14.017763" x="17.205509"/>
   <rect stroke="null" transform="matrix(13.133207945718722,0,0,14.480222707190613,-35.75151914908706,-29.60429912816037) " id="svg_41" height="1.224" width="1.058" y="16.078763" x="17.205509"/>
   <rect stroke="null" transform="matrix(13.133207945718722,0,0,14.480222707190613,-35.75151914908706,-29.60429912816037) " id="svg_42" height="1.224" width="1.058" y="18.138763" x="17.205509"/>
   <rect stroke="null" transform="matrix(13.133207945718722,0,0,14.480222707190613,-35.75151914908706,-29.60429912816037) " id="svg_43" height="1.224" width="1.058" y="20.198763" x="17.205509"/>
   <rect stroke="null" transform="matrix(13.133207945718722,0,0,14.480222707190613,-35.75151914908706,-29.60429912816037) " id="svg_44" height="1.224" width="1.058" y="22.259763" x="17.205509"/>
   <rect stroke="null" transform="matrix(13.133207945718722,0,0,14.480222707190613,-35.75151914908706,-29.60429912816037) " id="svg_45" height="1.224" width="1.058" y="24.320763" x="17.205509"/>
   <rect stroke="null" transform="matrix(13.133207945718722,0,0,14.480222707190613,-35.75151914908706,-29.60429912816037) " id="svg_46" height="1.223" width="1.058" y="26.380763" x="17.205509"/>
   <rect stroke="null" transform="matrix(13.133207945718722,0,0,14.480222707190613,-35.75151914908706,-29.60429912816037) " id="svg_47" height="1.223" width="1.058" y="28.441763" x="17.205509"/>
   <rect stroke="null" transform="matrix(13.133207945718722,0,0,14.480222707190613,-35.75151914908706,-29.60429912816037) " id="svg_48" height="1.223" width="1.058" y="30.501763" x="17.205509"/>
   <rect stroke="null" transform="matrix(13.133207945718722,0,0,14.480222707190613,-35.75151914908706,-29.60429912816037) " id="svg_49" height="1.223" width="1.058" y="32.562763" x="17.205509"/>
   <rect stroke="null" transform="matrix(13.133207945718722,0,0,14.480222707190613,-35.75151914908706,-29.60429912816037) " id="svg_50" height="1.225" width="1.058" y="34.620763" x="17.205509"/>
   <rect stroke="null" transform="matrix(13.133207945718722,0,0,14.480222707190613,-35.75151914908706,-29.60429912816037) " id="svg_51" height="1.225" width="1.058" y="36.681763" x="17.205509"/>
   <rect stroke="null" transform="matrix(13.133207945718722,0,0,14.480222707190613,-35.75151914908706,-29.60429912816037) " id="svg_52" height="1.223" width="1.058" y="38.743763" x="17.205509"/>
  </g>
 </g>
</svg>