<svg class="content-subhead-image-light" version="1.1" xmlns="http://www.w3.org/2000/svg" xmlns:xlink="http://www.w3.org/1999/xlink" x="0px" y="0px" viewBox="0 0 99 141" xml:space="preserve">
    <defs><link href="../css/svg.css" type="text/css" rel="stylesheet" xmlns="http://www.w3.org/1999/xhtml" /></defs>
    <g id="gdg">
        <polygon fill="#FFFFFF" stroke="#000000" stroke-width="3" stroke-miterlimit="10" points="68.09,108.54 57.46,90.15 31.94,134.27 
        53.79,134.27 68.38,109.04   " />
        <polygon fill="#FFFFFF" stroke="#000000" stroke-width="3" stroke-miterlimit="10" points="45.96,70.27 57.46,90.15 31.94,134.27 
        8.94,134.27     " />
        <polygon fill="#FFFFFF" stroke="#000000" stroke-width="3" stroke-miterlimit="10" points="
                53.79,133.27 32.52,133.27 31.94,134.27 53.79,134.27 68.38,109.04 68.09,108.54           " />
        <polygon fill="#FFFFFF" stroke="#000000" stroke-width="3" stroke-miterlimit="10" points="
                9.52,133.27 8.94,134.27 31.94,134.27 32.52,133.27           " />
        <polygon fill="#FFFFFF" stroke="#000000" stroke-width="3" stroke-miterlimit="10" points="
                8.94,134.27 9.52,134.27 46.25,70.77 45.96,70.27             " />
        <polygon fill="#FFFFFF" stroke="#000000" stroke-width="3" stroke-miterlimit="10" points="31.94,6.27 8.94,6.27 68.38,109.04 
        79.87,89.17 79.88,89.15     " />
        <path fill="#FFFFFF" stroke="#21A521" stroke-width="3" stroke-miterlimit="10" d="M87.33,76.27c2.15-3.71,2.15-8.29,0-12
            l-33.54-58H31.94l47.94,82.88L87.33,76.27z" />
    </g>
</svg>
