<svg class="svg-light" version="1.1" xmlns="http://www.w3.org/2000/svg" xmlns:xlink="http://www.w3.org/1999/xlink" x="0px" y="0px" viewBox="80 20 450 792" xml:space="preserve">
    <defs><link href="../css/svg.css" type="text/css" rel="stylesheet" xmlns="http://www.w3.org/1999/xhtml" /></defs>
    <g id="gha" display="none">
        <rect x="71.833" y="26" display="inline" width="468.334" height="732" />
        <g display="inline">
            <g>
                <path fill-rule="evenodd" clip-rule="evenodd" fill="#FFFFFF" d="M463.455,249.687c-12.114,8.85-26.093,0.762-36.958,0
                c-22.591-1.583-45.902-2.156-66.807,6.305c-22.489,9.1-40.901,26.93-78.184,18.913c-15.921-3.424-29.093-14.913-46.907-15.76
                c-20.66-0.983-45.203,13.245-68.23,3.152c-9.489-39.822,15.268-63.09,45.488-70.923c27.326-7.086,60.975,1.496,93.814,1.575
                c28.096,0.068,62.185-11.846,95.24-6.304c13.745,2.305,31.685,13.063,41.222,22.065
                C452.433,218.433,466.625,234.809,463.455,249.687z" />
                <path fill-rule="evenodd" clip-rule="evenodd" fill="#FFFFFF" d="M433.604,282.785c-14.528-0.703-25.815-5-31.271-15.761
                C413.635,265.319,437.459,267.818,433.604,282.785z" />
                <path fill-rule="evenodd" clip-rule="evenodd" fill="#FFFFFF" d="M143.626,267.024c7.076,17.464-10.028,32.138-21.321,39.402
                c-1.809-14.275,10.252-26.322,14.215-39.402C138.889,267.024,141.258,267.024,143.626,267.024z" />
                <path fill-rule="evenodd" clip-rule="evenodd" fill="#FFFFFF" d="M361.111,273.329c4.213,6.603-10.385,15.891-15.637,18.912
                c16.672,29.948,61.318,12.147,86.71,9.457c9.345,45.851-50.772,73.323-82.446,47.282
                C325.898,329.379,327.22,279.829,361.111,273.329z M412.284,333.22c-12.61-11.237-42.952-2.812-55.438-14.186
                C355.577,336.75,398.46,347.41,412.284,333.22z" />
                <path fill-rule="evenodd" clip-rule="evenodd" fill="#FFFFFF" d="M383.854,278.058c4.349,1.957,4.535,4.583,1.422,7.88
                C381.657,285.778,381.916,280.065,383.854,278.058z" />
                <path fill-rule="evenodd" clip-rule="evenodd" fill="#FFFFFF" d="M248.813,281.208c5.626-2.513,17.22,1.889,24.165,3.152
                c32.349,32.222-2.365,97.152-49.751,80.379c-15.72-5.563-25.685-23.678-32.692-39.401c21.68-15.078,58.906-16.906,83.865-23.641
                C272.93,290.546,255.753,292.396,248.813,281.208z M210.436,339.523c17.237,10.828,50.247,0.705,55.437-17.337
                C251.095,332.07,223.996,328.291,210.436,339.523z" />
                <path fill-rule="evenodd" clip-rule="evenodd" fill="#FFFFFF" d="M206.17,281.208c1.346,13.083-7.676,26.808-19.899,29.947
                C182.355,294.744,189.732,280.012,206.17,281.208z" />
                <path fill-rule="evenodd" clip-rule="evenodd" fill="#FFFFFF" d="M398.067,282.785c5.06,0.697,6.228,5.706,9.95,7.88
                c-1.67,6.112-9.728,4.638-12.792,1.576C395.693,288.556,396.934,285.729,398.067,282.785z" />
                <path fill-rule="evenodd" clip-rule="evenodd" fill="#FFFFFF" d="M230.336,285.938c3.717-0.445,6.113,0.574,5.686,4.728
                C233.359,293.761,229.173,291.578,230.336,285.938z" />
                <path fill-rule="evenodd" clip-rule="evenodd" fill="#FFFFFF" d="M368.219,285.938c0.383,5.679,0.354,10.901-5.687,9.456
                C359.892,292.003,362.318,284.676,368.219,285.938z" />
                <path fill-rule="evenodd" clip-rule="evenodd" fill="#FFFFFF" d="M481.933,285.938c-2.286,15.299,10.371,47.57,4.267,66.195
                c-5.439-0.523-17.801-21.114-18.478-28.369C467.362,319.955,473.418,283.684,481.933,285.938z" />
                <path fill-rule="evenodd" clip-rule="evenodd" fill="#FFFFFF" d="M248.813,290.666c4.464-0.745,3.756,4.243,7.108,4.729
                c-0.983,3.112-3.792,4.201-7.108,4.729C248.813,296.97,248.813,293.817,248.813,290.666z" />
                <path fill-rule="evenodd" clip-rule="evenodd" fill="#FFFFFF" d="M217.543,292.241c2.583,1.864,1.117,8.218,2.842,11.033
                c-2.068,2.317-9.304,2.317-11.372,0C211.516,299.219,214.65,295.866,217.543,292.241z" />
                <path fill-rule="evenodd" clip-rule="evenodd" fill="#FFFFFF" d="M358.268,382.076c-13.836,21.537-65.945,19.9-85.289,4.73
                c-3.092-11.516,5.291-17.779,9.95-28.371c10.822-24.596,10.674-67.043,38.378-55.162
                C331.727,331.653,345.319,356.509,358.268,382.076z" />
                <path fill-rule="evenodd" clip-rule="evenodd" fill="#FFFFFF" d="M454.927,301.698c6.604,25.844,1.416,54.988-9.949,81.956
                c-6.319,14.99-21.011,18.11-17.059,42.553c1.936,6.259,8.652,7.221,9.95,14.187c0.566,23.767-6.911,41.099-14.213,58.312
                c-4.349,10.248-7.505,26.969-18.48,23.643c-1.292-10.361,4.792-12.551,4.263-22.066c-3.374-4.648-8.61,1.904-12.793,1.578
                c-1.156-9.525-6.54-13.305-7.105-20.488c-1.381-17.51,13.932-36.124,12.793-48.859c-1.951-21.809-37.463-21.499-29.851-50.436
                c13.855-10.765,30.881-7.082,42.644-17.336c16.72-14.576,20.79-37.932,29.852-61.466c1.146-1.355,3.892-0.937,4.262-3.151
                C451.79,299.923,452.238,302.052,454.927,301.698z" />
                <path fill-rule="evenodd" clip-rule="evenodd" fill="#FFFFFF" d="M142.205,304.85c7.787-0.47,6.631,12.472-1.421,11.032
                C139.898,309.779,139.607,309.393,142.205,304.85z" />
                <path fill-rule="evenodd" clip-rule="evenodd" fill="#FFFFFF" d="M170.635,314.307c11.396,5.392,11.365,21.24,17.057,31.522
                c12.271,22.165,33.325,40.062,65.387,42.554c0.764,24.274-22.445,33.207-24.164,53.586c-1.273,15.08,9.887,30.328,7.107,52.012
                c9.193-1.891,5.964-17.555,12.792-22.066c19.521-9.174,42.491-2.053,63.966-3.152c22.888-1.17,47.103-12.176,68.23-3.15
                c2.969,15.094,5.148,31.066,14.216,39.4c-9.556,10.873-9.499,29.875-21.321,40.979c-13.34,12.525-46.54,6.828-65.39,1.574
                c-8.117,1.949-25.196,10.424-42.643,6.307c-5.157-1.219-11.164-8.613-17.059-11.033c-13.921-5.721-23.308-0.441-25.586-15.762
                c-1.411-9.488,4.606-13.025,5.687-23.639c-38.432,6.916-48.89-62.495-34.115-94.565c-2.981-6.676-7.744-11.379-11.371-17.337
                C187.844,362.471,152.418,333.516,170.635,314.307z M280.086,486.098c10.887,20.807,63.344,20.684,63.967-4.727
                C325.79,487.08,298.158,484.623,280.086,486.098z" />
                <path fill-rule="evenodd" clip-rule="evenodd" fill="#FFFFFF" d="M140.784,320.611c13.737,5.209,5.245,30.422,8.528,44.129
                c5.862,1.17,9.63-8.129,12.793-4.727c8.345,4.932,8.908,18.492,9.949,31.521c-19.116,23.289-31.79-3.113-39.8-20.49
                C141.105,360.895,131.541,330.326,140.784,320.611z" />
                <path fill-rule="evenodd" clip-rule="evenodd" fill="#FFFFFF" d="M464.875,367.893c1.073,9.596-2.271,14.292-1.42,23.643
                C449.563,392.6,455.366,367.766,464.875,367.893z" />
                <path fill-rule="evenodd" clip-rule="evenodd" fill="#FFFFFF" d="M386.696,454.578c-31.534-2.523-69.616-12.984-105.189-7.882
                c-14.879,2.137-23.649,20.175-38.38,14.187c-10.07-10.862,11.539-60.313,22.745-58.315c8.185,1.457,21.106,3.038,31.271,6.305
                c9.623,3.09,14.106,8.493,22.744,7.88c12.896-0.919,23.722-16.697,36.959-14.185
                C368.253,404.732,389.146,440.129,386.696,454.578z" />
                <path fill-rule="evenodd" clip-rule="evenodd" fill="#FFFFFF" d="M476.247,408.872c0.789,19.592-10.449,33.14-28.429,26.792
                C430.685,412.016,461.002,393.449,476.247,408.872z" />
                <path fill-rule="evenodd" clip-rule="evenodd" fill="#FFFFFF" d="M174.898,408.872c20.588,40.769-34.732,42.692-31.272,0
                C152.429,408.026,165.539,407.252,174.898,408.872z" />
                <path fill-rule="evenodd" clip-rule="evenodd" fill="#FFFFFF" d="M130.832,423.057c5.8-0.65,8.969,1.615,8.529,7.879
                c-1.68,1.816-5.023,1.785-8.529,1.576C129.557,427.898,129.557,427.671,130.832,423.057z" />
                <path fill-rule="evenodd" clip-rule="evenodd" fill="#FFFFFF" d="M187.691,484.521c-13.789,2.568-49.783-14.465-51.172-29.943
                c-1.421-15.842,15.278-17.488,22.742-3.152C182.014,446.789,190.574,465.953,187.691,484.521z" />
                <path fill-rule="evenodd" clip-rule="evenodd" fill="#FFFFFF" d="M459.191,451.426c4.036,14.689-3.529,29.539-15.635,31.521
                C439.169,468.791,447.842,448.134,459.191,451.426z" />
                <path fill-rule="evenodd" clip-rule="evenodd" fill="#FFFFFF" d="M396.646,602.729c-8.528,0-17.055,0-25.585,0
                c6.482-31.691,22.302-53.025,44.065-67.77c15.651,25.066-8.03,43.666-19.9,53.586
                C396.42,592.473,397.085,596.988,396.646,602.729z" />
                <path fill-rule="evenodd" clip-rule="evenodd" fill="#FFFFFF" d="M275.822,602.729c-19.9,0-39.801,0-59.701,0
                c-2.322-17.914-3.526-37.07-2.844-58.314c18.41,9.006,29.504,26.127,38.379,45.705c6.738-0.408,3.707-11.648,11.373-11.033
                C273.803,579.75,277.047,588.762,275.822,602.729z" />
                <path fill-rule="evenodd" clip-rule="evenodd" fill="#FFFFFF" d="M358.268,602.729c-6.159,0-12.319,0-18.48,0
                c8.544-10.492,7.474-31.645,25.588-31.521C372.706,582.389,358.387,590.055,358.268,602.729z" />
                <path fill-rule="evenodd" clip-rule="evenodd" fill="#FFFFFF" d="M201.906,602.729c-1.422,0-2.843,0-4.264,0
                c0.652-7.682-1.488-18.459,1.421-23.643C204.748,581.713,200.677,595.162,201.906,602.729z" />
                <path fill-rule="evenodd" clip-rule="evenodd" fill="#FFFFFF" d="M416.546,602.729c-3.79,0-7.579,0-11.37,0
                c-0.101-5.893,2.284-9.027,5.686-11.033C416.027,591.748,417.107,596.332,416.546,602.729z" />
            </g>
            <g>
                <path fill-rule="evenodd" clip-rule="evenodd" fill="#FFFFFF" d="M229.725,83.878c-4.085,11.96-0.289,31.802-7.521,40.616
                c-7.517,1.5-7.362-4.671-13.539-4.513c-26.501,6.09-30.412,34.773-57.163,40.616C152.146,115.588,189.446,94.261,229.725,83.878z
                " />
                <path fill-rule="evenodd" clip-rule="evenodd" fill="#FFFFFF" d="M471.916,168.118c-17.79,7.45-22.14-16.243-34.599-22.564
                c-16.053-8.143-35.728-7.031-49.643-19.556c-1.948-14.097-2.792-29.299-7.521-40.615
                C422.836,93.876,470.017,118.84,471.916,168.118z" />
                <path fill-rule="evenodd" clip-rule="evenodd" fill="#FFFFFF" d="M410.238,153.075c6.712-0.193,5.383,7.655,9.026,10.53
                c4.952-0.063,7.489-2.54,13.539-1.504c0.235,8.29,6.025,11.023,7.521,18.051c-18.371-2.186-31.92-9.197-45.128-16.547
                C396.239,156.124,404.114,155.474,410.238,153.075z" />
                <path fill-rule="evenodd" clip-rule="evenodd" fill="#FFFFFF" d="M201.144,154.58c8.412-0.39,15.77,0.275,19.555,4.513
                C221.263,174.333,192.768,167.954,201.144,154.58z" />
                <path fill-rule="evenodd" clip-rule="evenodd" fill="#FFFFFF" d="M288.392,169.622c-7.866,5.171-19.662,6.412-31.59,7.522
                c-3.82-1.696-3.475-7.557-7.521-9.026c-6.893,0.714-15.957,6.349-21.061,0C234.547,144.73,279.316,156.383,288.392,169.622z" />
                <path fill-rule="evenodd" clip-rule="evenodd" fill="#FFFFFF" d="M198.106,177.984c-1.213,1.293-4.12,0.894-4.513,3.009
                c-6.135-0.887-9.644-4.397-10.53-10.53C187.855,165.938,198.823,168.561,198.106,177.984z" />
                <path fill-rule="evenodd" clip-rule="evenodd" fill="#FFFFFF" d="M313.964,77.861c12.265-10.591,35.788-8.875,40.617,7.522
                c-9.128,3.54-30.339-0.375-37.607,9.025c0.446,3.063,3.012,4.007,4.513,6.017c9.969-1.269,18.152-9.945,30.086-4.513
                c2.139,5.033,2.139,14.523,0,19.556c-5.308,2.908-6.727-0.705-12.034-1.504c3.123,2.136-2.752,18.4,3.008,21.06
                c7.114-0.262-0.539-5.95,1.505-10.53c15.643-3.434,7.576,20.838,7.521,28.582c7.878,8.089,29.621-0.188,39.111,9.026
                c0,3.008,0,6.017,0,9.026c-5.634,2.741-13.629,1.246-18.051-1.505c-6.463-0.445-4.897,7.138-9.026,9.026
                c-9.627-2.927-30.562-2.508-30.086-10.53c1.438-7.588,15.157-2.895,13.539-13.539c-25.623-7.378-55.5,5.357-78.224-7.521
                c0.647-17.319-10.229-35.335-1.505-52.65c9.49,0.038,16.584,2.47,22.564,6.017c5.123,0.107,5.604-4.425,7.522-7.521
                c-11.164-10.327-30.26-4.434-42.12-4.513c-0.672-15.457,26.645-23.51,39.111-10.53c7.967-0.852,0.626-11.182,6.018-12.034
                C308.644,60.745,308.694,75.152,313.964,77.861z" />
                <path fill-rule="evenodd" clip-rule="evenodd" d="M316.974,115.468c-0.684,6.057-19.179,7.075-19.556,0
                C304.243,113.205,309.756,114.486,316.974,115.468z" />
                <path fill-rule="evenodd" clip-rule="evenodd" d="M276.357,124.494c5.202-1.19,6.351,1.672,9.026,3.009
                c-1.111,5.408-2.983,10.054-10.531,9.026C272.093,133.591,275.274,128.109,276.357,124.494z" />
            </g>
        </g>
        <g display="inline">
            <g>
                <rect x="104.5" y="560.667" fill="#ED1C24" width="403" height="161.5" />
                <g>
                    <path fill="#FFFFFF" d="M118.024,700.139l6.149-38.827c5.146,8.967,11.532,13.449,19.166,13.449c2.882,0,5.35-0.761,7.406-2.281
                    c2.055-1.521,3.265-3.429,3.628-5.724c0.524-3.309-0.94-6.537-4.39-9.688l-4.772-4.243c-3.199-2.722-5.865-5.43-7.999-8.126
                    c-2.136-2.694-3.777-5.47-4.927-8.326c-1.148-2.854-1.856-5.804-2.122-8.846c-0.266-3.042-0.131-6.244,0.401-9.606
                    c0.913-5.765,3.201-11.795,6.868-18.093c1.799-2.935,3.772-5.617,5.918-8.046c2.146-2.429,4.514-4.575,7.105-6.444
                    c7.142-5.336,15.17-8.006,24.083-8.006c7.952,0,15.624,2.109,23.016,6.324l-5.984,37.787c-2.054-4.215-4.625-7.538-7.708-9.967
                    c-3.085-2.429-6.308-3.643-9.67-3.643c-2.562,0-4.79,0.748-6.679,2.241c-1.937,1.441-3.064,3.176-3.386,5.204
                    c-0.524,3.31,1.224,6.592,5.245,9.847l4.662,3.923c6.242,5.071,10.461,10.275,12.658,15.611
                    c2.25,5.337,2.81,11.582,1.677,18.732c-1.927,12.169-7.227,22.204-15.896,30.102c-8.67,7.899-18.689,11.849-30.056,11.849
                    C134.573,705.343,126.441,703.607,118.024,700.139z" />
                    <path fill="#FFFFFF" d="M265.131,579.573h33.384l-13.846,87.422c-1.158,7.313-3.245,13.238-6.257,17.773
                    c-2.994,4.751-7.411,9.046-13.249,12.889c-7.856,5.124-16.829,7.686-26.916,7.686c-11.422,0-20.555-2.828-27.396-8.486
                    c-8.681-7.205-11.764-18.733-9.253-34.584l13.098-82.699h33.384l-12.629,79.737c-0.854,5.392-0.806,9.206,0.148,11.447
                    c0.953,2.242,2.976,3.363,6.072,3.363c3.202,0,5.582-1.041,7.139-3.123c1.574-2.188,2.801-6.056,3.68-11.607L265.131,579.573z" />
                    <path fill="#FFFFFF" d="M292.951,703.182l19.577-123.608h28.82c16.491,0,28.625,4.432,36.401,13.29
                    c10.228,11.582,13.693,27.779,10.396,48.594c-3.245,20.495-10.849,36.32-22.809,47.475c-10.205,9.5-23.927,14.25-41.165,14.25
                    H292.951z M331.064,673.32c12.047-0.587,19.657-10.888,22.827-30.902c1.563-9.873,1.276-17.664-0.861-23.376
                    c-2.129-5.765-5.783-8.646-10.96-8.646h-1.04L331.064,673.32z" />
                    <path fill="#FFFFFF" d="M489.932,641.777c-2.983,18.842-9.706,34.158-20.167,45.953c-10.399,11.742-22.456,17.612-36.173,17.612
                    c-12.168,0-21.89-4.509-29.159-13.529c-9.133-11.42-11.89-28.553-8.271-51.396c3.466-21.882,11.826-38.613,25.082-50.196
                    c9.847-8.592,20.587-12.889,32.223-12.889c14.25,0,24.67,5.818,31.26,17.452C491.315,606.421,493.051,622.084,489.932,641.777z
                     M455.229,642.018c3.541-22.361,1.362-33.544-6.535-33.544c-3.951,0-7.565,2.937-10.843,8.807
                    c-3.156,5.444-5.572,13.449-7.246,24.017c-1.648,10.408-1.846,18.481-0.593,24.217c1.253,5.738,3.801,8.607,7.644,8.607
                    c3.949,0,7.439-2.828,10.47-8.486C451.265,659.979,453.632,652.105,455.229,642.018z" />
                </g>
            </g>
            <rect x="99.333" y="52.75" fill="none" stroke="#FFFFFF" stroke-width="18" stroke-miterlimit="10" width="413.334" height="678.5" />
        </g>
    </g>
    <g id="hopper">
        <!-- <rect x="71.833" y="26" fill="#FFF200" width="468.334" height="732"/> -->
        <g>
            <g>
                <path fill-rule="evenodd" clip-rule="evenodd" fill="#FFFFFF" d="M463.455,249.687c-12.114,8.85-26.093,0.762-36.958,0
                c-22.591-1.583-45.902-2.156-66.807,6.305c-22.489,9.1-40.901,26.93-78.184,18.913c-15.921-3.424-29.093-14.913-46.907-15.76
                c-20.66-0.983-45.203,13.245-68.23,3.152c-9.489-39.822,15.268-63.09,45.488-70.923c27.326-7.086,60.975,1.496,93.814,1.575
                c28.096,0.068,62.185-11.846,95.24-6.304c13.745,2.305,31.685,13.063,41.222,22.065
                C452.433,218.433,466.625,234.809,463.455,249.687z" />
                <path fill-rule="evenodd" clip-rule="evenodd" fill="#FFFFFF" d="M433.604,282.785c-14.528-0.703-25.815-5-31.271-15.761
                C413.635,265.319,437.459,267.818,433.604,282.785z" />
                <path fill-rule="evenodd" clip-rule="evenodd" fill="#FFFFFF" d="M143.626,267.024c7.076,17.464-10.028,32.138-21.321,39.402
                c-1.809-14.275,10.252-26.322,14.215-39.402C138.889,267.024,141.258,267.024,143.626,267.024z" />
                <path fill-rule="evenodd" clip-rule="evenodd" fill="#FFFFFF" d="M361.111,273.329c4.213,6.603-10.385,15.891-15.637,18.912
                c16.672,29.948,61.318,12.147,86.71,9.457c9.345,45.851-50.772,73.323-82.446,47.282
                C325.898,329.379,327.22,279.829,361.111,273.329z M412.284,333.22c-12.61-11.237-42.952-2.812-55.438-14.186
                C355.577,336.75,398.46,347.41,412.284,333.22z" />
                <path fill-rule="evenodd" clip-rule="evenodd" fill="#FFFFFF" d="M383.854,278.058c4.349,1.957,4.535,4.583,1.422,7.88
                C381.657,285.778,381.916,280.065,383.854,278.058z" />
                <path fill-rule="evenodd" clip-rule="evenodd" fill="#FFFFFF" d="M248.813,281.208c5.626-2.513,17.22,1.889,24.165,3.152
                c32.349,32.222-2.365,97.152-49.751,80.379c-15.72-5.563-25.685-23.678-32.692-39.401c21.68-15.078,58.906-16.906,83.865-23.641
                C272.93,290.546,255.753,292.396,248.813,281.208z M210.436,339.523c17.237,10.828,50.247,0.705,55.437-17.337
                C251.095,332.07,223.996,328.291,210.436,339.523z" />
                <path fill-rule="evenodd" clip-rule="evenodd" fill="#FFFFFF" d="M206.17,281.208c1.346,13.083-7.676,26.808-19.899,29.947
                C182.355,294.744,189.732,280.012,206.17,281.208z" />
                <path fill-rule="evenodd" clip-rule="evenodd" fill="#FFFFFF" d="M398.067,282.785c5.06,0.697,6.228,5.706,9.95,7.88
                c-1.67,6.112-9.728,4.638-12.792,1.576C395.693,288.556,396.934,285.729,398.067,282.785z" />
                <path fill-rule="evenodd" clip-rule="evenodd" fill="#FFFFFF" d="M230.336,285.938c3.717-0.445,6.113,0.574,5.686,4.728
                C233.359,293.761,229.173,291.578,230.336,285.938z" />
                <path fill-rule="evenodd" clip-rule="evenodd" fill="#FFFFFF" d="M368.219,285.938c0.383,5.679,0.354,10.901-5.687,9.456
                C359.892,292.003,362.318,284.676,368.219,285.938z" />
                <path fill-rule="evenodd" clip-rule="evenodd" fill="#FFFFFF" d="M481.933,285.938c-2.286,15.299,10.371,47.57,4.267,66.195
                c-5.439-0.523-17.801-21.114-18.478-28.369C467.362,319.955,473.418,283.684,481.933,285.938z" />
                <path fill-rule="evenodd" clip-rule="evenodd" fill="#FFFFFF" d="M248.813,290.666c4.464-0.745,3.756,4.243,7.108,4.729
                c-0.983,3.112-3.792,4.201-7.108,4.729C248.813,296.97,248.813,293.817,248.813,290.666z" />
                <path fill-rule="evenodd" clip-rule="evenodd" fill="#FFFFFF" d="M217.543,292.241c2.583,1.864,1.117,8.218,2.842,11.033
                c-2.068,2.317-9.304,2.317-11.372,0C211.516,299.219,214.65,295.866,217.543,292.241z" />
                <path fill-rule="evenodd" clip-rule="evenodd" fill="#FFFFFF" d="M358.268,382.076c-13.836,21.537-65.945,19.9-85.289,4.73
                c-3.092-11.516,5.291-17.779,9.95-28.371c10.822-24.596,10.674-67.043,38.378-55.162
                C331.727,331.653,345.319,356.509,358.268,382.076z" />
                <path fill-rule="evenodd" clip-rule="evenodd" fill="#FFFFFF" d="M454.927,301.698c6.604,25.844,1.416,54.988-9.949,81.956
                c-6.319,14.99-21.011,18.11-17.059,42.553c1.936,6.259,8.652,7.221,9.95,14.187c0.566,23.767-6.911,41.099-14.213,58.312
                c-4.349,10.248-7.505,26.969-18.48,23.643c-1.292-10.361,4.792-12.551,4.263-22.066c-3.374-4.648-8.61,1.904-12.793,1.578
                c-1.156-9.525-6.54-13.305-7.105-20.488c-1.381-17.51,13.932-36.124,12.793-48.859c-1.951-21.809-37.463-21.499-29.851-50.436
                c13.855-10.765,30.881-7.082,42.644-17.336c16.72-14.576,20.79-37.932,29.852-61.466c1.146-1.355,3.892-0.937,4.262-3.151
                C451.79,299.923,452.238,302.052,454.927,301.698z" />
                <path fill-rule="evenodd" clip-rule="evenodd" fill="#FFFFFF" d="M142.205,304.85c7.787-0.47,6.631,12.472-1.421,11.032
                C139.898,309.779,139.607,309.393,142.205,304.85z" />
                <path fill-rule="evenodd" clip-rule="evenodd" fill="#FFFFFF" d="M170.635,314.307c11.396,5.392,11.365,21.24,17.057,31.522
                c12.271,22.165,33.325,40.062,65.387,42.554c0.764,24.274-22.445,33.207-24.164,53.586c-1.273,15.08,9.887,30.328,7.107,52.012
                c9.193-1.891,5.964-17.555,12.792-22.066c19.521-9.174,42.491-2.053,63.966-3.152c22.888-1.17,47.103-12.176,68.23-3.15
                c2.969,15.094,5.148,31.066,14.216,39.4c-9.556,10.873-9.499,29.875-21.321,40.979c-13.34,12.525-46.54,6.828-65.39,1.574
                c-8.117,1.949-25.196,10.424-42.643,6.307c-5.157-1.219-11.164-8.613-17.059-11.033c-13.921-5.721-23.308-0.441-25.586-15.762
                c-1.411-9.488,4.606-13.025,5.687-23.639c-38.432,6.916-48.89-62.495-34.115-94.565c-2.981-6.676-7.744-11.379-11.371-17.337
                C187.844,362.471,152.418,333.516,170.635,314.307z M280.086,486.098c10.887,20.807,63.344,20.684,63.967-4.727
                C325.79,487.08,298.158,484.623,280.086,486.098z" />
                <path fill-rule="evenodd" clip-rule="evenodd" fill="#FFFFFF" d="M140.784,320.611c13.737,5.209,5.245,30.422,8.528,44.129
                c5.862,1.17,9.63-8.129,12.793-4.727c8.345,4.932,8.908,18.492,9.949,31.521c-19.116,23.289-31.79-3.113-39.8-20.49
                C141.105,360.895,131.541,330.326,140.784,320.611z" />
                <path fill-rule="evenodd" clip-rule="evenodd" fill="#FFFFFF" d="M464.875,367.893c1.073,9.596-2.271,14.292-1.42,23.643
                C449.563,392.6,455.366,367.766,464.875,367.893z" />
                <path fill-rule="evenodd" clip-rule="evenodd" fill="#FFFFFF" d="M386.696,454.578c-31.534-2.523-69.616-12.984-105.189-7.882
                c-14.879,2.137-23.649,20.175-38.38,14.187c-10.07-10.862,11.539-60.313,22.745-58.315c8.185,1.457,21.106,3.038,31.271,6.305
                c9.623,3.09,14.106,8.493,22.744,7.88c12.896-0.919,23.722-16.697,36.959-14.185
                C368.253,404.732,389.146,440.129,386.696,454.578z" />
                <path fill-rule="evenodd" clip-rule="evenodd" fill="#FFFFFF" d="M476.247,408.872c0.789,19.592-10.449,33.14-28.429,26.792
                C430.685,412.016,461.002,393.449,476.247,408.872z" />
                <path fill-rule="evenodd" clip-rule="evenodd" fill="#FFFFFF" d="M174.898,408.872c20.588,40.769-34.732,42.692-31.272,0
                C152.429,408.026,165.539,407.252,174.898,408.872z" />
                <path fill-rule="evenodd" clip-rule="evenodd" fill="#FFFFFF" d="M130.832,423.057c5.8-0.65,8.969,1.615,8.529,7.879
                c-1.68,1.816-5.023,1.785-8.529,1.576C129.557,427.898,129.557,427.671,130.832,423.057z" />
                <path fill-rule="evenodd" clip-rule="evenodd" fill="#FFFFFF" d="M187.691,484.521c-13.789,2.568-49.783-14.465-51.172-29.943
                c-1.421-15.842,15.278-17.488,22.742-3.152C182.014,446.789,190.574,465.953,187.691,484.521z" />
                <path fill-rule="evenodd" clip-rule="evenodd" fill="#FFFFFF" d="M459.191,451.426c4.036,14.689-3.529,29.539-15.635,31.521
                C439.169,468.791,447.842,448.134,459.191,451.426z" />
                <path fill-rule="evenodd" clip-rule="evenodd" fill="#FFFFFF" d="M396.646,602.729c-8.528,0-17.055,0-25.585,0
                c6.482-31.691,22.302-53.025,44.065-67.77c15.651,25.066-8.03,43.666-19.9,53.586
                C396.42,592.473,397.085,596.988,396.646,602.729z" />
                <path fill-rule="evenodd" clip-rule="evenodd" fill="#FFFFFF" d="M275.822,602.729c-19.9,0-39.801,0-59.701,0
                c-2.322-17.914-3.526-37.07-2.844-58.314c18.41,9.006,29.504,26.127,38.379,45.705c6.738-0.408,3.707-11.648,11.373-11.033
                C273.803,579.75,277.047,588.762,275.822,602.729z" />
                <path fill-rule="evenodd" clip-rule="evenodd" fill="#FFFFFF" d="M358.268,602.729c-6.159,0-12.319,0-18.48,0
                c8.544-10.492,7.474-31.645,25.588-31.521C372.706,582.389,358.387,590.055,358.268,602.729z" />
                <path fill-rule="evenodd" clip-rule="evenodd" fill="#FFFFFF" d="M201.906,602.729c-1.422,0-2.843,0-4.264,0
                c0.652-7.682-1.488-18.459,1.421-23.643C204.748,581.713,200.677,595.162,201.906,602.729z" />
                <path fill-rule="evenodd" clip-rule="evenodd" fill="#FFFFFF" d="M416.546,602.729c-3.79,0-7.579,0-11.37,0
                c-0.101-5.893,2.284-9.027,5.686-11.033C416.027,591.748,417.107,596.332,416.546,602.729z" />
            </g>
            <g>
                <path fill-rule="evenodd" clip-rule="evenodd" fill="#FFFFFF" d="M229.725,83.878c-4.085,11.96-0.289,31.802-7.521,40.616
                c-7.517,1.5-7.362-4.671-13.539-4.513c-26.501,6.09-30.412,34.773-57.163,40.616C152.146,115.588,189.446,94.261,229.725,83.878z
                " />
                <path fill-rule="evenodd" clip-rule="evenodd" fill="#FFFFFF" d="M471.916,168.118c-17.79,7.45-22.14-16.243-34.599-22.564
                c-16.053-8.143-35.728-7.031-49.643-19.556c-1.948-14.097-2.792-29.299-7.521-40.615
                C422.836,93.876,470.017,118.84,471.916,168.118z" />
                <path fill-rule="evenodd" clip-rule="evenodd" fill="#FFFFFF" d="M410.238,153.075c6.712-0.193,5.383,7.655,9.026,10.53
                c4.952-0.063,7.489-2.54,13.539-1.504c0.235,8.29,6.025,11.023,7.521,18.051c-18.371-2.186-31.92-9.197-45.128-16.547
                C396.239,156.124,404.114,155.474,410.238,153.075z" />
                <path fill-rule="evenodd" clip-rule="evenodd" fill="#FFFFFF" d="M201.144,154.58c8.412-0.39,15.77,0.275,19.555,4.513
                C221.263,174.333,192.768,167.954,201.144,154.58z" />
                <path fill-rule="evenodd" clip-rule="evenodd" fill="#FFFFFF" d="M288.392,169.622c-7.866,5.171-19.662,6.412-31.59,7.522
                c-3.82-1.696-3.475-7.557-7.521-9.026c-6.893,0.714-15.957,6.349-21.061,0C234.547,144.73,279.316,156.383,288.392,169.622z" />
                <path fill-rule="evenodd" clip-rule="evenodd" fill="#FFFFFF" d="M198.106,177.984c-1.213,1.293-4.12,0.894-4.513,3.009
                c-6.135-0.887-9.644-4.397-10.53-10.53C187.855,165.938,198.823,168.561,198.106,177.984z" />
                <path fill-rule="evenodd" clip-rule="evenodd" fill="#FFFFFF" d="M313.964,77.861c12.265-10.591,35.788-8.875,40.617,7.522
                c-9.128,3.54-30.339-0.375-37.607,9.025c0.446,3.063,3.012,4.007,4.513,6.017c9.969-1.269,18.152-9.945,30.086-4.513
                c2.139,5.033,2.139,14.523,0,19.556c-5.308,2.908-6.727-0.705-12.034-1.504c3.123,2.136-2.752,18.4,3.008,21.06
                c7.114-0.262-0.539-5.95,1.505-10.53c15.643-3.434,7.576,20.838,7.521,28.582c7.878,8.089,29.621-0.188,39.111,9.026
                c0,3.008,0,6.017,0,9.026c-5.634,2.741-13.629,1.246-18.051-1.505c-6.463-0.445-4.897,7.138-9.026,9.026
                c-9.627-2.927-30.562-2.508-30.086-10.53c1.438-7.588,15.157-2.895,13.539-13.539c-25.623-7.378-55.5,5.357-78.224-7.521
                c0.647-17.319-10.229-35.335-1.505-52.65c9.49,0.038,16.584,2.47,22.564,6.017c5.123,0.107,5.604-4.425,7.522-7.521
                c-11.164-10.327-30.26-4.434-42.12-4.513c-0.672-15.457,26.645-23.51,39.111-10.53c7.967-0.852,0.626-11.182,6.018-12.034
                C308.644,60.745,308.694,75.152,313.964,77.861z" />
            </g>
        </g>
    </g>
    <g id="gha-sudo">
        <g>
            <rect x="104.5" y="560.667" fill="#ED1C24" width="403" height="161.5" />
            <g>
                <path fill="#FFFFFF" d="M118.024,700.139l6.149-38.827c5.146,8.967,11.532,13.449,19.166,13.449c2.882,0,5.35-0.761,7.406-2.281
                c2.055-1.521,3.265-3.429,3.628-5.724c0.524-3.309-0.94-6.537-4.39-9.688l-4.772-4.243c-3.199-2.722-5.865-5.43-7.999-8.126
                c-2.136-2.694-3.777-5.47-4.927-8.326c-1.148-2.854-1.856-5.804-2.122-8.846c-0.266-3.042-0.131-6.244,0.401-9.606
                c0.913-5.765,3.201-11.795,6.868-18.093c1.799-2.935,3.772-5.617,5.918-8.046c2.146-2.429,4.514-4.575,7.105-6.444
                c7.142-5.336,15.17-8.006,24.083-8.006c7.952,0,15.624,2.109,23.016,6.324l-5.984,37.787c-2.054-4.215-4.625-7.538-7.708-9.967
                c-3.085-2.429-6.308-3.643-9.67-3.643c-2.562,0-4.79,0.748-6.679,2.241c-1.937,1.441-3.064,3.176-3.386,5.204
                c-0.524,3.31,1.224,6.592,5.245,9.847l4.662,3.923c6.242,5.071,10.461,10.275,12.658,15.611c2.25,5.337,2.81,11.582,1.677,18.732
                c-1.927,12.169-7.227,22.204-15.896,30.102c-8.67,7.899-18.689,11.849-30.056,11.849
                C134.573,705.343,126.441,703.607,118.024,700.139z" />
                <path fill="#FFFFFF" d="M265.131,579.573h33.384l-13.846,87.422c-1.158,7.313-3.245,13.238-6.257,17.773
                c-2.994,4.751-7.411,9.046-13.249,12.889c-7.856,5.124-16.829,7.686-26.916,7.686c-11.422,0-20.555-2.828-27.396-8.486
                c-8.681-7.205-11.764-18.733-9.253-34.584l13.098-82.699h33.384l-12.629,79.737c-0.854,5.392-0.806,9.206,0.148,11.447
                c0.953,2.242,2.976,3.363,6.072,3.363c3.202,0,5.582-1.041,7.139-3.123c1.574-2.188,2.801-6.056,3.68-11.607L265.131,579.573z" />
                <path fill="#FFFFFF" d="M292.95,703.182l19.577-123.608h28.82c16.491,0,28.625,4.432,36.402,13.29
                c10.227,11.582,13.692,27.779,10.396,48.594c-3.246,20.495-10.85,36.32-22.81,47.475c-10.205,9.5-23.927,14.25-41.165,14.25
                H292.95z M331.063,673.32c12.047-0.587,19.657-10.888,22.827-30.902c1.563-9.873,1.275-17.664-0.861-23.376
                c-2.129-5.765-5.783-8.646-10.96-8.646h-1.04L331.063,673.32z" />
                <path fill="#FFFFFF" d="M489.932,641.777c-2.984,18.842-9.707,34.158-20.168,45.953c-10.398,11.742-22.457,17.612-36.172,17.612
                c-12.17,0-21.891-4.509-29.16-13.529c-9.133-11.42-11.89-28.553-8.271-51.396c3.466-21.882,11.826-38.613,25.082-50.196
                c9.848-8.592,20.587-12.889,32.223-12.889c14.25,0,24.67,5.818,31.26,17.452C491.314,606.421,493.051,622.084,489.932,641.777z
                 M455.229,642.018c3.541-22.361,1.362-33.544-6.535-33.544c-3.951,0-7.564,2.937-10.842,8.807
                c-3.157,5.444-5.573,13.449-7.247,24.017c-1.647,10.408-1.846,18.481-0.593,24.217c1.253,5.738,3.801,8.607,7.644,8.607
                c3.949,0,7.439-2.828,10.47-8.486C451.264,659.979,453.631,652.105,455.229,642.018z" />
            </g>
        </g>
    </g>
    <g id="gha-frame">
        <rect x="99.333" y="52.75" fill="none" stroke="#FFFFFF" stroke-width="18" stroke-miterlimit="10" width="413.334" height="678.5" />
    </g>
</svg>
