<svg class="svg-light" xmlns="http://www.w3.org/2000/svg" xmlns:xlink="http://www.w3.org/1999/xlink" version="1.1" x="0px" y="0px" viewBox="0 0 48 48" enable-background="new 0 0 48 48" xml:space="preserve">
	<defs><link href="../css/svg.css" type="text/css" rel="stylesheet" xmlns="http://www.w3.org/1999/xhtml"/></defs>
	<path fill="#000000" d="M32.9,0.5H5.8v47h36.4V9.8L32.9,0.5z M19.6,18.9c-0.2-0.4-0.7-0.7-1.3-1.1c-1.5-0.7-2.5-1.3-3.2-2.1  c-0.7-0.7-1-1.8-1-3.2c0-1.3,0.4-2.3,1.1-3.1C15.8,8.6,16.8,8.2,18,8V5.6h1.6V8c1.1,0.2,2,0.8,2.7,1.7c0.7,0.9,1,2.1,1,3.6h-3.2  c0-0.9-0.1-1.6-0.4-2c-0.3-0.5-0.6-0.7-1-0.7c-0.4,0-0.8,0.2-1,0.6c-0.2,0.4-0.3,0.9-0.3,1.5c0,0.6,0.1,1,0.4,1.4  c0.2,0.4,0.7,0.7,1.3,1.1c1.5,0.7,2.5,1.4,3.2,2.1c0.7,0.7,1,1.8,1,3.1c0,1.3-0.3,2.3-1,3.1c-0.7,0.8-1.6,1.3-2.8,1.4v2.3h-1.6v-2.3  c-1.2-0.2-2.2-0.7-3-1.5c-0.8-0.9-1.2-2.1-1.2-3.8h3.2c0,1,0.2,1.8,0.5,2.2c0.3,0.4,0.8,0.7,1.3,0.7c0.5,0,0.8-0.2,1.1-0.6  c0.2-0.4,0.4-0.9,0.4-1.5C20,19.8,19.9,19.3,19.6,18.9z M35.7,41.1H12.3c-0.6,0-1-0.5-1-1s0.5-1,1-1h23.5c0.6,0,1,0.5,1,1  S36.3,41.1,35.7,41.1z M35.7,33.7H12.3c-0.6,0-1-0.5-1-1s0.5-1,1-1h23.5c0.6,0,1,0.5,1,1S36.3,33.7,35.7,33.7z M30.8,11.9V2.6  l9.3,9.3H30.8z"></path>
</svg>