<svg xmlns="http://www.w3.org/2000/svg" xmlns:xlink="http://www.w3.org/1999/xlink" version="1.1" x="0px" y="0px" viewBox="0 0 100 100" enable-background="new 0 0 100 100" xml:space="preserve"><g><path fill="#000000" d="M81.1,21.9H21.2c-2.3,0-4.1,1.9-4.1,4.1v45.8c0,2.3,1.9,4.1,4.1,4.1h59.9c2.3,0,4.1-1.9,4.1-4.1V26   C85.3,23.8,83.4,21.9,81.1,21.9z M82.3,71.9c0,0.6-0.5,1.1-1.1,1.1H21.2c-0.6,0-1.1-0.5-1.1-1.1V36.1h62.2V71.9z M82.3,33.1H20v-7   c0-0.6,0.5-1.1,1.1-1.1h59.9c0.6,0,1.1,0.5,1.1,1.1V33.1z"></path><circle fill="#000000" cx="30.1" cy="29" r="2.1"></circle><circle fill="#000000" cx="24.2" cy="29" r="2.1"></circle><circle fill="#000000" cx="35.9" cy="29" r="2.1"></circle></g></svg>