<?xml version="1.0" encoding="utf-8"?>
<!-- Generator: Adobe Illustrator 15.1.0, SVG Export Plug-In . SVG Version: 6.00 Build 0)  -->
<!DOCTYPE svg PUBLIC "-//W3C//DTD SVG 1.1//EN" "http://www.w3.org/Graphics/SVG/1.1/DTD/svg11.dtd">
<svg version="1.1" xmlns="http://www.w3.org/2000/svg" xmlns:xlink="http://www.w3.org/1999/xlink" x="0px" y="0px" width="864px"
	 height="576px" viewBox="0 0 864 576" style="enable-background:new 0 0 864 576;" xml:space="preserve">
<style type="text/css">
<![CDATA[
	.st0{opacity:0;fill:#FFFFFF;}
	.st1{fill:#FFFFFF;stroke:#FFFFFF;stroke-width:4;stroke-miterlimit:10;}
	.st2{fill:#ED1C24;}
	.st3{display:inline;fill:#F7941E;}
	.st4{fill:#BCBEC0;}
	.st5{opacity:0;fill:none;}
	.st6{fill:#D1D3D4;stroke:#D1D3D4;stroke-width:4;stroke-miterlimit:10;}
	.st7{display:inline;opacity:0.4;fill:#EC008C;}
	.st8{display:inline;fill:#FFFFFF;}
	.st9{opacity:0;}
	.st10{fill:#FFFFFF;}
	.st11{display:inline;}
	.st12{display:none;}
	.st13{display:inline;opacity:0.7;fill:#00AEEF;}
]]>
</style>
<g id="venn_circles_compound" class="st12">
	<path class="st8" d="M1254.936,304.449c0,88.365-71.635,160-160,160s-160-71.635-160-160c0-88.366,71.635-160,160-160
		S1254.936,216.083,1254.936,304.449z M1347.936,144.449c-88.365,0-160,71.634-160,160c0,88.365,71.635,160,160,160
		s160-71.635,160-160C1507.936,216.083,1436.301,144.449,1347.936,144.449z"/>
</g>
<g id="placeholder" class="st12">
	<rect y="4" class="st8" width="864" height="572"/>
	<circle class="st13" cx="231" cy="276.775" r="160"/>
	<circle class="st7" cx="484" cy="276.775" r="160"/>
	<g class="st11">
		<path class="st1" d="M216.049,258.552v45.897h-6.93v-45.897c0-9.54,7.74-17.279,17.279-17.279s17.279,7.74,17.279,17.279v45.897
			h-6.93v-45.897c0-5.76-4.59-10.35-10.35-10.35S216.049,252.792,216.049,258.552z"/>
		<path class="st1" d="M303.348,259.542v-17.369h6.93v17.369c0,8.37-6.03,15.39-13.859,16.919v27.988h-6.93v-27.988
			c-7.83-1.62-13.77-8.55-13.77-16.919v-17.369h6.93v17.369c0,5.76,4.59,10.35,10.35,10.35S303.348,265.301,303.348,259.542z"/>
		<path class="st1" d="M341.418,258.552c0-9.54,7.74-17.279,17.279-17.279s17.279,7.74,17.279,17.279h-6.93
			c0-5.76-4.59-10.35-10.35-10.35s-10.35,4.59-10.35,10.35v29.519c0,5.76,4.59,10.35,10.35,10.35s10.35-4.59,10.35-10.35h6.93
			c0,9.539-7.74,17.279-17.279,17.279s-17.279-7.74-17.279-17.279V258.552z"/>
		<path class="st1" d="M428.256,304.449v-27.628h-22.409v27.628h-6.93v-62.277h6.93v27.719h22.409v-27.719h6.929v62.277H428.256z"/>
		<path class="st1" d="M478.196,241.272c9.539,0,17.279,7.74,17.279,17.279v45.897h-6.93v-27.628h-20.789v27.628h-6.93v-45.897
			C460.827,249.012,468.656,241.272,478.196,241.272z M488.546,258.552c0-5.76-4.59-10.35-10.35-10.35
			c-5.67,0-10.439,4.59-10.439,10.35v11.339h20.789V258.552z"/>
		<path class="st1" d="M527.146,258.552v45.897h-6.93v-45.897c0-9.54,7.739-17.279,17.279-17.279c9.539,0,17.279,7.74,17.279,17.279
			v45.897h-6.93v-45.897c0-5.76-4.59-10.35-10.35-10.35S527.146,252.792,527.146,258.552z"/>
		<path class="st1" d="M595.895,305.35c-9.539,0-17.279-7.74-17.279-17.279v-29.519c0-9.54,7.74-17.279,17.279-17.279
			c9.54,0,17.279,7.74,17.279,17.279h-6.93c0-5.76-4.59-10.35-10.35-10.35s-10.35,4.59-10.35,10.35v29.519
			c0,5.76,4.59,10.35,10.35,10.35s10.35-4.59,10.35-10.35v-11.25h-10.35v-6.93h17.279v18.179
			C613.174,297.609,605.435,305.35,595.895,305.35z"/>
	</g>
	<g class="st11">
		<path class="st6" d="M658.949,304.449h-6.93v-6.84h6.93V304.449z"/>
		<path class="st6" d="M667.589,258.552c0-9.54,7.739-17.279,17.279-17.279s17.279,7.74,17.279,17.279h-6.93
			c0-5.76-4.59-10.35-10.35-10.35s-10.35,4.59-10.35,10.35v29.519c0,5.76,4.59,10.35,10.35,10.35s10.35-4.59,10.35-10.35h6.93
			c0,9.539-7.739,17.279-17.279,17.279s-17.279-7.74-17.279-17.279V258.552z"/>
		<path class="st6" d="M720.789,288.07v-29.519c0-9.54,7.739-17.279,17.279-17.279c9.539,0,17.279,7.74,17.279,17.279v29.519
			c0,9.539-7.74,17.279-17.279,17.279C728.528,305.35,720.789,297.609,720.789,288.07z M727.719,258.552v29.519
			c0,5.76,4.59,10.35,10.35,10.35s10.35-4.59,10.35-10.35v-29.519c0-5.76-4.59-10.35-10.35-10.35S727.719,252.792,727.719,258.552z"
			/>
		<path class="st6" d="M811.338,258.552v45.897h-6.931v-45.897c0-5.76-4.68-10.35-10.349-10.35c-5.76,0-10.44,4.59-10.44,10.35
			v45.897h-6.93v-45.897c0-9.54,7.739-17.279,17.37-17.279c5.669,0,10.709,2.7,13.859,6.839c3.149-4.14,8.189-6.839,13.769-6.839
			c9.63,0,17.37,7.74,17.37,17.279v45.897h-6.93v-45.897c0-5.76-4.681-10.35-10.44-10.35
			C816.197,248.202,811.607,252.522,811.338,258.552z"/>
	</g>
	<g class="st11">
		<path class="st4" d="M336.151,518.298c-3.65,4.95-6.25,11.4-6.25,20.501c0,8.9,2.75,15.251,6.25,20.252h-3.4
			c-3.15-4.15-6.55-10.551-6.55-20.302c0.05-9.801,3.4-16.251,6.55-20.451H336.151z"/>
		<path class="st4" d="M351.591,521.798c2.8-1.149,6.75-1.899,10.301-2.399c0.2-0.851,0.45-1.601,0.65-2.301
			c1.35,0.2,2.55,0.65,3.25,1.4l-0.1,0.399l4.1-0.35c1.85-0.15,3.4,0,3.8,0.5c0.2,0.25,1.75,2.101,1.75,2.5
			c0,0.351-0.4,0.8-1.05,0.8c-2.3,0.051-5.601,0.25-9.351,0.65c-1.6,8.851-2.8,17.301-3.851,27.151c0.4-0.1,1.55-0.699,1.7-0.199
			c0.3,1.1-2.2,5.3-2.2,5.3c-0.45,1.4-3.9-0.5-4.25-1c0.95-8.551,2.75-21.701,4.6-30.702c-2.3,0.351-4.75,0.851-7.2,1.45
			C352.441,525.298,350.741,522.148,351.591,521.798z"/>
		<path class="st4" d="M380.042,535.749c-0.95,1.3-5.05,11.851-5.5,18.351c0,0-0.2,0.45-1.25,0.45c-1.8,0-3.6-2.05-3.6-3.1
			c0-5.45,2.25-33.902,4.15-36.053c0.75-0.8,3.95,0.2,3.95,1.601c0,2.9-0.85,4.9-1.4,7.601c-0.6,3.05-2.3,16.051-2.3,18.301
			l0.45,0.1c1.15-3.25,5.25-15.551,7.701-15.551c1.3,0,3.9,1.05,3.9,2.15c0,2.55-2.5,11.501-2.5,17.951c0,2,0.6,3.6,2.2,3.6
			c1.55,0,2.95-2.85,3.7-5.45c0,0,1.45-0.149,1.45,1.601c0,3.35-3.25,6.75-6.601,6.75c-3.9,0-5.2-4.95-5.2-8.3
			c0-3.251,1.05-8.551,1.45-9.901L380.042,535.749z"/>
		<path class="st4" d="M400.691,550.7c-0.8,1.75-2.85,3.649-5.3,3.649c-3.7,0-6.5-3.8-6.5-9.9c0-9.051,4.15-18.051,10.151-18.051
			c3.4,0,4.9,2.2,4.9,3.7c0,0.25-0.05,0.55-0.05,0.55c0.45,0.15,2.4,0.2,2.1,1.351c-1.55,5.6-2.8,10.801-2.8,14.751
			c0,2.3,0.4,3.85,2.101,3.85c2.6,0,3.3-3.25,3.65-6.25c0,0,1.45-0.15,1.45,1.35c0,2.65-2.05,8.301-5.851,8.301
			c-2.3,0-3.5-2.1-3.6-3.3H400.691z M394.891,550.95c2.95,0,5.65-11.951,5.65-13.751c0,0-1.6-0.3-2.3-1.101c1.05-1.45,1.7-3.2,1.7-5
			c0-0.45,0-1.65-0.95-1.65c-3.65,0-5.9,11.951-5.9,17.201C393.09,549.75,393.59,550.95,394.891,550.95z"/>
		<path class="st4" d="M407.091,529.349c0.55-0.45,2.85-1.05,5.35-1.55c0.9-3.4,1.8-5.951,2.35-6.351c0.85-0.601,3.45,1.3,3.3,1.85
			l-1,3.7c0.95-0.149,1.75-0.25,2.35-0.3c1.1-0.1,2.05-0.3,2.35,0.351c0.3,0.699,0.75,0.149,1.35,0.75
			c0.25,0.25,1.05,1.35,1.05,1.649c0,0.351-0.1,0.75-0.75,0.75c-2.05,0.051-4.85,0.4-7.4,0.801c-1.65,6.4-3.2,13.5-3.2,18.051
			c0,1.3,0.55,2.1,1.6,2.1c2.95,0,7-3.55,7.201-6.2c0,0,1.8-0.45,1.8,2.551c0,3.399-4.75,7.3-7.95,7.3c-3.4,0-6.25-3.55-6.25-8.7
			c0-3,1-9.001,2.25-14.351l-2.25,0.5C407.941,532.549,406.391,529.948,407.091,529.349z"/>
		<path class="st4" d="M436.04,529.049c0.15-0.551,0.55-0.65,0.9-0.65c-0.101,0,4.101,0.15,3.649,1.851
			c-1.5,5.5-3.8,15.2-3.75,19.101c0,1.851,0.701,2.75,1.5,2.75c3.101,0,4.001-5.45,4.15-7.45c0,0,1.851-0.5,1.851,1.5
			c0,3.15-1.8,8.9-7.351,8.9c-2.85,0-4.3-2.05-4.3-6C432.69,543.8,435.04,532.599,436.04,529.049z M436.891,521.448
			c0-1.4,0.65-5.601,3.15-5.601c1.25,0,2,0.3,1.649,1.9c0.75,0.399,1.5,0.95,1.5,2.3c0,1.601-1.05,4.551-4.2,4.551
			C438.19,524.599,436.891,523.698,436.891,521.448z"/>
		<path class="st4" d="M446.141,534.849c0,0,9.2,4.101,9.2,12.801c0,5.751-3.05,7.9-6.501,7.9c-4.199,0-8.25-4.7-8.25-8.65
			c0-1.85,1.2-5.8,3-5.8c0.7,0,2.25,1.399,2.25,1.85c0,1.601-2.15,5.551-2.15,6.001c0,0.449,0.65,2.899,3.551,2.899
			c3.15,0,4.65-2.3,4.65-5.7c0-5.101-4.7-8.801-8-9.2c-0.9-0.75-1.4-2.5-1.301-3.801c0.2-2.1,12.351-6.45,13.102-6.45
			c0.5,0,1.649,1.3,1.649,2.2c0,1.9-3.4,4.65-4.65,4.65c-0.5,0-0.649-1.35-1.149-1.35c-1.301,0.05-5.102,2.05-5.451,2.449
			L446.141,534.849z"/>
		<path class="st4" d="M478.29,550.7c-0.8,1.75-2.851,3.649-5.3,3.649c-3.7,0-6.501-3.8-6.501-9.9c0-9.051,4.15-18.051,10.15-18.051
			c3.4,0,4.9,2.2,4.9,3.7c0,0.25-0.05,0.55-0.05,0.55c0.45,0.15,2.4,0.2,2.101,1.351c-1.551,5.6-2.801,10.801-2.801,14.751
			c0,2.3,0.4,3.85,2.101,3.85c2.6,0,3.3-3.25,3.65-6.25c0,0,1.449-0.15,1.449,1.35c0,2.65-2.05,8.301-5.85,8.301
			c-2.301,0-3.5-2.1-3.601-3.3H478.29z M472.49,550.95c2.949,0,5.649-11.951,5.649-13.751c0,0-1.6-0.3-2.3-1.101
			c1.05-1.45,1.7-3.2,1.7-5c0-0.45,0-1.65-0.95-1.65c-3.65,0-5.9,11.951-5.9,17.201C470.689,549.75,471.189,550.95,472.49,550.95z"
			/>
		<path class="st4" d="M486.188,548.5c0.45-7.751,2.75-23.901,4.5-32.452c0.101-0.4,0.5-0.45,0.75-0.45c1.2,0,3.351,1.351,3.2,2.25
			c-1.8,10.551-3.6,21.951-4.25,32.853c-0.1,1.35-0.2,2.7-0.25,4.05c-0.55,0.851-3.75-0.9-4-1.75
			C485.838,552.3,486.088,550.1,486.188,548.5z"/>
		<path class="st4" d="M493.938,548.5c0.45-7.751,2.75-23.901,4.5-32.452c0.101-0.4,0.5-0.45,0.75-0.45c1.2,0,3.351,1.351,3.2,2.25
			c-1.8,10.551-3.6,21.951-4.25,32.853c-0.1,1.35-0.2,2.7-0.25,4.05c-0.55,0.851-3.75-0.9-4-1.75
			C493.588,552.3,493.838,550.1,493.938,548.5z"/>
		<path class="st4" d="M503.089,550.399c0-1.8,1.25-3.149,3-3.149s2.95,1.3,2.95,3.149c0,1.801-1.2,3.15-3.051,3.15
			C504.288,553.55,503.089,552.2,503.089,550.399z"/>
		<path class="st4" d="M511.838,559.051c3.5-4.951,6.25-11.401,6.25-20.401c0-9.001-2.7-15.352-6.25-20.352h3.4
			c3.15,4.101,6.55,10.551,6.55,20.352c-0.05,9.801-3.399,16.201-6.55,20.401H511.838z"/>
	</g>
</g>
<g id="live_color" class="st12">
	<rect x="44" y="4" class="st8" width="820" height="537"/>
	<circle class="st13" cx="231" cy="276.775" r="160"/>
	<circle class="st7" cx="484" cy="276.775" r="160"/>
	<g class="st11">
		<path class="st1" d="M216.049,258.552v45.897h-6.93v-45.897c0-9.54,7.74-17.279,17.279-17.279s17.279,7.74,17.279,17.279v45.897
			h-6.93v-45.897c0-5.76-4.59-10.35-10.35-10.35S216.049,252.792,216.049,258.552z"/>
		<path class="st1" d="M303.348,259.542v-17.369h6.93v17.369c0,8.37-6.03,15.39-13.859,16.919v27.988h-6.93v-27.988
			c-7.83-1.62-13.77-8.55-13.77-16.919v-17.369h6.93v17.369c0,5.76,4.59,10.35,10.35,10.35S303.348,265.301,303.348,259.542z"/>
		<path class="st1" d="M341.418,258.552c0-9.54,7.74-17.279,17.279-17.279s17.279,7.74,17.279,17.279h-6.93
			c0-5.76-4.59-10.35-10.35-10.35s-10.35,4.59-10.35,10.35v29.519c0,5.76,4.59,10.35,10.35,10.35s10.35-4.59,10.35-10.35h6.93
			c0,9.539-7.74,17.279-17.279,17.279s-17.279-7.74-17.279-17.279V258.552z"/>
		<path class="st1" d="M428.256,304.449v-27.628h-22.409v27.628h-6.93v-62.277h6.93v27.719h22.409v-27.719h6.929v62.277H428.256z"/>
		<path class="st1" d="M478.196,241.272c9.539,0,17.279,7.74,17.279,17.279v45.897h-6.93v-27.628h-20.789v27.628h-6.93v-45.897
			C460.827,249.012,468.656,241.272,478.196,241.272z M488.546,258.552c0-5.76-4.59-10.35-10.35-10.35
			c-5.67,0-10.439,4.59-10.439,10.35v11.339h20.789V258.552z"/>
		<path class="st1" d="M527.146,258.552v45.897h-6.93v-45.897c0-9.54,7.739-17.279,17.279-17.279c9.539,0,17.279,7.74,17.279,17.279
			v45.897h-6.93v-45.897c0-5.76-4.59-10.35-10.35-10.35S527.146,252.792,527.146,258.552z"/>
		<path class="st1" d="M595.895,305.35c-9.539,0-17.279-7.74-17.279-17.279v-29.519c0-9.54,7.74-17.279,17.279-17.279
			c9.54,0,17.279,7.74,17.279,17.279h-6.93c0-5.76-4.59-10.35-10.35-10.35s-10.35,4.59-10.35,10.35v29.519
			c0,5.76,4.59,10.35,10.35,10.35s10.35-4.59,10.35-10.35v-11.25h-10.35v-6.93h17.279v18.179
			C613.174,297.609,605.435,305.35,595.895,305.35z"/>
	</g>
	<g class="st11">
		<path class="st6" d="M658.949,304.449h-6.93v-6.84h6.93V304.449z"/>
		<path class="st6" d="M667.589,258.552c0-9.54,7.739-17.279,17.279-17.279s17.279,7.74,17.279,17.279h-6.93
			c0-5.76-4.59-10.35-10.35-10.35s-10.35,4.59-10.35,10.35v29.519c0,5.76,4.59,10.35,10.35,10.35s10.35-4.59,10.35-10.35h6.93
			c0,9.539-7.739,17.279-17.279,17.279s-17.279-7.74-17.279-17.279V258.552z"/>
		<path class="st6" d="M720.789,288.07v-29.519c0-9.54,7.739-17.279,17.279-17.279c9.539,0,17.279,7.74,17.279,17.279v29.519
			c0,9.539-7.74,17.279-17.279,17.279C728.528,305.35,720.789,297.609,720.789,288.07z M727.719,258.552v29.519
			c0,5.76,4.59,10.35,10.35,10.35s10.35-4.59,10.35-10.35v-29.519c0-5.76-4.59-10.35-10.35-10.35S727.719,252.792,727.719,258.552z"
			/>
		<path class="st6" d="M811.338,258.552v45.897h-6.931v-45.897c0-5.76-4.68-10.35-10.349-10.35c-5.76,0-10.44,4.59-10.44,10.35
			v45.897h-6.93v-45.897c0-9.54,7.739-17.279,17.37-17.279c5.669,0,10.709,2.7,13.859,6.839c3.149-4.14,8.189-6.839,13.769-6.839
			c9.63,0,17.37,7.74,17.37,17.279v45.897h-6.93v-45.897c0-5.76-4.681-10.35-10.44-10.35
			C816.197,248.202,811.607,252.522,811.338,258.552z"/>
	</g>
</g>
<g id="live_mono" class="st12">
	<rect x="44" y="4" class="st3" width="820" height="537"/>
	<g class="st11">
		<path class="st1" d="M339.22,258.552c0-9.54,7.74-17.279,17.279-17.279s17.279,7.74,17.279,17.279h-6.93
			c0-5.76-4.59-10.35-10.35-10.35s-10.35,4.59-10.35,10.35v29.519c0,5.76,4.59,10.35,10.35,10.35s10.35-4.59,10.35-10.35h6.93
			c0,9.539-7.74,17.279-17.279,17.279s-17.279-7.74-17.279-17.279V258.552z"/>
	</g>
	<g class="st11">
		<path class="st1" d="M658.949,304.449h-6.93v-6.84h6.93V304.449z"/>
		<path class="st1" d="M667.589,258.552c0-9.54,7.739-17.279,17.279-17.279s17.279,7.74,17.279,17.279h-6.93
			c0-5.76-4.59-10.35-10.35-10.35s-10.35,4.59-10.35,10.35v29.519c0,5.76,4.59,10.35,10.35,10.35s10.35-4.59,10.35-10.35h6.93
			c0,9.539-7.739,17.279-17.279,17.279s-17.279-7.74-17.279-17.279V258.552z"/>
		<path class="st1" d="M720.789,288.07v-29.519c0-9.54,7.739-17.279,17.279-17.279c9.539,0,17.279,7.74,17.279,17.279v29.519
			c0,9.539-7.74,17.279-17.279,17.279C728.528,305.35,720.789,297.609,720.789,288.07z M727.719,258.552v29.519
			c0,5.76,4.59,10.35,10.35,10.35s10.35-4.59,10.35-10.35v-29.519c0-5.76-4.59-10.35-10.35-10.35S727.719,252.792,727.719,258.552z"
			/>
		<path class="st1" d="M811.338,258.552v45.897h-6.931v-45.897c0-5.76-4.68-10.35-10.349-10.35c-5.76,0-10.44,4.59-10.44,10.35
			v45.897h-6.93v-45.897c0-9.54,7.739-17.279,17.37-17.279c5.669,0,10.709,2.7,13.859,6.839c3.149-4.14,8.189-6.839,13.769-6.839
			c9.63,0,17.37,7.74,17.37,17.279v45.897h-6.93v-45.897c0-5.76-4.681-10.35-10.44-10.35
			C816.197,248.202,811.607,252.522,811.338,258.552z"/>
	</g>
	<g class="st11">
		<path class="st10" d="M391,275.5c0,88.365-71.635,160-160,160s-160-71.635-160-160c0-88.366,71.635-160,160-160
			S391,187.134,391,275.5z M484,115.5c-88.365,0-160,71.634-160,160c0,88.365,71.635,160,160,160s160-71.635,160-160
			C644,187.134,572.365,115.5,484,115.5z"/>
		<g class="st9">
			<path class="st1" d="M216.049,258.298v45.897h-6.93v-45.897c0-9.54,7.74-17.279,17.279-17.279s17.279,7.74,17.279,17.279v45.897
				h-6.93v-45.897c0-5.76-4.59-10.35-10.35-10.35S216.049,252.538,216.049,258.298z"/>
			<path class="st1" d="M303.348,259.288v-17.369h6.93v17.369c0,8.37-6.03,15.39-13.859,16.919v27.988h-6.93v-27.988
				c-7.83-1.62-13.77-8.55-13.77-16.919v-17.369h6.93v17.369c0,5.76,4.59,10.35,10.35,10.35S303.348,265.047,303.348,259.288z"/>
			<path class="st1" d="M341.418,258.298c0-9.54,7.74-17.279,17.279-17.279s17.279,7.74,17.279,17.279h-6.93
				c0-5.76-4.59-10.35-10.35-10.35s-10.35,4.59-10.35,10.35v29.519c0,5.76,4.59,10.35,10.35,10.35s10.35-4.59,10.35-10.35h6.93
				c0,9.539-7.74,17.279-17.279,17.279s-17.279-7.74-17.279-17.279V258.298z"/>
			<path class="st1" d="M428.256,304.195v-27.628h-22.409v27.628h-6.93v-62.277h6.93v27.719h22.409v-27.719h6.929v62.277H428.256z"
				/>
			<path class="st1" d="M478.196,241.019c9.539,0,17.279,7.74,17.279,17.279v45.897h-6.93v-27.628h-20.789v27.628h-6.93v-45.897
				C460.827,248.758,468.656,241.019,478.196,241.019z M488.546,258.298c0-5.76-4.59-10.35-10.35-10.35
				c-5.67,0-10.439,4.59-10.439,10.35v11.339h20.789V258.298z"/>
			<path class="st1" d="M527.146,258.298v45.897h-6.93v-45.897c0-9.54,7.739-17.279,17.279-17.279
				c9.539,0,17.279,7.74,17.279,17.279v45.897h-6.93v-45.897c0-5.76-4.59-10.35-10.35-10.35S527.146,252.538,527.146,258.298z"/>
			<path class="st1" d="M595.895,305.096c-9.539,0-17.279-7.74-17.279-17.279v-29.519c0-9.54,7.74-17.279,17.279-17.279
				c9.54,0,17.279,7.74,17.279,17.279h-6.93c0-5.76-4.59-10.35-10.35-10.35s-10.35,4.59-10.35,10.35v29.519
				c0,5.76,4.59,10.35,10.35,10.35s10.35-4.59,10.35-10.35v-11.25h-10.35v-6.93h17.279v18.179
				C613.174,297.355,605.435,305.096,595.895,305.096z"/>
		</g>
	</g>
</g>
<g id="live_mono_transparency" class="st12">
	<g class="st11">
		<path class="st10" d="M667.589,288.07c0,9.539,7.739,17.279,17.279,17.279s17.279-7.74,17.279-17.279h-6.93
			c0,5.76-4.59,10.35-10.35,10.35s-10.35-4.59-10.35-10.35v-29.519c0-5.76,4.59-10.35,10.35-10.35s10.35,4.59,10.35,10.35h6.93
			c0-9.54-7.739-17.279-17.279-17.279s-17.279,7.74-17.279,17.279V288.07z M658.949,297.609h-6.93v6.84h6.93V297.609z"/>
		<path class="st10" d="M667.589,288.07h-2.001c0.002,10.646,8.635,19.277,19.28,19.279c10.646-0.002,19.277-8.634,19.279-19.279v-2
			h-10.931v2c-0.01,4.669-3.68,8.339-8.349,8.35c-4.669-0.011-8.339-3.681-8.35-8.35l-0.001-29.519
			c0.012-4.669,3.682-8.339,8.351-8.35c4.669,0.01,8.339,3.68,8.349,8.35v2h10.931v-2c-0.002-10.646-8.634-19.278-19.279-19.28
			c-10.646,0.002-19.278,8.634-19.28,19.28l0.001,29.519H667.589h1.999v-29.519c0.016-8.434,6.847-15.264,15.28-15.279
			c8.433,0.015,15.264,6.846,15.278,15.279h2.001v-2h-6.93v2h2c-0.013-6.851-5.499-12.337-12.35-12.35
			c-6.851,0.013-12.337,5.5-12.351,12.35l0.001,29.519c0.013,6.85,5.499,12.337,12.35,12.35c6.851-0.013,12.337-5.5,12.35-12.35h-2
			v2h6.93v-2h-2.001c-0.015,8.434-6.846,15.264-15.278,15.279c-8.434-0.016-15.265-6.846-15.279-15.279H667.589z M658.949,297.609
			v-2h-8.93v10.84h10.93v-10.84h-2V297.609h-2v4.84h-2.931v-2.84h4.931V297.609h-2H658.949z"/>
		<path class="st10" d="M738.068,248.202c5.76,0,10.35,4.59,10.35,10.35v29.519c0,5.76-4.59,10.35-10.35,10.35
			s-10.35-4.59-10.35-10.35v-29.519C727.719,252.792,732.309,248.202,738.068,248.202z M738.068,305.35
			c9.539,0,17.279-7.74,17.279-17.279v-29.519c0-9.54-7.74-17.279-17.279-17.279c-9.54,0-17.279,7.74-17.279,17.279v29.519
			C720.789,297.609,728.528,305.35,738.068,305.35z"/>
		<path class="st10" d="M738.068,248.202v2c4.668,0.01,8.338,3.68,8.349,8.35l0.001,29.519c-0.012,4.669-3.682,8.339-8.35,8.35
			c-4.67-0.011-8.34-3.681-8.35-8.35l-0.001-29.519c0.011-4.669,3.681-8.339,8.351-8.35V248.202v-2
			c-6.852,0.013-12.338,5.5-12.351,12.35l0.001,29.519c0.012,6.85,5.498,12.337,12.35,12.35c6.85-0.013,12.336-5.5,12.35-12.35
			l-0.001-29.519c-0.013-6.851-5.499-12.337-12.349-12.35V248.202z M738.068,305.35v2c10.645-0.002,19.277-8.634,19.279-19.279
			l-0.001-29.519c-0.001-10.646-8.634-19.278-19.278-19.28c-10.646,0.002-19.278,8.634-19.28,19.28l0.001,29.519
			c0.001,10.646,8.633,19.277,19.279,19.279V305.35v-2c-8.434-0.016-15.265-6.846-15.279-15.279l-0.001-29.519
			c0.016-8.434,6.847-15.264,15.28-15.279c8.433,0.015,15.264,6.846,15.278,15.279l0.001,29.519
			c-0.016,8.434-6.847,15.264-15.279,15.279V305.35z"/>
		<path class="st10" d="M821.687,248.202c5.76,0,10.44,4.59,10.44,10.35v45.897h6.93v-45.897c0-9.54-7.74-17.279-17.37-17.279
			c-5.579,0-10.619,2.7-13.769,6.839c-3.15-4.14-8.19-6.839-13.859-6.839c-9.631,0-17.37,7.74-17.37,17.279v45.897h6.93v-45.897
			c0-5.76,4.681-10.35,10.44-10.35c5.669,0,10.349,4.59,10.349,10.35v45.897h6.931v-45.897
			C811.607,252.522,816.197,248.202,821.687,248.202z"/>
		<path class="st10" d="M821.687,248.202v2c4.679,0.006,8.438,3.707,8.439,8.35v47.897h10.931v-47.897
			c-0.02-10.648-8.645-19.26-19.37-19.279c-6.233,0.003-11.845,3.009-15.36,7.628l1.592,1.211l1.591-1.211
			c-3.515-4.621-9.138-7.627-15.45-7.628c-10.727,0.02-19.352,8.632-19.371,19.28v47.897h10.931v-47.897
			c0.001-4.643,3.761-8.343,8.44-8.35c4.57,0,8.34,3.703,8.348,8.35v47.897h10.932v-47.897h-2l1.997,0.089
			c0.253-5.036,3.943-8.42,8.352-8.439V248.202v-2c-6.571-0.019-12.061,5.237-12.347,12.26l-0.003,0.054v43.933h-2.93v-43.897
			c-0.003-6.874-5.582-12.337-12.349-12.35c-6.842,0.013-12.428,5.473-12.441,12.35v43.897h-2.93l0.001-43.897
			c0.001-8.432,6.835-15.277,15.37-15.28c5.025,0,9.482,2.393,12.268,6.051l1.59,2.091l1.593-2.091
			c2.784-3.66,7.251-6.054,12.178-6.05c8.534,0.002,15.368,6.847,15.369,15.279v43.897h-2.929v-43.897
			c-0.014-6.877-5.6-12.337-12.44-12.35V248.202z"/>
		<path class="st2" d="M477.196,250.202c-4.582,0.008-8.432,3.729-8.439,8.35l-0.001,9.339h16.789v-9.339
			C485.535,253.882,481.865,250.212,477.196,250.202 M291.998,267.891c4.669-0.01,8.339-3.68,8.349-8.349v-19.369h10.93v19.369
			c-0.011,8.767-5.897,16.181-13.86,18.49v28.418h-10.929v-28.432c-7.94-2.367-13.766-9.713-13.77-18.476v-19.369h10.93v19.369
			C283.659,264.21,287.329,267.88,291.998,267.891L291.998,267.891 M206.119,306.449v-47.897c0.002-10.646,8.634-19.278,19.28-19.28
			c10.646,0.002,19.277,8.634,19.279,19.28v47.897h-10.93v-47.897c-0.01-4.669-3.68-8.339-8.349-8.35l0,0
			c-4.669,0.01-8.339,3.68-8.35,8.35v47.897H206.119 M231,115.5c-88.365,0-160,71.634-160,160c0,88.365,71.635,160,160,160
			c51.453,0,97.231-24.284,126.5-62.02c-20.998-27.072-33.5-61.068-33.5-97.98c0-36.913,12.502-70.909,33.5-97.98
			C328.231,139.784,282.453,115.5,231,115.5 M406.847,267.891h18.41v-27.718h10.929v64.277v2h-10.93V278.82h-18.409v27.629h-10.93
			v-66.277h10.93V267.891 M457.826,258.552c0.008-10.662,8.729-19.275,19.37-19.279c10.645,0.001,19.277,8.633,19.279,19.279v47.897
			h-10.931V278.82h-16.788v27.629h-10.931V258.552h2.001l0,0H457.826 M517.216,306.449v-47.897
			c0.002-10.646,8.634-19.278,19.28-19.279c10.645,0.001,19.277,8.633,19.279,19.279v47.897h-10.931v-47.897
			c-0.01-4.669-3.68-8.339-8.349-8.35l0,0c-4.67,0.01-8.34,3.68-8.35,8.35v47.897H517.216 M594.895,307.35
			c-10.646-0.002-19.278-8.634-19.279-19.279l-0.001-29.519c0.002-10.646,8.635-19.278,19.28-19.28
			c10.646,0.002,19.277,8.634,19.279,19.28v2h-10.931v-2c-0.01-4.669-3.68-8.339-8.349-8.35c-4.67,0.01-8.34,3.68-8.351,8.35
			l0.001,29.519c0.01,4.669,3.68,8.339,8.35,8.35c4.669-0.011,8.339-3.681,8.349-8.35v-9.25h-10.349v-10.93h21.279v20.18h-2h2
			C614.172,298.716,605.54,307.348,594.895,307.35 M484,115.5c-51.453,0-97.231,24.284-126.5,62.02
			c20.998,27.071,33.5,61.068,33.5,97.98c0,36.912-12.502,70.908-33.5,97.98c29.269,37.735,75.047,62.02,126.5,62.02
			c88.365,0,160-71.635,160-160C644,187.134,572.365,115.5,484,115.5"/>
		<path class="st0" d="M307.276,244.172h-2.929v15.37c-0.013,6.85-5.5,12.337-12.35,12.35l0,0c-6.851-0.013-12.337-5.5-12.35-12.35
			l0-15.37h-2.929v15.37c-0.005,7.399,5.256,13.528,12.174,14.96l1.595,0.329v27.618h2.93v-27.635l1.616-0.316
			c6.89-1.339,12.254-7.568,12.243-14.957L307.276,244.172 M225.399,243.272c-8.434,0.015-15.264,6.846-15.279,15.279v43.897h2.929
			v-43.897c0.013-6.851,5.5-12.337,12.35-12.35l0,0c6.85,0.013,12.337,5.5,12.35,12.35l0,43.897h2.93v-43.897
			C240.663,250.118,233.832,243.288,225.399,243.272 M357.697,243.272c-8.434,0.015-15.264,6.846-15.28,15.279v29.519h-2h2
			c0.015,8.433,6.846,15.264,15.279,15.279c7.755-0.015,14.155-5.792,15.146-13.28h-2.958c-0.956,5.889-6.019,10.339-12.188,10.351
			c-6.851-0.013-12.337-5.499-12.35-12.35l0-29.519c0.013-6.851,5.5-12.337,12.35-12.35c6.168,0.011,11.231,4.462,12.188,10.35
			h2.958C371.853,249.064,365.453,243.286,357.697,243.272"/>
		<path class="st0" d="M291.998,271.891c6.85-0.013,12.337-5.5,12.35-12.35v-15.37h2.929l0,15.37
			c0.011,7.389-5.353,13.617-12.243,14.957l-1.616,0.316v27.635h-2.93v-27.618l-1.595-0.329c-6.918-1.433-12.179-7.561-12.174-14.96
			v-15.37h2.929l0,15.37C279.661,266.392,285.147,271.878,291.998,271.891L291.998,271.891 M311.277,240.172h-10.93v19.369
			c-0.01,4.669-3.68,8.339-8.349,8.349l0,0c-4.669-0.01-8.339-3.68-8.35-8.349v-19.369h-10.93v19.369
			c0.004,8.763,5.83,16.109,13.77,18.476v28.432h10.929v-28.418c7.963-2.309,13.849-9.723,13.86-18.49V240.172 M210.12,302.449
			v-43.897c0.015-8.434,6.846-15.264,15.279-15.279c8.433,0.015,15.264,6.846,15.279,15.279v43.897h-2.93l0-43.897
			c-0.013-6.851-5.5-12.337-12.35-12.35l0,0c-6.851,0.013-12.337,5.5-12.35,12.35v43.897H210.12 M225.399,239.272
			c-10.646,0.002-19.278,8.634-19.28,19.28v47.897h10.93v-47.897c0.01-4.669,3.68-8.339,8.35-8.35l0,0
			c4.669,0.01,8.339,3.68,8.349,8.35v47.897h10.93v-47.897C244.676,247.906,236.044,239.274,225.399,239.272 M357.697,239.272
			c-10.646,0.002-19.278,8.634-19.28,19.28l0,29.519h2h2v-29.519c0.016-8.434,6.846-15.264,15.28-15.279
			c7.755,0.014,14.155,5.792,15.146,13.279h-2.958c-0.956-5.888-6.019-10.339-12.188-10.35c-6.851,0.013-12.337,5.5-12.35,12.35
			l0,29.519c0.012,6.851,5.499,12.337,12.35,12.35c6.168-0.012,11.232-4.462,12.188-10.351h2.958
			c-0.991,7.488-7.391,13.266-15.146,13.28c-8.434-0.016-15.264-6.847-15.279-15.279h-2h-2c0.002,10.646,8.634,19.277,19.28,19.279
			c10.646-0.002,19.277-8.634,19.279-19.279v-2h-10.93v2c-0.01,4.669-3.68,8.339-8.349,8.35c-4.669-0.011-8.339-3.681-8.35-8.35
			l0-29.519c0.011-4.669,3.681-8.339,8.35-8.35c4.669,0.01,8.339,3.68,8.349,8.35v2h10.93v-2
			C376.975,247.906,368.343,239.274,357.697,239.272"/>
		<polyline class="st0" points="432.186,244.172 429.256,244.172 429.256,271.891 402.847,271.891 402.847,244.172 399.917,244.172 
			399.917,302.449 402.847,302.449 402.847,274.82 429.256,274.82 429.256,302.45 432.186,302.45 432.186,244.172 		"/>
		<path class="st0" d="M402.847,271.891h26.409v-27.719h2.93v58.278h-2.929v-27.63h-26.41v27.629h-2.93v-58.277h2.93
			L402.847,271.891 M436.186,240.172h-10.929v27.718h-18.41v-27.718h-10.93v66.277h10.93V278.82h18.409v27.629h10.93v-2V240.172"/>
		<path class="st0" d="M464.756,271.891v-13.339c0.014-6.9,5.682-12.346,12.44-12.35c6.85,0.013,12.337,5.5,12.35,12.35v11.339v2
			H464.756 M477.196,243.272c-8.44,0.015-15.354,6.861-15.369,15.279l0,0l-0.001,43.897h2.93v-27.628h24.79v27.628h2.929v-43.897
			C492.46,250.118,485.629,243.288,477.196,243.272"/>
		<path class="st0" d="M461.827,258.552L461.827,258.552 M487.546,269.891L487.546,269.891v-2V269.891h2H487.546 M468.756,267.891
			l0.001-9.339c0.008-4.62,3.857-8.341,8.439-8.35c4.669,0.01,8.339,3.68,8.349,8.35v9.339H468.756 M477.196,246.202
			c-6.759,0.004-12.427,5.45-12.44,12.35v13.339h24.79v-2v-11.339C489.533,251.701,484.046,246.214,477.196,246.202
			 M477.196,239.272c-10.641,0.004-19.362,8.618-19.37,19.279h2.001h2c0.015-8.418,6.929-15.264,15.369-15.279
			c8.433,0.015,15.264,6.846,15.278,15.279v43.897h-2.929v-27.628h-24.79v27.628h-2.93l0.001-43.897h-2h-2.001v47.897h10.931V278.82
			h16.788v27.629h10.931v-47.897C496.474,247.906,487.841,239.274,477.196,239.272"/>
		<path class="st0" d="M536.496,243.272c-8.435,0.015-15.265,6.846-15.279,15.279v43.897h2.929v-43.897
			c0.013-6.851,5.5-12.337,12.351-12.35l0,0c6.85,0.013,12.337,5.5,12.35,12.35l-0.001,43.897h2.93v-43.897
			C551.76,250.118,544.929,243.288,536.496,243.272"/>
		<path class="st0" d="M521.217,302.449v-43.897c0.015-8.434,6.845-15.264,15.279-15.279c8.433,0.015,15.264,6.846,15.278,15.279
			v43.897h-2.93l0.001-43.897c-0.013-6.851-5.5-12.337-12.35-12.35l0,0c-6.851,0.013-12.338,5.5-12.351,12.35v43.897H521.217
			 M536.496,239.272c-10.646,0.001-19.278,8.633-19.28,19.279v47.897h10.931v-47.897c0.01-4.669,3.68-8.339,8.35-8.35l0,0
			c4.669,0.01,8.339,3.68,8.349,8.35v47.897h10.931v-47.897C555.773,247.906,547.141,239.274,536.496,239.272"/>
		<path class="st0" d="M594.895,243.272c-8.434,0.016-15.265,6.846-15.28,15.28l0.001,29.519
			c0.015,8.433,6.846,15.264,15.279,15.279c8.434-0.016,15.264-6.847,15.278-15.279h2.001h-2.001v-16.179h-13.279v2.929h10.351
			v13.25c-0.013,6.851-5.5,12.337-12.35,12.35c-6.851-0.013-12.338-5.499-12.35-12.35l-0.001-29.519
			c0.013-6.851,5.5-12.337,12.351-12.35c6.168,0.011,11.231,4.462,12.188,10.35h2.958
			C609.05,249.064,602.65,243.286,594.895,243.272"/>
		<path class="st0" d="M594.895,239.272c-10.646,0.002-19.278,8.634-19.28,19.28l0.001,29.519
			c0.001,10.646,8.634,19.277,19.279,19.279c10.646-0.002,19.277-8.634,19.279-19.279h-2h-2.001
			c-0.015,8.433-6.845,15.264-15.278,15.279c-8.434-0.016-15.265-6.847-15.279-15.279l-0.001-29.519
			c0.016-8.434,6.847-15.264,15.28-15.28c7.756,0.014,14.155,5.792,15.146,13.28h-2.958c-0.956-5.888-6.02-10.339-12.188-10.35
			c-6.851,0.013-12.338,5.5-12.351,12.35l0.001,29.519c0.012,6.851,5.499,12.337,12.35,12.35c6.85-0.013,12.337-5.499,12.35-12.35
			v-13.25h-10.351v-2.929h13.279v16.179h2.001h2v-20.18h-21.279v10.93h10.349v9.25c-0.01,4.669-3.68,8.339-8.349,8.35
			c-4.67-0.011-8.34-3.681-8.35-8.35l-0.001-29.519c0.011-4.669,3.681-8.339,8.351-8.35c4.669,0.01,8.339,3.68,8.349,8.35v2h10.931
			v-2C614.172,247.906,605.54,239.274,594.895,239.272"/>
	</g>
</g>
<g id="venn_cutout">
	<path d="M532.196,219.202c-4.582,0.008-8.432,3.729-8.439,8.35l-0.001,9.339h16.789v-9.339
		C540.535,222.882,536.865,219.212,532.196,219.202 M346.998,236.891c4.669-0.01,8.339-3.68,8.349-8.349v-19.369h10.93v19.369
		c-0.011,8.767-5.897,16.181-13.86,18.49v28.418h-10.929v-28.432c-7.94-2.367-13.766-9.713-13.77-18.476v-19.369h10.93v19.369
		C338.659,233.21,342.329,236.88,346.998,236.891L346.998,236.891 M261.119,275.449v-47.897c0.002-10.646,8.634-19.278,19.28-19.28
		c10.646,0.002,19.277,8.634,19.279,19.28v47.897h-10.93v-47.897c-0.01-4.669-3.68-8.339-8.349-8.35l0,0
		c-4.669,0.01-8.339,3.68-8.35,8.35v47.897H261.119 M286,84.5c-88.365,0-160,71.634-160,160c0,88.365,71.635,160,160,160
		c51.453,0,97.231-24.284,126.5-62.02c-20.998-27.072-33.5-61.068-33.5-97.98c0-36.913,12.502-70.909,33.5-97.98
		C383.231,108.784,337.453,84.5,286,84.5 M461.847,236.891h18.409v-27.718h10.93v64.277v2h-10.93V247.82h-18.408v27.629h-10.931
		v-66.277h10.93V236.891 M512.826,227.552c0.008-10.662,8.729-19.275,19.37-19.279c10.645,0.001,19.277,8.633,19.279,19.279v47.897
		h-10.931V247.82h-16.788v27.629h-10.931V227.552h2.001l0,0H512.826 M572.216,275.449v-47.897
		c0.002-10.646,8.634-19.278,19.28-19.279c10.645,0.001,19.277,8.633,19.279,19.279v47.897h-10.931v-47.897
		c-0.01-4.669-3.68-8.339-8.349-8.35l0,0c-4.67,0.01-8.34,3.68-8.35,8.35v47.897H572.216 M649.895,276.35
		c-10.646-0.002-19.278-8.634-19.279-19.279l-0.001-29.519c0.002-10.646,8.635-19.278,19.28-19.28
		c10.646,0.002,19.277,8.634,19.279,19.28v2h-10.931v-2c-0.01-4.669-3.68-8.339-8.349-8.35c-4.67,0.01-8.34,3.68-8.351,8.35
		l0.001,29.519c0.01,4.669,3.68,8.339,8.35,8.35c4.669-0.011,8.339-3.681,8.349-8.35v-9.25h-10.349v-10.93h21.279v20.18h-2h2
		C669.172,267.716,660.54,276.348,649.895,276.35 M539,84.5c-51.453,0-97.23,24.284-126.5,62.02
		c20.998,27.071,33.5,61.068,33.5,97.98c0,36.912-12.502,70.908-33.5,97.98c29.27,37.735,75.047,62.02,126.5,62.02
		c88.365,0,160-71.635,160-160C699,156.134,627.365,84.5,539,84.5"/>
	<path class="st5" d="M412.697,208.272c-10.646,0.002-19.277,8.634-19.279,19.28v29.519l0,0
		c0.002,10.646,8.633,19.277,19.279,19.279c10.646-0.002,19.277-8.634,19.279-19.279v-2h-10.93v2
		c-0.011,4.669-3.681,8.339-8.35,8.35c-4.67-0.011-8.34-3.681-8.35-8.35v-29.519c0.01-4.669,3.68-8.339,8.35-8.35
		c4.669,0.01,8.339,3.68,8.35,8.35v2h10.93v-2C431.975,216.906,423.343,208.274,412.697,208.272"/>
</g>
</svg>
