<?xml version="1.0" encoding="utf-8"?>
<!-- Generator: Adobe Illustrator 15.1.0, SVG Export Plug-In . SVG Version: 6.00 Build 0)  -->
<!DOCTYPE svg PUBLIC "-//W3C//DTD SVG 1.1//EN" "http://www.w3.org/Graphics/SVG/1.1/DTD/svg11.dtd">
<svg version="1.1" xmlns="http://www.w3.org/2000/svg" xmlns:xlink="http://www.w3.org/1999/xlink" x="0px" y="0px" width="864px"
	 height="373.481px" viewBox="0 0 864 373.481" enable-background="new 0 0 864 373.481" xml:space="preserve">
<g id="wave_min_blend_bright">
	<g>
		<path fill="none" stroke="#00FF66" stroke-width="1.5" stroke-miterlimit="10" d="M0,269.845c54.337,0,61.439-2.174,81.677,0.546
			c21.19,2.848,62.2,13.951,83.99,24.12c30,14,55.577,32.972,80.333,20c60.082-31.48,62.2-200.539,91-200.539
			c28.801,0,28.199,133.539,57,133.539c28.799,0,32.56-190.652,60-199.4c51.333-16.364,14.475,217.056,66.334,248.4
			c43.667,26.393,161.164-12.854,196.166-23c34.5-10,118.701-2,147.5-2"/>
		<path fill="none" stroke="#16FF57" stroke-width="1.5" stroke-miterlimit="10" d="M0,269.845
			c53.764,0.027,65.094-0.579,85.509,2.349c19.847,2.847,56.147,12.744,76.349,22.103c28.467,13.162,54.78,31.39,80,18.536
			c59.537-30.47,66.247-193.451,95.047-193.451s28.532,122.416,57.333,122.416c28.798,0,32.083-175.529,59.523-184.277
			c51.333-16.364,16.09,203.698,69.429,234.61c42.396,24.57,157.782-6.879,192.81-16.76c34.429-9.717,119.201-3.859,148-3.859"/>
		<path fill="none" stroke="#2CFF49" stroke-width="1.5" stroke-miterlimit="10" d="M0,269.845
			c53.191,0.057,68.751,1.004,89.341,4.151c18.505,2.828,50.095,11.537,68.707,20.086c26.934,12.323,53.983,29.808,79.666,17.072
			c58.994-29.461,70.295-186.362,99.096-186.362s28.866,111.29,57.666,111.29s31.607-160.405,59.048-169.153
			c51.334-16.364,17.672,190.383,72.525,220.82c41.087,22.799,154.398-0.902,189.451-10.52c34.357-9.434,119.701-5.719,148.5-5.719"
			/>
		<path fill="none" stroke="#42FF3A" stroke-width="1.5" stroke-miterlimit="10" d="M0,269.845
			c52.618,0.084,72.409,2.575,93.172,5.954c17.166,2.794,44.043,10.329,61.066,18.069c25.401,11.483,53.187,28.225,79.333,15.607
			c58.449-28.45,74.343-179.273,103.143-179.273c28.801,0,29.199,100.166,58,100.166c28.799,0,31.131-145.283,58.572-154.031
			c51.333-16.364,19.216,177.123,75.619,207.031c39.75,21.078,151.017,5.074,186.095-4.278c34.285-9.15,120.201-7.579,149-7.579"/>
		<path fill="none" stroke="#57FF2C" stroke-width="1.5" stroke-miterlimit="10" d="M0,269.845
			c52.045,0.112,76.069,4.13,97.004,7.758c15.828,2.742,37.991,9.121,53.424,16.051c23.868,10.646,52.39,26.643,79,14.144
			c57.905-27.439,78.39-172.185,107.19-172.185s29.532,89.041,58.333,89.041c28.799,0,30.655-130.159,58.096-138.907
			c51.333-16.364,20.726,163.926,78.715,193.241c38.384,19.404,147.634,11.05,182.737,1.962c34.214-8.867,120.701-9.438,149.5-9.438
			"/>
		<path fill="none" stroke="#6DFF1D" stroke-width="1.5" stroke-miterlimit="10" d="M0,269.845
			c51.472,0.141,79.733,5.663,100.836,9.561c14.493,2.677,31.938,7.914,45.783,14.034c22.335,9.807,51.594,25.061,78.667,12.679
			c57.361-26.429,82.437-165.096,111.237-165.096s29.865,77.917,58.666,77.917c28.799,0,30.18-115.037,57.62-123.785
			c51.333-16.364,22.2,150.803,81.81,179.451c36.996,17.779,144.252,17.026,179.381,8.203c34.143-8.583,121.201-11.298,150-11.298"
			/>
		<path fill="none" stroke="#83FF0F" stroke-width="1.5" stroke-miterlimit="10" d="M0,269.845
			c50.898,0.168,83.402,7.17,104.668,11.363c13.162,2.596,25.886,6.707,38.142,12.018c20.802,8.967,50.796,23.478,78.333,11.215
			c56.817-25.42,86.485-158.008,115.286-158.008c28.801,0,30.199,66.793,59,66.793c28.799,0,29.703-99.914,57.144-108.662
			c51.333-16.364,23.635,137.77,84.905,165.661c35.588,16.201,140.869,23.003,176.023,14.443
			c34.071-8.3,121.701-13.157,150.5-13.157"/>
		<path fill="none" stroke="#99FF00" stroke-width="1.5" stroke-miterlimit="10" d="M0,269.845
			c50.325,0.196,87.08,8.641,108.5,13.166c11.834,2.5,19.834,5.5,30.5,10c19.269,8.129,50,21.896,78,9.751
			c56.273-24.409,90.532-150.919,119.333-150.919s30.532,55.668,59.333,55.668c28.799,0,29.227-84.79,56.667-93.538
			c51.333-16.364,25.033,124.84,88.001,151.871C574.5,280.511,677.82,294.823,713,286.528c34-8.017,122.201-15.017,151-15.017"/>
	</g>
</g>
<g id="text_white">
	<ellipse fill="none" stroke="#FFFFFF" stroke-width="20" stroke-miterlimit="10" cx="79" cy="178.408" rx="45" ry="54"/>
	<line fill="none" stroke="#FFFFFF" stroke-width="20" stroke-miterlimit="10" x1="34" y1="114.408" x2="34" y2="332.408"/>
	<ellipse fill="none" stroke="#FFFFFF" stroke-width="20" stroke-miterlimit="10" cx="206" cy="178.408" rx="45" ry="54"/>
	<line fill="none" stroke="#FFFFFF" stroke-width="20" stroke-miterlimit="10" x1="251" y1="114.408" x2="251" y2="242.408"/>
	<line fill="none" stroke="#FFFFFF" stroke-width="20" stroke-miterlimit="10" x1="551" y1="45.484" x2="551" y2="286.962"/>
	<ellipse fill="none" stroke="#FFFFFF" stroke-width="20" stroke-miterlimit="10" cx="643" cy="178.408" rx="45" ry="54"/>
	<line fill="none" stroke="#FFFFFF" stroke-width="20" stroke-miterlimit="10" x1="688" y1="114.408" x2="688" y2="242.408"/>
	<ellipse fill="none" stroke="#FFFFFF" stroke-width="20" stroke-miterlimit="10" cx="785" cy="178.408" rx="45" ry="54"/>
	<line fill="none" stroke="#FFFFFF" stroke-width="20" stroke-miterlimit="10" x1="740" y1="90.408" x2="740" y2="242.929"/>
	<path fill="none" stroke="#FFFFFF" stroke-width="20" stroke-miterlimit="10" d="M740,90.408c0-19.303,21.021-34.924,47-34.924"/>
	<path fill="none" stroke="#FFFFFF" stroke-width="20" stroke-miterlimit="10" d="M551,286.962c0,19.303,21.021,34.924,47,34.924"/>
</g>
</svg>
