<svg class="svg-light" xmlns="http://www.w3.org/2000/svg" xmlns:xlink="http://www.w3.org/1999/xlink" version="1.1" x="0px" y="0px" viewBox="0 0 90 100" enable-background="new 0 0 90 100" xml:space="preserve">
    <defs><link href="../css/svg.css" type="text/css" rel="stylesheet" xmlns="http://www.w3.org/1999/xhtml" /></defs>
    <!-- rectangle top right-->
    <rect x="59.6" y="4" width="20" height="20"></rect>
    <!-- triangle left-->
    <polygon points="36,30 0,58.4 6,30 6,30 "></polygon>
    <!-- wave -->
    <path d="M92.434,70.918c-2.025,0-3.188-1.713-4.922-4.505c-1.906-3.074-4.279-6.896-9.224-6.896c-4.947,0-7.319,3.821-9.228,6.897   c-1.732,2.79-2.897,4.503-4.924,4.503c-2.021,0-3.186-1.713-4.916-4.502c-1.906-3.074-4.279-6.898-9.228-6.898   c-4.949,0-7.32,3.824-9.229,6.898c-1.73,2.789-2.895,4.502-4.915,4.502c-2.023,0-3.188-1.713-4.919-4.502   c-1.905-3.075-4.277-6.898-9.223-6.898c-4.943,0-7.314,3.821-9.221,6.896c-1.731,2.792-2.896,4.505-4.922,4.505   c-1.399,0-2.533,1.133-2.533,2.533c0,1.398,1.134,2.533,2.533,2.533c4.947,0,7.32-3.827,9.229-6.899   c1.73-2.79,2.894-4.501,4.914-4.501c2.022,0,3.187,1.711,4.918,4.501c1.906,3.074,4.278,6.899,9.224,6.899   c4.944,0,7.315-3.825,9.222-6.897c1.731-2.792,2.896-4.503,4.922-4.503s3.188,1.711,4.921,4.503   c1.906,3.072,4.279,6.897,9.223,6.897c4.946,0,7.319-3.825,9.229-6.899c1.732-2.79,2.896-4.501,4.923-4.501   c2.022,0,3.187,1.711,4.916,4.501c1.907,3.072,4.28,6.899,9.229,6.899c1.398,0,2.532-1.135,2.532-2.533   C94.967,72.051,93.833,70.918,92.434,70.918z"></path>
    <!-- random filled circles -->
    <circle fill-rule="evenodd" clip-rule="evenodd" cx="40" cy="90" r="9.049"></circle>
    <circle fill-rule="evenodd" clip-rule="evenodd" cx="85" cy="50" r="5"></circle>
    <circle fill-rule="evenodd" clip-rule="evenodd" cx="36" cy="20" r="3"></circle>
    <!-- empty solid circle center-->
    <path fill-rule="evenodd" clip-rule="evenodd" d="M63.318,62.857c-7.261,7.262-19.036,7.262-26.298,0   c-7.262-7.264-7.262-19.039-0.001-26.3c7.263-7.264,19.038-7.264,26.299,0C70.582,43.819,70.582,55.594,63.318,62.857z    M60.062,39.814c-5.464-5.465-14.322-5.465-19.785,0c-5.463,5.465-5.463,14.32,0,19.788c5.463,5.463,14.321,5.463,19.785,0   C65.526,54.134,65.526,45.279,60.062,39.814z"></path>
    <!-- sun triangles top left -->
    <polygon points="5.403,13.165 0,15.911 5.403,18.657 5.403,13.165    "></polygon>
    <polygon points="2.394,6.574 5.282,11.902 8.401,7.38 2.394,6.574    "></polygon>
    <polygon points="29.606,6.574 23.599,7.38 26.718,11.902 29.606,6.574    "></polygon>
    <polygon points="21.55,0.805 16.974,4.779 22.064,6.844 21.55,0.805    "></polygon>
    <polygon points="10.45,0.805 9.936,6.844 15.026,4.779 10.45,0.805    "></polygon>
    <polygon points="5.282,20.098 2.394,25.426 8.401,24.62 5.282,20.098    "></polygon>
    <!-- dashed circle -->
    <path d="M47.104,92.754c-0.444,0-0.885-0.007-1.325-0.02l0.04-1.3c0.986,0.031,1.982,0.025,2.965-0.014l0.052,1.299     C48.262,92.743,47.684,92.754,47.104,92.754z M42.731,92.533c-1.014-0.103-2.033-0.243-3.028-0.417l0.224-1.28     c0.965,0.168,1.953,0.305,2.936,0.405L42.731,92.533z M51.884,92.49l-0.144-1.292c0.979-0.108,1.965-0.254,2.932-0.433     l0.236,1.278C53.911,92.228,52.893,92.378,51.884,92.49z M36.713,91.483c-0.985-0.246-1.974-0.531-2.938-0.847L34.18,89.4     c0.935,0.307,1.893,0.583,2.847,0.821L36.713,91.483z M57.893,91.381l-0.327-1.258c0.954-0.248,1.909-0.533,2.839-0.849     l0.417,1.231C59.862,90.831,58.876,91.125,57.893,91.381z M30.903,89.578c-0.938-0.384-1.876-0.809-2.788-1.262l0.578-1.164     c0.884,0.438,1.793,0.85,2.703,1.223L30.903,89.578z M63.678,89.422l-0.504-1.198c0.905-0.381,1.809-0.8,2.688-1.247l0.589,1.159     C65.545,88.597,64.612,89.03,63.678,89.422z M25.425,86.859c-0.873-0.515-1.74-1.068-2.578-1.646l0.738-1.07     c0.812,0.561,1.653,1.098,2.5,1.596L25.425,86.859z M69.125,86.654l-0.671-1.113c0.842-0.507,1.677-1.051,2.483-1.619     l0.748,1.063C70.854,85.57,69.992,86.132,69.125,86.654z M20.395,83.387c-0.795-0.636-1.574-1.308-2.317-1.995l0.883-0.954     c0.72,0.667,1.476,1.317,2.247,1.935L20.395,83.387z M74.12,83.138l-0.822-1.007c0.764-0.624,1.513-1.281,2.229-1.955     l0.892,0.946C75.68,81.817,74.907,82.495,74.12,83.138z M15.909,79.238c-0.693-0.739-1.369-1.514-2.01-2.302l1.009-0.82     c0.622,0.765,1.277,1.517,1.949,2.233L15.909,79.238z M78.567,78.948l-0.956-0.881c0.666-0.723,1.314-1.48,1.929-2.251     l1.017,0.811C79.923,77.421,79.253,78.203,78.567,78.948z M12.059,74.497c-0.581-0.829-1.14-1.692-1.662-2.564l1.115-0.668     c0.507,0.846,1.049,1.682,1.611,2.486L12.059,74.497z M82.375,74.169l-1.071-0.736c0.557-0.811,1.092-1.653,1.589-2.502     l1.122,0.657C83.502,72.464,82.95,73.333,82.375,74.169z M8.922,69.257c-0.456-0.903-0.886-1.836-1.279-2.773l1.199-0.502     c0.38,0.909,0.797,1.814,1.24,2.688L8.922,69.257z M85.466,68.896L84.3,68.32c0.437-0.884,0.846-1.794,1.216-2.705l1.204,0.49     C86.338,67.044,85.916,67.983,85.466,68.896z M6.567,63.626c-0.323-0.963-0.616-1.949-0.869-2.931l1.259-0.324     c0.245,0.952,0.529,1.908,0.842,2.841L6.567,63.626z M87.77,63.232l-1.236-0.401c0.305-0.938,0.579-1.897,0.814-2.85l1.262,0.313     C88.367,61.276,88.084,62.265,87.77,63.232z M5.043,57.71c-0.181-0.996-0.329-2.013-0.439-3.024l1.292-0.141     c0.107,0.98,0.25,1.967,0.426,2.933L5.043,57.71z M4.381,51.638C4.36,51.094,4.35,50.549,4.35,50     c0-0.475,0.008-0.948,0.023-1.419l1.299,0.042C5.658,49.081,5.65,49.54,5.65,50c0,0.532,0.01,1.062,0.03,1.588L4.381,51.638z      M5.874,45.667l-1.293-0.135c0.105-1.009,0.248-2.028,0.424-3.026l1.28,0.226C6.114,43.7,5.976,44.688,5.874,45.667z      M6.905,39.835l-1.261-0.318c0.248-0.981,0.535-1.968,0.854-2.935l1.234,0.407C7.423,37.926,7.145,38.884,6.905,39.835z      M87.296,39.811c-0.241-0.954-0.52-1.911-0.829-2.845l1.234-0.408c0.319,0.963,0.606,1.951,0.855,2.935L87.296,39.811z      M8.764,34.207l-1.202-0.496c0.387-0.938,0.813-1.875,1.268-2.785l1.163,0.58C9.552,32.389,9.139,33.297,8.764,34.207z      M85.436,34.19c-0.374-0.906-0.787-1.813-1.228-2.696l1.163-0.581c0.455,0.911,0.881,1.846,1.267,2.781L85.436,34.19z      M11.412,28.903l-1.118-0.663c0.517-0.872,1.073-1.738,1.652-2.574l1.068,0.74C12.453,27.217,11.914,28.057,11.412,28.903z      M82.789,28.893c-0.502-0.848-1.042-1.687-1.602-2.494l1.068-0.741c0.578,0.833,1.133,1.698,1.651,2.572L82.789,28.893z      M14.789,24.032l-1.013-0.815c0.636-0.791,1.309-1.568,2-2.312l0.952,0.885C16.059,22.51,15.406,23.265,14.789,24.032z      M79.413,24.025c-0.616-0.765-1.268-1.52-1.939-2.242l0.952-0.885c0.692,0.745,1.365,1.522,2,2.311L79.413,24.025z M18.822,19.69     l-0.887-0.95c0.742-0.692,1.518-1.367,2.307-2.005l0.817,1.011C20.294,18.365,19.542,19.019,18.822,19.69z M75.379,19.685     c-0.719-0.67-1.472-1.325-2.238-1.944l0.817-1.011c0.791,0.639,1.567,1.313,2.308,2.005L75.379,19.685z M23.429,15.966     L22.686,14.9c0.834-0.582,1.698-1.139,2.567-1.657l0.665,1.117C25.075,14.862,24.238,15.403,23.429,15.966z M70.77,15.96     c-0.807-0.562-1.645-1.103-2.492-1.606l0.665-1.117c0.873,0.52,1.738,1.078,2.57,1.657L70.77,15.96z M28.515,12.936l-0.584-1.161     c0.905-0.456,1.84-0.883,2.776-1.272l0.499,1.2C30.298,12.08,29.393,12.495,28.515,12.936z M65.678,12.929     c-0.879-0.441-1.787-0.857-2.696-1.235l0.498-1.2c0.938,0.389,1.874,0.818,2.781,1.273L65.678,12.929z M33.978,10.666     l-0.411-1.233c0.962-0.321,1.949-0.611,2.933-0.862l0.321,1.26C35.867,10.074,34.911,10.354,33.978,10.666z M60.203,10.658     c-0.932-0.311-1.888-0.591-2.843-0.834l0.32-1.26c0.986,0.25,1.973,0.54,2.934,0.86L60.203,10.658z M39.717,9.202l-0.23-1.279     c0.999-0.18,2.017-0.326,3.026-0.433l0.138,1.293C41.672,8.886,40.685,9.027,39.717,9.202z M54.462,9.196     c-0.97-0.173-1.958-0.314-2.934-0.417l0.137-1.293c1.007,0.107,2.025,0.252,3.026,0.431L54.462,9.196z M45.607,8.572L45.56,7.273     c1.014-0.036,2.043-0.036,3.057-0.001l-0.045,1.299C47.587,8.537,46.591,8.537,45.607,8.572z"></path>
</svg>
