<svg xmlns:dc="http://purl.org/dc/elements/1.1/" xmlns:cc="http://creativecommons.org/ns#" xmlns:rdf="http://www.w3.org/1999/02/22-rdf-syntax-ns#" xmlns:svg="http://www.w3.org/2000/svg" xmlns="http://www.w3.org/2000/svg" xmlns:sodipodi="http://sodipodi.sourceforge.net/DTD/sodipodi-0.dtd" xmlns:inkscape="http://www.inkscape.org/namespaces/inkscape" version="1.1" x="0px" y="0px" viewBox="0 0 100 100"><g transform="translate(0,-952.36218)"><path style="text-indent:0;text-transform:none;direction:ltr;block-progression:tb;baseline-shift:baseline;color:#000000;enable-background:accumulate;" d="m 50,956.36219 c -4.0658,0 -7.4731,2.49477 -9.0312,6 l -6.9688,0 c -1.0472,10e-5 -1.9999,0.95283 -2,2 l 0,2 -14,0 c -1.12,0.003 -1.9993,1.04651 -2,2 l 0,78.00001 c 10e-5,1.0472 0.9528,1.9999 2,2 l 64,0 c 1.0472,-10e-5 1.9999,-0.9528 2,-2 l 0,-78.00001 c -1e-4,-1.04717 -0.9528,-1.9999 -2,-2 l -14,0 0,-2 c -1e-4,-1.04717 -0.9528,-1.9999 -2,-2 l -6.9688,0 c -1.5582,-3.50523 -4.9654,-6 -9.0312,-6 z m 0,4 c 2.8324,0 5.1496,1.88045 5.8125,4.46875 0.208,0.86248 1.0503,1.52817 1.9375,1.53125 l 6.25,0 0,5.99998 -28,0 0,-5.99998 6.25,0 c 0.8872,-0.003 1.7295,-0.66877 1.9375,-1.53125 0.6629,-2.5883 2.9801,-4.46875 5.8125,-4.46875 z m -30,9.99998 12,0 0,4 c 1e-4,1.0472 0.9528,1.9999 2,2 l 32,0 c 1.0472,-10e-5 1.9999,-0.9528 2,-2 l 0,-4 12,0 0,74.00003 -60,0 0,-74.00003 z m 18,12 c -2.2091,0 -4,1.7909 -4,4 0,2.2092 1.7909,4 4,4 2.2091,0 4,-1.7908 4,-4 0,-2.2091 -1.7909,-4 -4,-4 z m 15,8 c -1.1046,0 -2,0.8954 -2,2 0,1.1046 0.8954,2 2,2 l 17,0 c 1.1046,0 2,-0.8954 2,-2 0,-1.1046 -0.8954,-2 -2,-2 l -17,0 z m -15,1 c -3.6923,0 -8,1.4 -8,7 l 16,0 c 0,-5.6 -4.3077,-7 -8,-7 z m -8,13.00003 c -1.1046,0 -2,0.8954 -2,2 0,1.1046 0.8954,2 2,2 l 40,0 c 1.1046,0 2,-0.8954 2,-2 0,-1.1046 -0.8954,-2 -2,-2 l -40,0 z m 0,14 c -1.1046,0 -2,0.8954 -2,2 0,1.1046 0.8954,2 2,2 l 40,0 c 1.1046,0 2,-0.8954 2,-2 0,-1.1046 -0.8954,-2 -2,-2 l -40,0 z m 0,14 c -1.1046,0 -2,0.8954 -2,2 0,1.1046 0.8954,2 2,2 l 40,0 c 1.1046,0 2,-0.8954 2,-2 0,-1.1046 -0.8954,-2 -2,-2 l -40,0 z" fill="#000000" fill-opacity="1" stroke="none" marker="none" visibility="visible" display="inline" overflow="visible"></path></g></svg>