<svg id="scrubbie" xmlns="http://www.w3.org/2000/svg" width="354" height="238" viewBox="0 0 353.5 238">
	<defs><link href="../css/svg.css" type="text/css" rel="stylesheet" xmlns="http://www.w3.org/1999/xhtml"/></defs>
	
	<path d="M90.2 96.8c21.5-18 53.5-25 80-29.5 30-5 61-5.5 91-0.5 3 0.5 8 1.5 9.5 2.5" class="a"/><path d="M138.2 58.8c0 9.3-3.6 16.3-8.8 18.3 -3.5 1.4-9.3-2-10.5-5 -1-2.6-2.5-15.7-3.6-18.6 -0.8-2-2.1-2.2-4.2 0.8 -3.6 4.9-2.8 16.1-1 23.9 0.7 2.6 1.2 4.6 1.8 5.2 -3.4 1.1-8.3 0.1-9.7-1.7 -2.5-3.3-7.2-46.9-8.6-48 3.4-1.1 7.8 0.2 8.5 2.7 1.3 5.1 2.3 10.6 3.8 19.1 1.4-4.3 4.2-8.5 8.8-9.8 3.7-1.1 7.4 0.6 8.8 3.6 1.6 3.4 3.3 16.3 3.8 19 0.5 2.1 1 2.8 1.9 2.6 3.4-1 5.7-7.9 5.9-14.7 0 0 0-1.3 1.5-0.8L138.2 58.8z" class="b"/><path d="M134.4 64.1c-2.1-9.4 1.9-24.6 12.6-27.1 6.7-1.5 10.3 2.6 11.7 8.7 2.2 9.6-0.2 24.3-11.5 26.8C141 74 135.8 70.3 134.4 64.1zM152.1 45.1c-0.4-1.9-1.5-4.8-4-4.2 -6.2 1.4-5.3 17.2-4.3 21.6 0.4 1.6 1.4 4.9 3.6 4.4C153.1 65.6 153.1 49.4 152.1 45.1z" class="b"/><path d="M209.3 33.3c1.3 12.7-8.9 31.1-18 32 -2.7 0.3-8.2-3.9-9.2-6.2 -3.1 3.9-8 8-11.1 8.3 -3.4 0.3-6.9-4.4-7.2-7.9 -0.5-5.4-0.1-20.4-1.3-26.1 3.3-0.6 7.2 1 8.4 2.9 1.7 3 0.8 24.7 2.5 24.7 3-0.2 8.1-8.1 9-16.7 0.5-5.1 0.5-8.7 0.2-11.5 3.3-0.3 7.3 1 8.1 3.1 1.2 3.4-0.6 23.5 1.7 23.3 5.4-0.5 12.6-19.4 9.6-30.9C205.5 27.8 209 30.7 209.3 33.3z" class="b"/><path d="M234.2 58.3c-2.9 3.4-8.4 6.1-14.1 6 -6.1-0.1-9.6-4.9-9-11.4 1.3-12.5 10.5-23.3 18.8-23 5.1 0.1 7.6 3 7.6 6.6 0.2 8.9-8 15-16.7 14.5 0 0.5 0 0.9 0 1.3 -0.1 3.6 1.1 6.1 3.9 6.2 3.1 0.1 6.7-2.1 9.5-4.6 0 0 0.9-0.8 1.3 0.8L234.2 58.3zM229.8 33.8c-3.6-0.1-7 7.4-8.3 13.6C231 45.3 234.4 33.9 229.8 33.8z" class="b"/><path d="M250.7 41.3c3.5-4.3 8.3-9.3 12.1-8.9 2.6 0.3 3.6 2.1 3.3 4.6 -0.2 1.6-1.3 3.5-3.1 6.1 -2.1-0.2-1.9-0.5-1.8-1.2 0-0.4 0.1-0.8 0-1.1 0-1.4-1.8-2-4.3-0.3 -3.7 2.5-8.3 8.5-10.3 15.5 -1.1 3.9-1.7 7-1.4 8.9 -3.4-0.7-7.4-3.8-7.7-6.1 -0.5-4 9-26.7 8.3-28.3 3.5 0.7 6.6 3.9 6 6.3 -0.2 0.8-0.9 2.8-1.5 4.5L250.7 41.3z" class="b"/><path d="M127 155c7-8 25-12.5 35-15.5 16.5-4.5 32.5-7.5 49-9.5 34-4 67-1 100 7.5 4.5 1 9.5 2 14 4" class="a"/><path d="M157.6 134.3c-1.6 4.2-5.6 8.8-10.9 10.7 -5.7 2.1-10.8-1.2-12.6-7.4 -3.4-12.8 1.5-25.4 10.1-28.5 4.9-1.8 7.9-0.4 8.8 1.9 0.7 2.1 0.3 4.7-0.1 8.1 -2 0.7-2.4 0.5-2.5-0.1 -0.8-5.2-2.6-6.9-5.2-6 -5 1.8-4.9 13.3-2.2 20.8 1.2 3.4 3.1 4.8 5.8 3.9 2.9-1.1 5.4-4.4 7.2-7.7 0 0 0.6-1.1 1.5 0.3L157.6 134.3z" class="b"/><path d="M166.8 114.1c1.7-5.3 4.5-11.7 8.1-12.6 2.5-0.6 4.1 0.7 4.7 3.1 0.4 1.6 0 3.7-0.7 6.8 -2 0.5-1.9 0.2-2.1-0.5 -0.1-0.4-0.2-0.8-0.4-1 -0.5-1.3-2.4-1.2-4.1 1.3 -2.6 3.7-4.7 10.9-4 18.2 0.4 4 0.9 7.2 1.8 8.8 -3.5 0.6-8.3-0.9-9.4-3 -1.9-3.5-1.1-28.2-2.3-29.4 3.6-0.6 7.5 1.3 7.9 3.8 0.1 0.8 0.1 3 0.2 4.7L166.8 114.1z" class="b"/><path d="M223.4 115.3c-1.4 6.1-5.3 14.9-12.4 15.8 -3.3 0.5-8.4-3.3-9.3-6.4 -2 3.9-5.3 8.4-10.1 9.1 -3.6 0.5-8.9-3.7-9.4-7.3 -0.4-2.6 0-5.3 0.2-7.8 0.6-5.5 2.2-13.6 1.9-18.9 2.6-0.2 7.6 1.1 8.1 4.2 0.2 1.7 0 3.5-0.1 5.3 -0.3 4.9-1.5 11.9-0.8 16.6 0.1 0.9 0.3 1.9 1.3 1.7 8.3-1.1 11.1-23.7 10.7-30.5 2.6-0.2 7.6 1.1 8.1 4.2 0.2 1.7 0.1 3.6-0.1 5.3 -0.3 4.9-1.5 11.9-0.8 16.6 0.1 0.7 0.3 1.9 1.3 1.7 4.7-0.6 7.8-9.5 8.9-13.1 0.1-0.3 0.2-0.5 0.5-0.6 0.4-0.1 0.8 0.3 1.1 0.6L223.4 115.3z" class="b"/><path d="M239.8 94.2c4.6-0.1 8.7 2.1 8.8 10.1 0.2 10.7-8.8 24.6-21.1 24.9 -6.4 0.1-9.3-4-8.6-9.4 1.1-8.5 5.2-26.1 7.2-37.2 0.7-3.9 1.1-6.6 0.8-7 3.6 0.2 7.3 2.9 7 5.5 -0.7 5.8-1.3 9.8-2.6 17.4C233.2 96.3 236.4 94.3 239.8 94.2zM239.5 103.3c-0.1-2.3-0.6-4-2-4 -5.2 0.1-10.1 17.8-10 22.9 0 1.1 0.8 2 2 2C235.6 124.1 239.7 110.3 239.5 103.3z" class="b"/><path d="M274 96.6c4.6 0.4 8.4 3.1 7.6 11 -1 10.7-11.6 23.4-23.9 22.3 -6.4-0.6-8.8-5-7.5-10.3 2.1-8.3 8.2-25.4 11.4-36.1 1.2-3.8 1.9-6.5 1.6-6.9 3.6 0.6 6.9 3.8 6.3 6.3 -1.3 5.7-2.4 9.6-4.6 17C267.2 98 270.6 96.3 274 96.6zM272.7 105.7c0.2-2.3-0.1-4-1.5-4.2 -5.2-0.5-12.1 16.6-12.5 21.6 -0.1 1.1 0.6 2.1 1.8 2.2C266.4 125.9 272.1 112.6 272.7 105.7z" class="b"/><path d="M304.9 122.1c-4.9 7.9-11.2 12.2-16.8 11.2 -3.6-0.7-7.3-6.5-6.7-9.8 1-5.3 9.2-19.2 10.6-24.7 3.2 0.8 6.3 3.5 6.5 5.7 0.2 3.4-10.5 22.4-7.6 23.1 3.5 0.9 8.9-3.8 12.7-9.7 0 0 0.7-1 1.6 0.4L304.9 122.1zM295.9 89.1c1-3.6 4.3-5.9 7-5.1 1.7 0.5 3.4 1.9 2.9 4.6 -0.6 3.1-3.3 6.7-7 5.6C296.6 93.5 295.3 91.3 295.9 89.1z" class="b"/><path d="M321 134.3c-3.6 2.7-9.5 4.1-15 2.7 -5.9-1.5-8.2-6.9-6.3-13.1 4-11.9 15.4-20.3 23.4-18.3 4.9 1.3 6.8 4.6 6 8.1 -1.8 8.7-11.1 12.9-19.5 10.4 -0.1 0.5-0.2 0.9-0.3 1.3 -0.9 3.5-0.3 6.2 2.4 6.9 3 0.8 7-0.6 10.3-2.3 0 0 1.1-0.6 1.1 1.1L321 134.3zM322.1 109.4c-3.5-0.9-8.5 5.7-11.2 11.4C320.6 120.9 326.6 110.5 322.1 109.4z" class="b"/><path d="M68.4 43.8c-0.7 2.2-4.2 4.2-5.9 5.7 -2.5 2.3-4.8 4.8-7.2 7.3 -1.9 2-3.9 4-6 5.9 -2.2 2-5.4 1.4-7.8 3 -7.8 5.2-6.9 17.3-0.5 23.1 2.1 1.9 4.8 0.9 5.9-1.5 1.4-3.3 1.5-6.9 2.3-10.4 0.8-3.5 5.4-8.1 7.7-10.9 3-3.7 6.6-7.1 9.9-10.5 1.4-1.5 3.2-3.6 5.1-4.4 1.7-0.7 3.3-1 5-1.9 -1.7-1.3-3.4-2.6-5.1-4 0.4-0.2 0.8-0.4 1.2-0.6 1.1 0.3 2.3 0.6 3.4 0.9 -0.1 1.3-0.2 2.7-0.3 4 -1.4-1.4-2.9-2.9-4.3-4.3 -1.1 2.9-3.9 4.8-6.1 6.8 -3 2.7-5.7 5.7-8.3 8.8 -2.5 3-4.7 6.1-6.8 9.3 -2.7 4.3-10.8 15.2-6.8 20.4 5.4 7.1 12.3-7.4 14.4-10.9 1.9-3.2 3.9-6.5 5.9-9.6 2.3-3.5 4.7-6.9 7.3-10.2 1-1.3 2.2-2.5 3.3-3.7 0.9-1 3.3-2 1.6-2.3 -0.8-0.8-1.6-1.6-2.4-2.4 -0.6-1.4-2.6 2.4-3 2.9 -1.5 1.8-3.1 3.6-4.7 5.4 -2.8 3.2-5.4 6.5-7.9 9.9 -4.8 6.6-8.5 13.9-10.7 21.8 -0.7 2.4 1.7 5.3 4.3 4.3 6.2-2.3 9.6-10.7 12.5-16.2 3.7-7.2 6.7-14.8 14-19.1 -1.7-1.3-3.4-2.6-5.1-4 -0.7 2.9 2.5 5.2 5.1 4 -1.7-1.3-3.4-2.6-5.1-4 -1.5 6.3-6.7 11-10.4 16 -4.8 6.3-7.7 13.9-12.1 20.6 -2 3 1.9 6.6 4.8 4.8 7.2-4.4 9.9-12.5 15.3-18.5 4.9-5.5 10.8-8.1 9.5-16.6 -0.7-4.4-7.4-2.6-6.7 1.9 0.7 4.7-7.1 8.9-9.7 12.3 -3.7 4.9-6.4 11.6-11.8 14.9 1.6 1.6 3.2 3.2 4.8 4.8 4.4-6.6 7.5-14.1 12.1-20.6 4.1-5.8 9.5-10.5 11.1-17.7 0.7-3.1-2.4-5.3-5.1-4 -3.2 1.6-7.8 6.4-3.1 9.4 4.1 2.6 7.4-2 8.3-5.5 0.7-2.9-2.4-5.5-5.1-4 -6.2 3.6-10.1 9.2-13.4 15.4 -1.7 3.3-3.3 6.6-5 9.9 -1.2 2.2-3.9 8.4-6.3 9.3 1.4 1.4 2.9 2.9 4.3 4.3 2.5-9.3 7.5-17.3 13.5-24.7 2.9-3.6 6.1-7 9.1-10.6 1.7-2 4.9-5.4 3.7-8.3 -4.8-11.7-24 19-26 22.5 -2.5 4.2-4.9 8.5-7.7 12.5 -0.2 0.3-0.9 1.3-1.1 1.4 5.4-4 3.4 3.7 4.3 0.3 0.7-2.7 2.2-5.2 3.5-7.6 2.5-4.6 5.4-8.9 8.7-12.9 5.1-6.2 13.3-11.1 16.2-18.7 1-2.5-1.9-5.1-4.3-4.3 -2.7 0.8-6.3 4.8-3.1 7.5 3.4 2.8 6.1 0.1 7.4-3.2 1.2-3.1-2.7-5.2-5.1-4 -1.8 0.9-3.9 1.1-5.6 2.1 -2.2 1.3-4.1 3.5-5.9 5.3 -3.7 3.7-7.6 7.6-10.9 11.7 -2.7 3.3-6 6.8-7.7 10.7 -1.8 4-1.4 8.5-3.1 12.5 2-0.5 3.9-1 5.9-1.5 -3.2-2.9-5.1-11 0.6-12.5 4.5-1.2 6.8-2.8 10.2-6 3.7-3.5 7-7.4 10.7-10.9 3.1-2.9 6.3-4.7 7.7-8.8C76.5 41.4 69.8 39.6 68.4 43.8L68.4 43.8z" class="b"/><path d="M79 53.5c0.5 3.4 1.5 6.8 2.6 10 1.5 4.2 8.2 2.4 6.8-1.9 -1.1-3.3-2-6.6-2.6-10 -0.3-1.9-2.6-2.9-4.3-2.4C79.4 49.8 78.7 51.7 79 53.5L79 53.5z" class="b"/><path d="M82.8 69.7c-1.6-8.9 5.3-27-8.7-29.1 -4.4-0.6-6.3 6.1-1.9 6.8 7.7 1.1 2.8 18.6 3.8 24.2C76.9 76 83.6 74.1 82.8 69.7L82.8 69.7z" class="b"/><path d="M75.6 42.3c0.3 2.5 0.5 5 1.1 7.5 1 3.7 7.4 3 6.9-0.9 -0.2-0.8-0.2-1.7-0.1-2.5 -2.3 0-4.7 0-7 0 0.5 3.9 0.4 7.8 1.4 11.7 1 3.9 3 7.6 4.3 11.4 1.4 4.3 8.2 2.4 6.8-1.9 -1.1-3.3-2.5-6.5-3.7-9.8 -1.4-3.7-1.2-7.6-1.7-11.5 -0.5-4.4-6.9-4.6-7 0 -0.1 0.8 0 1.7 0.1 2.5 2.3-0.3 4.6-0.6 6.9-0.9 -0.5-1.9-0.6-3.7-0.8-5.7C82.2 37.9 75.2 37.8 75.6 42.3L75.6 42.3z" class="b"/><path d="M49.4 75.1c0.4-16.7 17.6-24.4 30.9-30 4.1-1.8 0.6-7.8-3.5-6 -16 6.7-33.8 16.5-34.3 36.1C42.2 79.7 49.2 79.6 49.4 75.1L49.4 75.1z" class="b"/><path d="M74.4 115.5c4.8 3.3 8.5 7 9.9 12.8 1.6 6.7-0.9 13.3 3.6 19.3 3 4 7.9 5.3 12.3 7 4.2 1.7 8.4 3.2 12.9 3.7 3.6 0.4 7-1.1 8.8-4.3 2.6-4.6-0.2-10.5-2.5-14.6 -6.2-10.9-15.7-19.9-27.9-23.5 -2.2-0.6-4.4 1.1-4.4 3.4 0.1 10-1.2 22.5 8.1 29 4.9 3.4 18.9 8.7 22.5 0.8 0.7-1.5 0.7-3-0.5-4.2 -0.3-0.3-0.7-0.7-1-1 -2.9-2.9-7.4 0.8-5.5 4.2 0.5 1 1.1 1.7 1.8 2.5 2.3 2.5 7.1-0.1 5.9-3.4 -0.4-1-0.8-2-1.3-2.9 -1.8-3.7-7.3-1-6.4 2.7 0.3 1.2 0.6 1.9 1.3 2.9 2.2 3.2 7.6 1.3 6.4-2.7 -1.5-5.1-17.8-35.3-24.6-24.6 -3.1 4.9-3.5 11-0.9 16.3 1.5 3 3.5 5.5 6.2 7.6 3.3 2.5 5.7 2.4 9.8 2.4 1.5 0 3-1.1 3.4-2.6 1.6-6.4-0.8-11.6-4.8-16.7 -1.5-2-3.5-4.9-6.5-4 -2.6 0.7-3.4 2.9-3.7 5.3 -1.7 12.4 9.1 22 18.8 27.4 1.6 0.9 4 0.5 4.8-1.3 -0.4 0.2-0.8 0.5-1.2 0.7 -0.9-0.1-1.8-0.2-2.7-0.4 0.7 0.4 1.1 1.1 1.5 1.7 1.6 2.4 5.7 2.3 6.4-0.8 0.1-0.5 0.3-1.1 0.4-1.6 1-4.4-5.7-6.3-6.7-1.9 -0.1 0.5-0.2 1.1-0.4 1.6 2.1-0.3 4.3-0.6 6.4-0.8 -2.1-3.2-7.1-7.6-9.7-2.1 1.6-0.4 3.2-0.8 4.8-1.3 -3.9-2.2-7.4-4.7-10.5-8 -1.8-1.9-3.3-4.2-4.2-6.6 -0.3-1-0.6-2-0.7-3 -0.2-1.4 1.1-3.6-0.5-2.6 -1.2 0-2.4 0-3.5 0 3.8 1.6 6.3 8.9 5.4 12.5 1.1-0.9 2.3-1.7 3.4-2.6 -4.6 0-6.9-1.3-9.3-5.4 -1.1-1.8-2.8-8.3 0-9.5 -0.9 0.1-1.8 0.2-2.7 0.4 2.9 0.4 6.9 7.9 8.7 10.3 2.7 3.5 5 7.2 6.2 11.5 2.1-0.9 4.3-1.8 6.4-2.7 -0.2-0.4-0.4-0.8-0.6-1.3 -2.1 0.9-4.3 1.8-6.4 2.7 0.2 0.4 0.4 0.8 0.6 1.3 2-1.1 3.9-2.3 5.9-3.4 -0.2-0.3-0.5-0.7-0.7-1 -1.8 1.4-3.7 2.8-5.5 4.2 0.3 0.3 0.7 0.7 1 1 -0.2-1.4-0.4-2.8-0.5-4.2 -0.6 1.4-6.2-0.1-7.2-0.4 -2.6-0.7-4.9-2.1-6.8-3.9 -2.5-2.3-2.7-5.3-2.9-8.5 -0.3-4.5-0.5-9-0.6-13.5 -1.5 1.1-3 2.3-4.4 3.4 10.3 3 17.3 10.3 23 19 1.2 1.8 5.9 9.3 1.5 9.5 -3.4 0.2-7.2-1.6-10.3-2.8 -3.1-1.2-6.7-2.2-9.4-4.3 -4.5-3.5-2.3-11.6-3.1-16.5 -1.4-8.2-6.7-13.8-13.3-18.3C74.2 106.9 70.7 112.9 74.4 115.5L74.4 115.5z" class="b"/><path d="M121.6 155.2c-2.3 4.8-11.6 0.8-15.2-0.6 -4.1-1.6-8.2-3.3-12.1-5.3 -4.3-2.2-4.4-5-4.4-9.5 0-4.5-7-4.5-7 0 0 5.2 0.4 9.8 4.5 13.4 4.6 3.9 11.5 5.9 17.1 8.1 6.9 2.7 19 6.1 23.1-2.6C129.6 154.7 123.5 151.1 121.6 155.2L121.6 155.2z" class="b"/><path d="M110.2 132.3c5.2 6.4 11.8 14.3 11.3 23 -0.2 4.5 6.8 4.5 7 0 0.6-10.7-6.9-20.1-13.4-27.9C112.3 123.9 107.4 128.9 110.2 132.3L110.2 132.3z" class="b"/><path d="M58 208.5c6.8-10.2 14.2-20 21.9-29.6 3.5-4.4 8.8-8.9 11.2-14 1.9-4.3 1.9-7.1 0.8-11.4 -0.8-3-4.8-3.3-6.4-0.8 -1.7 2.8-0.5 7.9 3.5 7.7 1.5-0.1 3-1 3.4-2.6 0.4-1.5 0-2.8-0.4-4.3 -0.8-2.4-4-3.6-5.8-1.5 -8.3 9.2-17.4 17.6-26.3 26.3 -1.9 1.9-3.9 2.7-6 4.2 -2 1.3-3.7 3.4-5.6 4.9 -2.3 1.9-4.9 3.5-7.4 5.1 -1.6 1-2.5 3.1-3.7 4.5 -1.1 1.3-1.6 3.7 0 5 2.5 2 7.1 4.4 10.5 4 5-0.5 7.8-3.2 10.9-7 8.3-10.1 16.5-20.2 24.7-30.4 2.8-3.4-1.7-8.2-4.9-4.9 -0.7 0.7-1.2 1.4-1.6 2.3 -0.8 1.7-0.5 3.8 1.3 4.8 0 0 0 0 0 0 1.7 1 3.7 0.3 4.8-1.3 0.4-0.5 0.7-1 1-1.6 1.8-3-1.8-6.5-4.8-4.8 -2.9 1.6-9.4 5.9-5.5 9.8 3.8 3.8 8.2-2.3 10.3-5 1.9-2.5-1.2-6-4-5.1 -7.1 2.3-12.1 9.3-16.7 14.8 -5.6 6.7-11.1 13.8-18.1 19.1 -3.6 2.7-0.1 8.8 3.5 6 6.3-4.7 11.5-10.4 16.5-16.5 2.4-2.9 4.8-5.8 7.2-8.5 2.6-3 5.6-6.9 9.5-8.1 -1.3-1.7-2.6-3.4-4-5.1 -0.4 0.6-1.7 2.7-2.4 2.9 0.9 0.1 1.8 0.2 2.7 0.4 -0.1 0-0.2-0.1-0.3-0.1 0.6 1 1.2 2 1.7 3 0.2 1.5 0.1 0.5 1.4-0.3 0.5-0.4 1.1-0.7 1.6-1 -1.6-1.6-3.2-3.2-4.8-4.8 -0.3 0.6-0.6 1.1-1 1.6 1.6-0.4 3.2-0.8 4.8-1.3 0 0 0 0 0 0 0.4 1.6 0.8 3.2 1.3 4.8 0.1-0.3 0.3-0.6 0.5-0.9 -1.6-1.6-3.3-3.3-4.9-4.9 -5.3 6.6-10.7 13.3-16.1 19.9 -2.9 3.5-5.7 7-8.6 10.5 -1.3 1.6-2.4 3.2-4.1 4.4 -1.6 1.1-6-0.3-7.4-1.4 0 1.7 0 3.3 0 5 3.3-4 7.1-6.5 11.1-9.6 3.9-3.1 8.1-5.6 11.6-9.1 8.8-8.7 17.9-17.1 26.3-26.3 -1.9-0.5-3.9-1-5.8-1.5 0.3 1.5 0.5 1.7 0.4 0.6 1.1-0.9 2.3-1.7 3.4-2.6 -0.1 0-0.1 0-0.2 0 0.8 0.3 1.7 0.7 2.5 1 0.1 0.6 0.2 1.2 0.3 1.8 -2.1-0.3-4.3-0.6-6.4-0.8 1.4 5.5-1.8 8.6-5.2 12.6 -3.3 4-6.6 8-9.8 12 -6.4 8.1-12.5 16.4-18.2 25C49.4 208.7 55.5 212.2 58 208.5L58 208.5z" class="b"/><path d="M82.5 147c-4.4 6.9-6.7 15.7-13.6 20.6 1.4 1.8 2.8 3.7 4.2 5.5 -0.4 0.4 0.9-0.4 0.3-0.1 -1.1-1.9-2.3-3.9-3.4-5.8 0.3-0.5-0.1-0.4-1.1 0.5 1.6 1.6 3.2 3.2 4.8 4.8 0.2-0.3 0.4-0.6 0.6-1 2.2-3.9-3.8-7.4-6-3.5 -0.2 0.3-0.4 0.6-0.6 1 -1.8 3.1 1.7 6.4 4.8 4.8 0.9-0.5 1.7-0.9 2.5-1.6 2.6-2.2-0.2-7.2-3.4-5.8 -1.2 0.5-2.3 1-3.3 1.9 -3 2.6 1 7.8 4.2 5.5 8.2-5.9 11-14.9 16.1-23.1C90.9 146.7 84.9 143.2 82.5 147L82.5 147z" class="b"/><path d="M89.2 226.8c10.5-1.1 14.3-14.1 17.8-22.3 4.7-10.9 9.1-21.9 16.1-31.6 -1.8 0.2-3.7 0.5-5.5 0.7 0-0.3 0.1-0.6 0.1-0.9 0.3-0.8 0.7-1.6 1-2.5 1-0.1 1.9-0.1 2.9-0.2 0.3 0.8 0.7 1.7 1 2.5 -0.3 0.6-0.5 1.1-0.8 1.7 -1.7-0.7-3.4-1.4-5.1-2.1 1.8 5.4-3.5 9.8-6.5 13.7 -3.8 5.1-6.5 10.6-8.8 16.5 -1.6 4-2.7 8.2-4 12.3 -0.5 1.8-1.1 3.8-2.3 5.3 1.1-1.3-1.1-3.9 0.9-5.6 3.4-2.9-1.5-7.9-4.9-4.9 -4.4 3.8-3.8 13.2 1.2 16.4 6.3 4 10-3.5 11.7-8.4 2.9-8.4 5.1-16.6 9.8-24.3 4.4-7.2 13-13.5 9.8-22.9 -0.6-1.9-3.2-3.5-5.1-2.1 -3.2 2.4-3.9 7.3 0.9 8.3 5.2 1.1 6.8-4.6 3.3-7.8 -1.8-1.6-4.1-1.2-5.5 0.7 -5.7 7.8-9.7 16.5-13.4 25.3 -1.8 4.2-3.6 8.4-5.5 12.6 -1.6 3.5-4.4 12.1-9 12.6C84.8 220.3 84.7 227.3 89.2 226.8L89.2 226.8z" class="b"/><path d="M70.4 215.2c5.4-8.3 11-16.4 16.5-24.6 2.7-4.1 5.4-8.2 8-12.4 2.1-3.3 5.6-12.6 9.6-13.4 -1.1-0.3-2.3-0.6-3.4-0.9 1 1.3-3 3.5-3 5.5 0 2.6-3.2 5.8-4.6 7.8 -4 5.7-8.2 11.3-11.7 17.3 -1.7 2.9-2.7 6.1-5.3 8.3 -2.3 2-3.5 3.9-5.1 6.4 -2.7 4.2-1.4 8.7 3.1 10.4 9 3.3 13.2-14.4 16.1-19 7.5-12.3 14.1-25.1 23.9-35.7 -1.8-0.2-3.7-0.5-5.5-0.7 0.1 0.1 0.1 0.2 0.2 0.4 0.1-0.9 0.2-1.8 0.4-2.7 1.7-1.8 3.1-1.9 4.2-0.5 0.1 0.9 0.2 1.8 0.4 2.7 -0.4 0.6-0.8 1.2-1.1 1.8 -1.5-1.1-3-2.2-4.4-3.4 0 1.4 0.4 2.5 0.8 3.8 0.1-0.9 0.2-1.8 0.4-2.7 -5.2 9.6-10.3 19.4-16 28.7 -2.7 4.4-6 8.2-8.5 12.8 -2.4 4.4-6 7.7-7.9 12.3 -0.5 1.1 0.1 2.6 0.9 3.4 0.3 0.3 0.7 0.7 1 1 1 1 3 1.5 4.2 0.5 9-7 14.1-15.7 19.4-25.6 5.9-11.1 11.5-22.4 18.8-32.6 -2.2-0.6-4.3-1.2-6.5-1.8 -0.1-0.8 0.2-1.3 0.9-1.4 1.3 1.7 2.6 3.4 4 5.1 0.2-0.5 0.6-1 1.1-1.3 -1.9-0.5-3.9-1-5.8-1.5 0.3 0.8 0.6 1.7 0.7 2.6 0.6 6.7 5.4-1.4 5.7-1.8 -2.1-0.3-4.3-0.6-6.4-0.8 2.4 6.8-4.5 12-8.4 16.8 -4.1 5.1-7.6 10.6-10.7 16.3 -2.8 5.1-4.9 9.8-8.7 14.3 -3.2 3.7-4.4 7.5-3.6 12.4 0.8 4.4 7.5 2.6 6.8-1.9 -0.8-4.7 4.7-8.4 7-12.1 3.7-5.6 6.1-12.2 9.8-17.9 5.7-8.8 18.8-18 14.6-29.8 -1.1-2.9-4.6-3.4-6.4-0.8 -2.3 3.3-3.8 10.7 2.5 10.7 5.4 0 5.4-6.1 3.9-9.9 -0.9-2.3-3.9-3.6-5.8-1.5 -0.7 0.8-1.8 1.7-2.2 2.7 -1.3 2.8 0.8 5.8 4 5.1 2.3-0.5 4.1-3.1 4.2-5.4 0.2-3.8-4.7-4.4-6.5-1.8 -6.3 8.8-11.4 18.3-16.3 27.9 -5.3 10.2-10.1 20.7-19.4 27.9 1.4 0.2 2.8 0.4 4.2 0.5 -0.3-0.3-0.7-0.7-1-1 0.3 1.1 0.6 2.3 0.9 3.4 1.1-2.6 3.3-3.9 4.6-6.2 1.4-2.4 2.7-4.9 4.1-7.4 2.9-5.1 6.8-9.6 9.8-14.7 3-5.2 5.9-10.5 8.7-15.8 1.4-2.7 2.9-5.4 4.4-8.1 1-1.8-0.2-2.9-0.1-4.6 0-2.4-2.2-3.8-4.4-3.4 -4.1 0.8-5.4 6-1.2 7.8 4.4 2 7.6-2.3 5.2-6.2 -1.1-1.9-3.9-2.4-5.5-0.7 -7.9 8.5-14 18.4-19.8 28.3 -2.7 4.5-6.1 9-7.4 14.1 -0.5 1.8-5 11.2-6.9 9.9 0.6 1 1.2 2 1.7 3 0-4.3 3.5-6.6 6.3-9.4 3-3.2 4.7-8.5 7.1-12.3 2.8-4.4 6-8.7 9-12.9 2.6-3.6 5.6-6.8 5.6-11.3 -0.6 1-1.2 2-1.7 3 5.1-3.2 6.6-8.7 2.7-13.5 -0.8-1-2.3-1.1-3.4-0.9 -4.2 0.8-6 3.5-8 7 -3.1 5.4-6.4 10.7-9.7 15.9 -6.7 10.4-13.7 20.5-20.5 30.8C61.9 215.4 67.9 218.9 70.4 215.2L70.4 215.2z" class="b"/><path d="M64.5 210.5c5.6-9.6 11.1-19.3 16.9-28.8 3.4-5.5 6.9-11.3 11.7-15.7 0.3-0.3 0.6-0.6 1-0.8 2.3-1.5-2.1 2.2-1.2-1.1 -0.4 1.6-2 3.3-3 4.6 -3.4 4.6-6.6 9.3-10.2 13.8 -6.9 8.8-13.8 17.5-17.2 28.3 -1.4 4.3 5.4 6.2 6.8 1.9 4.5-14.3 15.8-25.1 24.2-37.1 2.4-3.4 6.2-7.1 6.5-11.5 0.3-3.8-2.7-6.8-6.5-6.1 -6.8 1.1-12.1 10.8-15.4 16 -7 10.7-13.2 21.9-19.6 33C56.2 210.9 62.2 214.4 64.5 210.5L64.5 210.5z" class="b"/><path d="M75.8 215.2c-2.2-1.1-4.4-2.1-6.7-2.9 -1.8-0.6-3.8 0.7-4.3 2.4 -0.5 1.9 0.6 3.7 2.4 4.3 1.8 0.6 3.3 1.3 5.1 2.2 1.7 0.9 3.8 0.5 4.8-1.3C78 218.4 77.5 216.1 75.8 215.2L75.8 215.2z" class="b"/><path d="M121.6 163.1c-1.1 6.1-2.6 12.2-4.4 18.2 -1.3 4.3 5.5 6.2 6.8 1.9 1.8-6 3.3-12 4.4-18.2C129.2 160.5 122.4 158.7 121.6 163.1L121.6 163.1z" class="b"/><path d="M61.1 209.2c5.8-8.4 10.8-17.2 16.2-25.9 5.4-8.9 11.3-17.8 20-23.9 -1.4-0.2-2.8-0.4-4.2-0.5 4.7 3.8 10.4 2 15.1 5 5.4 3.6 11.8 1.3 17.5-0.4 4.3-1.3 2.5-8.1-1.9-6.7 -4.7 1.4-9 3.3-13.3 0.3 -3.7-2.5-9.1-0.4-12.5-3.1 -1.2-0.9-2.9-1.5-4.2-0.5 -18 12.6-26.5 34.7-38.7 52.3C52.5 209.4 58.5 212.9 61.1 209.2L61.1 209.2z" class="b"/><path d="M56.7 205.8c0-1.5 0.1-3 0.3-4.5 0.2-1.5-1.2-3-2.6-3.4 -1.8-0.5-3.9 0.6-4.3 2.4 -0.4 1.8-0.6 3.7-0.5 5.5 0.1 1.9 1.5 3.5 3.5 3.5 1.8 0 3.6-1.6 3.5-3.5 0-0.7 0-1.3 0-2 0-0.1 0.1-1.2 0-0.4 0.1-0.4 0.2-0.9 0.3-1.3 -2.3-0.3-4.6-0.6-6.9-0.9 -0.2 1.5-0.3 3-0.3 4.5 0 1.9 1.6 3.5 3.5 3.5C55.1 209.3 56.7 207.7 56.7 205.8L56.7 205.8z" class="b"/><path d="M43.6 190.5c0.3-0.2 1.8-1.5 2.1-1.6 -0.5-0.1-1-0.1-1.5-0.2 -0.6 0.5-1.2 1-1.8 1.5 0.4 0.1 0.9 0.2 1.3 0.3 2.5-2.1 5.3-3.9 7.5-6.3 0.5-0.6-1.4-0.4-1.8 0 -1.4 1.5-2.7 2.9-4.2 4.2 0.6 0 1.1 0.1 1.7 0.1 0.6-1 1.3-1.7 2.2-2.4 -0.5-0.1-1-0.2-1.5-0.2 -0.9 0.8-1.1 1-1.9 1.9 -0.6 0.6 1.2 0.4 1.5 0.2 2.7-1.7 5.1-3.8 7.1-6.4 0.5-0.7-1.4-0.3-1.7-0.1 -1.2 0.9-2.3 1.8-3.4 2.9 -0.6 0.6 1.1 0.4 1.3 0.3 3.1-1.3 5.4-3.7 7.9-5.8 0.8-0.7-1.1-0.6-1.5-0.2 -0.7 0.5-1.4 1.1-2 1.8 0.5 0.1 1 0.2 1.5 0.2 0.9-0.8 1.8-1.7 2.6-2.5 0.8-0.8-1-0.6-1.3-0.3 -1.5 0.9-2.7 2.1-4.1 3.2 -0.4 0.4-0.1 0.6 0.4 0.6 -0.4-0.1-0.7-0.2-1.1-0.2 0.5 0.1 1 0.1 1.5 0.2 1.3-2.1 4.2-3.8 6.1-5.4 2.7-2.3 5-4.9 7.7-7.1 -0.6 0-1.1 0-1.7 0 -0.4 2.6-3.5 4.2-5.4 5.7 -2.1 1.7-3.4 4.1-5.5 5.9 0.5 0.1 1 0.2 1.5 0.2 2.3-2.1 4.6-4.2 6.9-6.4 0.8-0.8-1.1-0.6-1.5-0.2 -2.2 2.2-4.6 4.2-6.9 6.4 -0.8 0.8 1.1 0.6 1.5 0.2 2.6-2.2 4.3-5 7-7 1.8-1.3 4-2.8 4.3-5.1 0.1-0.7-1.5-0.2-1.7 0 -2.7 2.2-5.1 4.8-7.7 7.1 -2 1.8-4.9 3.4-6.4 5.7 -0.5 0.8 1.2 0.3 1.5 0.2 0.3-0.2 0.7-0.3 1-0.5 0.6-0.3 0.4-0.7-0.2-0.7 1.6 0 2.7-1.7 3.9-2.4 -0.4-0.1-0.9-0.2-1.3-0.3 -0.9 0.8-1.7 1.7-2.6 2.5 -0.8 0.8 1.1 0.6 1.5 0.2 0.6-0.6 1.3-1.2 2-1.7 -0.5-0.1-1-0.2-1.5-0.2 -2.2 1.9-4.3 4.3-7.1 5.4 0.4 0.1 0.8 0.2 1.3 0.3 0.9-1 2-1.9 3.1-2.6 -0.6 0-1.1-0.1-1.7-0.1 -1.8 2.3-3.9 4.3-6.4 5.9 0.5 0.1 1 0.1 1.5 0.2 0.5-0.5 1.1-1.1 1.6-1.6 0.8-0.7-1.1-0.5-1.5-0.2 -1 0.8-1.7 1.5-2.5 2.6 -0.5 0.7 1.4 0.3 1.7 0.1 1.6-1.4 3-3 4.5-4.5 -0.6 0-1.2 0-1.8 0 -2.2 2.3-4.8 4-7.2 6 -0.8 0.7 1 0.6 1.3 0.3 1.3-0.8 1.3-0.8 2.4-2 0.6-0.6-1.3-0.3-1.5-0.2 -0.8 0.4-1.3 1.1-2.1 1.6C41.3 190.7 43 190.8 43.6 190.5L43.6 190.5z" class="b"/><path d="M30 200.2c0.1 0 0.3-0.1 0.4-0.1 0.1 0.4 0.2 0.9 0.4 1.3 0.1-0.1 0.2-0.1 0.3-0.2 -0.5-0.2-0.9-0.3-1.4-0.5 0 0.3 0 0.5 0 0.8 0.1 0.7 1.3 0.5 1.6 0.2 0.9-0.8 1.5-1.9 2.4-2.7 1-0.9-0.5-1.6-1.3-0.9 -0.4 0.3-0.7 0.7-1.1 1 -0.7 0.7 0 1.4 0.8 1.1 0.3-0.1 0.6-0.2 0.9-0.2 -0.3-0.3-0.7-0.7-1-1 -0.2 0.2-0.5 0.5-0.7 0.7 0.4 0.3 0.9 0.6 1.3 0.9 4-3.7 7.8-7.5 12.4-10.5 1.1-0.7-0.5-1.4-1.3-0.9 -4.5 3-8.4 6.8-12.4 10.5 -1 0.9 0.6 1.6 1.3 0.9 0.4-0.4 0.7-0.6 1-1 0.6-0.7-0.4-1.1-1-1 -0.3 0.1-0.6 0.2-0.9 0.3 0.3 0.4 0.6 0.8 0.8 1.1 0.4-0.3 0.8-0.7 1.1-1 -0.4-0.3-0.9-0.6-1.3-0.9 -0.9 0.8-1.5 1.9-2.4 2.8 0.5 0.1 1.1 0.1 1.6 0.2 0-0.1 0-0.3 0-0.4 0.1-0.7-1-0.8-1.4-0.5 -0.1 0.1-0.2 0.1-0.3 0.2 -0.8 0.5-0.6 1.3 0.4 1.3 0.4 0 0.7-0.2 1-0.4C32.3 200.3 30.7 199.6 30 200.2L30 200.2z" class="b"/><path d="M36 198.4c-2 0.1-4.4 1-5.3 3 -0.5 1.1 1 2.1 1.8 2.5 1.4 0.6 3.2 0.2 4.6-0.3 0.9-0.4 3.2-1.7 2.1-2.9 -0.3-0.4-0.1-1.1 0.1-1.5 0.1-0.2 0.3-0.4 0.4-0.6 0.5-0.6-0.4 0.3 0.2-0.2 0.2-0.2 0.4-0.3 0.5-0.5 -0.4 0.3-0.5 0.3-0.2 0.1 -0.6 0.3-0.7 0.3-0.4 0.2 0.8-0.3 3.3-1.7 2.1-2.9 -1.2-1.2-3.7-0.5-5.1 0 -2.7 0.9-7.7 5.2-5 8.3 2.2-1.1 4.5-2.2 6.7-3.3 -0.5-0.2 0.1 0.2-0.3-0.2 0.1 0.1 0 0.5 0.1 0.2 -0.3 0.4-0.5 0.7-0.8 1.1 -0.1 0.1-0.3 0.2-0.4 0.3 -0.6 0.3-1.3 0.5-1.9 0.8 -0.2 0-0.4 0.1-0.5 0.1 1.4-0.1 4-1 4.4-2.5C39.8 198.2 36.9 198.3 36 198.4L36 198.4z" class="b"/><path d="M34.1 201.6c-0.3 2.3 2.7 2.8 4.1 3.8 1.5-1.6 2.9-3.1 4.4-4.7 0 0-0.1 0-0.1 0 0.7 0.3 1.4 0.6 2.2 1 0 0-0.1-0.1-0.1-0.1 -1.9 1.4-3.9 2.7-5.8 4.1 2.4 0.5 6.2 2.1 8.3 3.4 1.5-1.6 2.9-3.1 4.4-4.7 -0.4-0.1-0.7-0.2-1.1-0.3 0.5 0.7 1.1 1.4 1.6 2.1 0 0 0-0.1 0-0.1 -1.8 1-3.5 2-5.3 3 1.2 0.2 2.2 1.1 3.3 1.6 2-1.4 4-2.8 6-4.2 -0.9-0.5-1.8-0.8-2.7-1.2 -1.5 1.6-3 3.3-4.6 4.9 5.9 2.1 11.3 5.4 17.3 7.4 3 1 9.1-3.4 4.6-4.9 -6-1.9-11.3-5.3-17.2-7.4 -3-1-9.1 3.2-4.6 4.9 0.4 0.2 0.8 0.4 1.3 0.5 2.7 1.4 9.7-2.3 6-4.2 -2.3-1.2-3.9-2.3-6.5-2.6 -1.6-0.2-5.3 0.8-5.3 3 0 0 0 0.1 0 0.1 0 1.2 0.6 1.7 1.6 2.1 1 0.4 1.8 0.6 2.9 0.7 2 0.2 7.8-2.5 4.4-4.7 -2.7-1.7-6.6-3.4-9.7-4.1 -1.4-0.3-8.7 1.6-5.8 4.1 0.8 0.7 1.4 1 2.4 1.1 2 0.2 7.8-2.6 4.4-4.7 -0.7-0.5-2.2-2-2.4-0.2C42.3 197.2 34.4 198.4 34.1 201.6L34.1 201.6z" class="b"/><path d="M41.8 199.9c-0.2 0-0.4 0-0.6 0 -1.4 0-4.4 1.3-4.3 3.1 0.1 1.5 0.5 2.5 1.8 3.4 1.5 1 4.2 0.7 5.5-0.5 -1 0.6-2 0.8-3 0.6 0.4 0.1 0.4 0.2 0.1 0 0.3 0.2 0.6 0.4 0.9 0.6 1.1-1.7 2.2-3.3 3.3-5 -0.5 0-0.3 0 0.5 0 0.5 0.2 1.1 0.4 1.6 0.6 -0.2-0.1-0.3-0.2-0.5-0.4 -1.7 1.6-3.5 3.2-5.2 4.8 -0.4-0.2 0.5 0.3 0.5 0.3 0.4 0.3 0.8 0.6 1.1 0.8 1.6 1.1 4.1 0.6 5.5-0.5 1.3-1 2-2.8 0.4-3.9 -1-0.7-1.9-1.4-3.1-1.9 -1.6-0.6-3.5-0.1-4.8 0.8 -1.4 1-1.9 2.7-0.4 3.9 1.1 0.9 2.3 1 3.6 1 2.1-0.1 6.3-3 3.3-5 -2.6-1.8-6.5-2.6-9.2-0.3 1.8-0.2 3.7-0.3 5.5-0.5 -0.5-0.3 0 0.1 0.1 0.4 -1.4 1-2.8 2.1-4.3 3.1 0.2 0 0.4 0 0.6 0 1.7 0 4-1.3 4.3-3.1C45.6 200.3 43.3 199.9 41.8 199.9L41.8 199.9z" class="b"/><path d="M101.7 208.2c-0.3-0.6-0.6-1.1-0.7-1.7 -0.2-1.1-2.5-0.9-3.2-0.8 -1 0.2-2 0.5-2.9 1 -0.4 0.2-1.5 0.8-1.5 1.4 -0.1 1.3-0.3 2.6-0.1 4 0.1 1.1 2.6 0.9 3.2 0.8 1-0.2 2-0.5 2.9-1 0.5-0.3 1.4-0.8 1.5-1.4 0.1-0.2 0.1-0.4 0.3-0.6 -2.3 0.8-4.6 1.5-7 2.3 2.4 1 5.3 0 7.3-1.3 1-0.7 1.4-1.9 1.9-2.9 0.7-1.5-2.6-1.3-3.2-1.2 -1.5 0.2-3.8 0.9-4.5 2.4 -0.1 0.3-0.3 0.6-0.4 1 0 0.1-0.3 0.6 0 0.1 -0.1 0.1-0.1 0.2-0.2 0.2 0.2-0.2 0.5-0.5 0.8-0.6 0.6-0.2 1.3-0.5 1.9-0.7 2.8 0.3 3.7 0.2 2.6-0.2 -1.1-0.4-2.5-0.2-3.5 0.1 -1.2 0.3-2.8 0.9-3.4 2.2 -0.1 0.2-0.2 0.4-0.2 0.6 2.6-0.5 5.1-1.1 7.7-1.6 -0.1-0.6-0.1-1.1 0-1.7 0 0.2 0 0.3 0 0.5 0-0.6 0.1-1.2 0.2-1.8 -2.6 0.5-5.1 1.1-7.7 1.6 0.1 0.6 0.5 1.2 0.8 1.8 0.6 1.4 3.2 0.8 4.3 0.6 0.9-0.2 1.8-0.6 2.6-1.2C101.2 209.4 102 208.8 101.7 208.2L101.7 208.2z" class="b"/><path d="M79.3 216.8c-0.3 0.1-0.6 0.2-0.9 0.2 1 0 1.9-0.1 2.9-0.1 -0.3-0.1-0.6-0.2-0.9-0.2 -1.6-0.4-3.4 0-4.8 0.9 -1 0.7-2.4 2.7-0.6 3.4 0.6 0.3 1.2 0.5 1.9 0.7 1.4 0.4 8.5-1.6 5.9-3.9 -1-0.9-1.8-1.4-3.1-1.7 -2-0.4-8.7 1.7-5.3 4.3 3.1 2.4 7 3.1 10.1 5.5 2.4 1.8 4.4 3.8 7.5 4.3 3.3 0.5 8.1-4.1 2.9-4.9 -1.2-0.2-4-3.3-5.4-4.3 -2.8-2-6.2-2.5-9-4.7 -1.8 1.4-3.6 2.9-5.3 4.3 0.2 0.1 0.4 0.2 0.6 0.3 2-1.3 3.9-2.6 5.9-3.9 -0.1 0-0.3-0.1-0.4-0.1 -1.8 1.4-3.6 2.9-5.3 4.3 1.7 0.4 3 0.4 4.8-0.1 1.3-0.3 3.7-1.5 3.3-3.3C83.3 216.2 80.5 216.5 79.3 216.8L79.3 216.8z" class="b"/><path d="M93.7 228.6c-0.1-0.1-0.1-0.1-0.2-0.1 -0.5-0.3-1.5-0.1-1.7 0.4 -0.2 0.7 0.7 1.3 1.1 1.7 0.5-0.3 1.1-0.6 1.6-1 -0.2-0.1-0.3-0.2-0.5-0.4 -0.5-0.3-1.7-0.1-1.7 0.6 0 0.1 0 0.2 0 0.3 0.5-0.2 1-0.5 1.5-0.7 -0.2-0.1-0.4-0.2-0.6-0.2 -0.5-0.2-2 0.3-1.4 1.1 0.7 1 1.7 1.6 2.8 2 0.6 0.2 1.6-0.1 1.5-0.9 -0.1-1.1-0.3-2.1 0.6-3 -0.6-0.1-1.2-0.1-1.8-0.2 -0.1 0.8-0.3 1.7-0.4 2.5 0 1 1.6 0.5 1.9 0 1-1.6 1.4-3.5 2.5-5 -0.6-0.1-1.2-0.1-1.8-0.2 0 0.7-0.2 1.2-0.4 1.8 -0.4 1 1.5 0.9 1.8 0.2 0.4-0.8 0.9-1.6 1.4-2.4 -0.6 0-1.3 0-1.9 0 -0.2 1.5-1.4 2.7-2.3 3.9 -0.8 1 1.1 1.2 1.6 0.5 1.1-1.4 2.4-2.8 2.7-4.6 0.2-1-1.6-0.5-1.9 0 -0.5 0.8-1 1.6-1.4 2.4 0.6 0.1 1.2 0.1 1.8 0.2 0.3-0.7 0.5-1.4 0.6-2.2 0.1-0.9-1.4-0.7-1.8-0.2 -1.2 1.6-1.7 3.6-2.7 5.3 0.6 0 1.3 0 1.9 0 0-0.8 0.2-1.7 0.4-2.5 0.2-1-1.4-0.5-1.8-0.2 -1.1 1.2-1.1 2.5-0.9 4 0.5-0.3 1-0.6 1.5-0.9 -0.9-0.3-1.6-0.8-2.2-1.5 -0.5 0.4-1 0.7-1.4 1.1 0.2 0.1 0.4 0.2 0.6 0.3 0.5 0.2 1.5-0.1 1.5-0.7 0-0.1 0-0.2 0-0.2 -0.6 0.2-1.1 0.4-1.7 0.6 0.2 0.1 0.3 0.3 0.5 0.4 0.5 0.4 2.3-0.3 1.6-1 -0.4-0.4-0.8-0.7-1.1-1.1 0 0.2 0 0.3 0 0.5 0 0 0 0 0 0 -0.6 0.1-1.1 0.3-1.7 0.4 0.1 0 0.1 0.1 0.2 0.2C92.9 230.2 94.6 229.3 93.7 228.6L93.7 228.6z" class="b"/><path d="M101.5 222.3c0.5-0.9 1-1.8 1.5-2.6 -0.6 0-1.2 0.1-1.9 0.1 -0.4 1.8-1.2 3.3-2.3 4.9 0.6 0 1.2-0.1 1.9-0.1 6.7-13.7 18.7-25.9 22.3-41 0.2-0.7-1.8-0.4-1.9 0.3 -3.6 15-15.5 27.3-22.2 41 -0.3 0.6 1.6 0.3 1.9-0.1 1.2-1.7 2-3.1 2.4-5.1 0.2-0.8-1.6-0.3-1.9 0.1 -0.5 0.9-1 1.8-1.5 2.6C99.2 223 101.2 222.8 101.5 222.3L101.5 222.3z" class="b"/><path d="M105.5 216.3c7.7-9.4 13.3-21.7 17.5-33.1 0.4-1.1-1.5-1.1-1.9-0.2 -4.1 11.2-9.7 23.4-17.3 32.7C103.1 216.7 105 217 105.5 216.3L105.5 216.3z" class="b"/><path d="M118.5 185.9c-2.5 3.8-4.2 8.2-6.5 12.2 -2.7 4.8-4.4 11.7-8.4 15.5 0.5 0.1 1.1 0.3 1.6 0.4 1-5.1 4.5-9.8 6.6-14.5 2.3-5.3 5.4-10.7 9-15.2 -0.6 0-1.2 0-1.8-0.1 1 3.3-2.7 6.8-4.3 9.5 -1.3 2.1-2.1 4.5-3.2 6.7 -1.3 2.5-3 4.3-3.9 7 -0.3 0.9 1.1 1.1 1.6 0.6 2.5-2.4 3.3-5.8 5.2-8.6 2.3-3.4 4.4-6.6 5-10.7 0.2-1-1.6-0.8-1.9-0.1 -0.5 1.2-0.9 2.5-1.4 3.8 -0.4 1.1 1.5 1.1 1.9 0.3 0.5-1.2 0.9-2.5 1.4-3.7 -0.6 0-1.3-0.1-1.9-0.1 -0.7 4.4-3.2 7.7-5.6 11.2 -1.5 2.3-1.9 5-4 7 0.5 0.2 1.1 0.4 1.6 0.6 0.9-2.6 2.6-4.6 3.9-7 1.5-2.7 2.4-5.6 4.1-8.1 1.6-2.5 4.4-5.6 3.4-8.8 -0.2-0.8-1.4-0.5-1.8-0.1 -3.4 4.2-6.1 9.1-8.4 13.9 -2.6 5.2-6.4 10.9-7.5 16.6 -0.2 0.8 1.2 0.8 1.6 0.4 2.9-2.8 4.1-6.7 6-10.2 3-5.8 5.7-12.4 9.3-17.8C120.9 185.6 119.1 185.1 118.5 185.9L118.5 185.9z" class="b"/><path d="M68.3 170c-0.7-1.8 3-3.6 4.1-4.6 2.6-2.5 4.6-6 6.8-8.9 0.7-1-1.1-1.1-1.6-0.5 -0.2 0.2-0.3 0.4-0.5 0.6 0.6 0.1 1.1 0.2 1.7 0.3 0.8-1.3 1.8-2.3 2.9-3.3 0.9-0.8-1-1.1-1.6-0.5 -1.2 1.2-2.2 2.3-3.1 3.7 -0.5 0.9 1.3 0.8 1.7 0.3 0.2-0.2 0.3-0.4 0.5-0.6 -0.5-0.2-1.1-0.3-1.6-0.5 -2.4 3.2-4.7 7.4-8 9.9 -1.4 1-3.9 2.6-3.2 4.6C66.7 171.4 68.6 170.8 68.3 170L68.3 170z" class="b"/><path d="M79.7 111.9c0.2 0 0.5 0.1 0.7 0.1 0.7 0.2 2.3-0.8 1.2-1.1 -0.8-0.3-1.5-0.6-2.3-0.9 -0.4 0.4-0.7 0.7-1.1 1.1 2.8 0.1 5.1 1.7 7.7 2.6 3.5 1.3 7 2.5 10.3 4.1 6.6 3.3 13.6 6.2 18.1 12.2 0.5 0.6 2.3-0.1 1.8-0.8 -4.7-6.1-11.7-8.9-18.4-12.4 -3.7-1.9-7.6-3.1-11.5-4.6 -2.4-1-4.6-2.3-7.3-2.3 -0.4 0-2 0.7-1.1 1.1 1.3 0.6 1.3 0.6 2.7 1.1 0.4-0.4 0.8-0.8 1.2-1.1 -1.5-0.4-1.8-0.4-3.1 0.4C77.4 111.8 79 112.3 79.7 111.9L79.7 111.9z" class="b"/><path d="M80.8 112.8c2.4 0.8 3.8 2.6 6.3 3.3 0.8 0.2 2.3-0.8 1.1-1.3 -1.4-0.4-2.6-1-3.6-2 -0.4 0.4-0.9 0.8-1.3 1.2 1 0.4 2 0.8 2.9 1.2 0.4-0.4 0.9-0.8 1.3-1.2 -1.3-0.2-2.4-0.8-3.4-1.5 -0.5 0.4-1 0.7-1.5 1.1 2.6 1.4 4.9 2.7 7.8 3.3 0.6 0.1 1.9-0.7 1.1-1.2 -0.7-0.5-1.5-1-2.2-1.4 -0.4 0.4-0.9 0.8-1.3 1.2 5.5 1.9 12.2 3.6 16.5 7.8 1.3 1.3 2.6 2.3 4.2 3.2 1.1 0.6 1.3 2.2 2.4 3 0.5 0.3 2 0 1.7-0.8 -1.6-3.8-5-4.7-7.2-7.8 -0.5 0.4-1 0.7-1.4 1.1 4 1.1 7.5 5.2 9.7 8.5 0.5 0.7 2.3 0 1.8-0.8 -2.3-3.5-6.1-7.8-10.3-9 -0.5-0.1-2 0.3-1.4 1.1 2.1 2.9 5.5 3.8 7 7.5 0.6-0.3 1.1-0.5 1.7-0.8 -1-0.7-1.4-2.1-2.4-3 -2-1.6-4.1-3.3-6.2-4.9 -4.1-3.3-10.1-4.6-14.9-6.3 -0.6-0.2-2.2 0.7-1.3 1.2 0.8 0.4 1.5 0.9 2.3 1.4 0.4-0.4 0.7-0.8 1.1-1.2 -2.6-0.5-4.7-1.7-7-3 -0.7-0.4-2.4 0.5-1.5 1.1 1.3 0.8 2.3 1.4 3.8 1.7 0.5 0.1 2.3-0.7 1.3-1.2 -1.8-0.9-1.4-0.8-3.3-1.3 -0.6-0.2-2.2 0.5-1.3 1.2 1.3 1.1 2.4 1.6 3.9 2.2 0.4-0.4 0.8-0.8 1.1-1.3 -2.5-0.7-3.9-2.4-6.2-3.2C81.1 111.2 79.6 112.4 80.8 112.8L80.8 112.8z" class="b"/><path d="M83.3 115.6c0.7 1.1 2.1 1.9 3.1 2.8 0.5 0.4 2.3-0.2 1.8-0.8 -0.5-0.5-1-1-1.5-1.5 -0.6 0.3-1.1 0.6-1.7 0.8 0.8 0.4 1.6 0.7 2.4 0.9 0.4 0.1 2-0.3 1.5-0.9 -0.3-0.5-0.7-0.9-1.1-1.2 -0.5-0.4-2.3 0.3-1.8 0.8 0.5 0.5 1.1 0.8 1.8 1.1 0.4 0.2 2.3-0.3 1.7-0.8 -0.3-0.3-0.6-0.5-0.9-0.7 -0.6 0.3-1.1 0.6-1.7 0.8 0.1 0.1 0.1 0.1 0.2 0.2 0.6-0.2 1.2-0.4 1.9-0.6 -0.6-0.7-1.3-1.1-2.2-1.3 -0.4-0.1-1.9 0.2-1.5 0.9 0.2 0.4 0.5 0.7 0.8 1 0.6-0.2 1.2-0.5 1.8-0.8 -0.5-0.3-0.9-0.8-1.4-1.1 -0.4 0.3-0.8 0.6-1.3 0.9 1.1 0 2 0.5 3 0.8 0.4 0.2 1 0.1 1.4-0.2 0.2-0.1 0.6-0.6 0.2-0.7 -1.3-0.4-2.4-0.9-3.8-1 -0.2 0-1.8 0.5-1.3 0.9 0.5 0.4 0.9 0.8 1.4 1.1 0.5 0.3 2.3-0.2 1.8-0.8 -0.3-0.3-0.5-0.6-0.7-1 -0.5 0.3-1 0.6-1.5 0.9 0.7 0.1 1.1 0.5 1.6 1 0.4 0.4 2.1 0 1.9-0.6 -0.1-0.3-0.3-0.4-0.6-0.6 -0.4-0.2-2.2 0.4-1.7 0.8 0.3 0.2 0.6 0.5 0.9 0.8 0.6-0.3 1.1-0.6 1.7-0.8 -0.6-0.2-1-0.5-1.5-0.9 -0.6 0.3-1.2 0.5-1.8 0.8 0.4 0.4 0.8 0.8 1.1 1.3 0.5-0.3 1-0.6 1.5-0.9 -0.7-0.2-1.4-0.5-2.1-0.8 -0.4-0.2-2.2 0.2-1.7 0.8 0.5 0.5 1 1 1.5 1.5 0.6-0.2 1.2-0.5 1.8-0.8 -1-0.8-2.4-1.6-3.1-2.7C84.8 114.4 82.9 115 83.3 115.6L83.3 115.6z" class="b"/><path d="M52.5 97.4c0.2 3.9 4.3 6 7.3 7.7 5.7 3.2 11 6.7 16.1 10.8 0.6 0.5 2.3-0.4 1.5-1 -4.3-3.4-8.7-6.8-13.5-9.4 -3.5-1.9-9.3-4-9.5-8.6C54.4 96.1 52.5 96.6 52.5 97.4L52.5 97.4z" class="b"/><path d="M59.6 90.9c0 1.9 0 3.7 0.3 5.6 0.1 0.4 2 0 1.9-0.5 -0.2-1.8-0.2-3.5 0.5-5.3 -0.5 0.2-1.1 0.4-1.6 0.6 -0.4 0-0.6 5.1-0.6 5.7 0.1 2.5 1.5 4.4 3 6.2 3.7 4.1 10 5.3 14.5 8.4 0.5 0.3 2.1-0.5 1.8-0.7 -3.6-2.5-7.9-3.9-11.7-6.2 -5.6-3.3-6.3-8.2-5.1-14 0-0.2-0.2-0.2-0.3-0.2 -0.1 0-0.2 0-0.4 0 -0.4 0-1.4 0.1-1.6 0.6 -0.7 1.8-0.7 3.5-0.5 5.5 0.6-0.2 1.3-0.3 1.9-0.5 -0.3-1.9-0.3-3.7-0.2-5.6C61.6 90 59.6 90.3 59.6 90.9L59.6 90.9z" class="b"/><path d="M57.7 93.7c-2 3 2 7 3.9 9 3.8 4.2 8.1 6.5 12.9 9.2 0.4-0.4 0.7-0.8 1.1-1.3 -2-0.1-3-0.9-4.5-2 -0.7-0.5-2.4 0.4-1.5 1.1 0.6 0.5 1.2 1 1.8 1.5 0.5 0.5 2.3-0.3 1.6-1 -2.3-2.6-5-4.6-7.2-7.2 -2.5-3-4.9-6.8-6.5-10.4 -0.4-0.9-2.3-0.3-1.9 0.5 1.3 3.1 3.3 6.1 5.3 8.9 2.4 3.5 5.8 5.9 8.6 9 0.5-0.3 1.1-0.7 1.6-1 -0.6-0.5-1.1-1-1.7-1.5 -0.5 0.4-1 0.7-1.5 1.1 1.7 1.2 3.2 2.1 5.3 2.3 0.5 0 2-0.7 1.1-1.3 -4-2.2-7.9-4-11.2-7.3 -1.8-1.9-7.2-6.6-5.3-9.5C60.1 93 58.1 93 57.7 93.7L57.7 93.7z" class="b"/><path d="M53.4 96.8c-0.1 1.6 0.6 2.8 1.7 3.9 0.5 0.5 2.1 0.3 1.8-0.7 -0.2-0.8-0.6-1.6-0.9-2.4 -0.6 0.3-1.1 0.5-1.7 0.8 0.5 0.5 1 1.1 1.5 1.6 0.5 0.5 2.1 0.2 1.8-0.7 -0.3-1.1-0.7-2.2-0.7-3.3 -0.6 0.2-1.2 0.3-1.9 0.5 0.8 0.9 1.2 1.8 1.8 2.9 0.6-0.3 1.2-0.6 1.8-0.9 -0.7-0.6-1.3-0.9-2.2-1 -0.4-0.1-1.6 0.3-1.3 1 0.5 1.1 1.1 1.9 2 2.8 0.4-0.4 0.8-0.8 1.2-1.1 -0.4-0.1-0.7-0.2-1.1-0.2 -0.5-0.1-1.5 0.3-1.3 1 0.3 1.2 1.2 1.9 2.4 2.3 0.5 0.2 2.1-0.4 1.4-1.1 -1-1-1-2.3-1.4-3.6 -0.5 0.3-1 0.6-1.5 0.9 1.3 0.4 1.6 1.6 2.3 2.6 0.5-0.4 1-0.7 1.4-1.1 -0.4-0.2-0.9-0.4-1.3-0.7 -0.5-0.3-2 0-1.7 0.8 0.6 1.7 2.2 2.4 3.7 3.3 0.4-0.4 0.9-0.8 1.3-1.2 -0.1 0-0.2-0.1-0.4-0.1 -0.5-0.2-2.1 0.4-1.4 1.1 1 1 2.2 1.6 3.3 2.5 0.6 0.5 2.3-0.3 1.6-1 -2-1.9-4.5-3.5-5.7-6.1 -0.6 0.3-1.1 0.5-1.7 0.8 1 0.7 1.5 1.9 2.4 2.8 0.6 0.6 2.3-0.4 1.5-1.1 -0.9-0.8-1.3-2-2.4-2.7 -0.5-0.3-2.1 0-1.7 0.8 1.3 2.8 3.7 4.4 5.8 6.4 0.5-0.3 1.1-0.7 1.6-1 -1-0.8-2.1-1.4-3-2.2 -0.5 0.4-1 0.7-1.4 1.1 0.1 0 0.3 0.1 0.4 0.1 0.6 0.2 2.3-0.7 1.3-1.2 -1.2-0.7-2.7-1.3-3.3-2.7 -0.6 0.3-1.1 0.5-1.7 0.8 0.6 0.3 1.1 0.6 1.7 0.8 0.6 0.3 1.9-0.3 1.4-1.1 -0.9-1.3-1.3-2.6-3-3.1 -0.5-0.1-1.8 0.1-1.5 0.9 0.5 1.4 0.5 2.8 1.6 3.9 0.5-0.4 1-0.7 1.4-1.1 -0.8-0.3-1.4-0.6-1.6-1.5 -0.4 0.3-0.9 0.6-1.3 1 0.4 0.1 0.8 0.2 1.1 0.3 0.5 0.1 1.8-0.5 1.2-1.1 -0.7-0.8-1.3-1.5-1.8-2.5 -0.4 0.3-0.9 0.6-1.3 1 0.4 0.2 0.7 0.3 1.1 0.5 0.6 0.6 2.2 0.1 1.8-0.9 -0.5-1-1-2-1.7-2.9 -0.4-0.5-1.9-0.3-1.9 0.5 0 1.3 0.4 2.4 0.8 3.7 0.6-0.2 1.2-0.5 1.8-0.7 -0.6-0.6-1.1-1.3-1.8-1.9 -0.5-0.4-2 0.1-1.7 0.8 0.3 0.8 0.7 1.5 0.9 2.4 0.6-0.2 1.2-0.5 1.8-0.7 -0.9-0.9-1.6-1.8-1.5-3.1C55.4 95.7 53.4 95.9 53.4 96.8L53.4 96.8z" class="b"/><path d="M82.5 122.3c-1-0.8-1-1.8-1.3-2.9 -0.6 0.2-1.3 0.3-1.9 0.5 1.5 1.9 2 4.1 2.8 6.3 1 2.7 2.3 5.2 2.7 8.1 0.1 0.4 2 0 1.9-0.5 -0.4-2.6-1.4-4.9-2.4-7.2 -1-2.4-1.5-5-3.1-7.1 -0.3-0.4-2.1 0.1-1.9 0.5 0.3 1.2 0.4 2.2 1.4 3.1C81.1 123.3 82.8 122.6 82.5 122.3L82.5 122.3z" class="b"/><path d="M38.8 69.8c-0.7-2.1 3.7-5.6 5-6.9 2.9-3 6.4-5.3 9.2-8.4 0.8-0.8-1.1-0.9-1.6-0.4 -3.1 3.3-6.9 5.9-10.1 9.3 -1.3 1.4-5.2 4.7-4.5 6.9C37.1 71 39.1 70.5 38.8 69.8L38.8 69.8z" class="b"/><path d="M39.9 68c0.6-2 2.5-3 3.8-4.5 0.6-0.7-1.4-0.4-1.7-0.1 -1 0.7-1.8 1.6-2.7 2.4 0.6 0 1.1 0.1 1.7 0.1 3-3.9 6.7-7.6 10.9-10 1.1-0.6-0.6-0.9-1.2-0.5 -4.5 2.5-8.4 6.4-11.6 10.5 -0.6 0.7 1.4 0.4 1.7 0.1 1-0.7 1.8-1.6 2.8-2.4 -0.6 0-1.1-0.1-1.7-0.1 -1.4 1.6-3.3 2.6-3.9 4.8C37.8 68.9 39.8 68.6 39.9 68L39.9 68z" class="b"/><path d="M42.6 66.6c0.7-1.3 1.5-2.5 2.5-3.6 -0.6-0.1-1.1-0.2-1.7-0.3 -0.7 1.2-1.6 2.3-2.5 3.5 0.5 0.2 1.1 0.3 1.6 0.5 1.2-1.6 2.3-3.2 3.8-4.5 -0.5-0.1-1.1-0.2-1.6-0.3 -0.4 1.3-1.3 2.3-1.8 3.6 -0.4 1 1.5 0.8 1.8 0.1 0.9-1.8 1.5-3.8 2.9-5.3 -0.6-0.1-1.1-0.2-1.7-0.3 -0.2 0.3-0.5 0.7-0.7 1 -0.6 0.8 1.3 0.7 1.7 0.3 0.1-0.1 0.3-0.2 0.4-0.4 -0.5-0.2-1.1-0.3-1.6-0.5 -0.5 0.6-1 1.2-1.5 1.9 -0.7 0.9 1.1 1.1 1.6 0.5 0.5-0.6 1-1.3 1.5-1.9 0.8-0.9-1.1-1-1.6-0.5 -0.1 0.1-0.2 0.3-0.4 0.4 0.6 0.1 1.1 0.2 1.7 0.3 0.2-0.3 0.5-0.7 0.8-1 0.6-0.8-1.3-0.8-1.7-0.3 -1.5 1.7-2.1 3.7-3.1 5.7 0.6 0 1.2 0.1 1.8 0.1 0.6-1.4 1.5-2.5 1.9-3.9 0.2-0.8-1.3-0.5-1.6-0.3 -1.7 1.4-2.9 3.1-4.2 4.8 -0.7 1 1.1 1.1 1.6 0.5 1-1.2 1.9-2.5 2.7-3.8 0.5-0.9-1.3-0.7-1.7-0.3 -1.1 1.2-2 2.5-2.7 3.9C40.3 67.3 42.3 67.2 42.6 66.6L42.6 66.6z" class="b"/><path d="M37.9 69.9c-0.3 0.1-0.6 0.3-0.9 0.4 0.5 0.1 0.9 0.2 1.4 0.2 0-0.1-0.1-0.2-0.1-0.4 -0.3-0.8-1.8-0.3-1.9 0.4 -0.5 2.8-2.5 5.2-2.2 8.2 0.4 3.6 1.8 6.8 3.7 9.9 4.1 6.6 11.9 11.1 18.8 14.2 0.7 0.3 2.4-0.6 1.5-1 -6.3-2.8-12-6.5-16.7-11.6 -2.3-2.6-3.8-5.7-4.9-9 -1.3-4.1 0.9-7 1.7-10.8 -0.6 0.1-1.3 0.2-1.9 0.4 0 0.1 0.1 0.3 0.1 0.4 0.2 0.5 1 0.4 1.4 0.2 0.3-0.1 0.6-0.2 0.9-0.4C40 70.4 38.9 69.5 37.9 69.9L37.9 69.9z" class="b"/><path d="M39.6 86.4c-2.4 2.6 11.6 12 13.5 13.6 0.4 0.4 2.3-0.2 1.8-0.7 -1.1-1.3-2.4-2.5-3.6-3.7 -1.5-1.3-2.4-3.1-3.7-4.6 -0.4-0.4-2 0-1.9 0.6 0.3 1.2 0.9 2.1 1.4 3.3 0.6-0.2 1.2-0.5 1.7-0.7 -0.8-0.4-1.3-0.6-2.2-0.7 -0.3 0-2 0.3-1.5 0.9 0.7 0.7 1.4 1.4 2.1 2 0.6-0.3 1.1-0.5 1.7-0.8 -1.3-0.8-2.4-1.6-3.5-2.7 -0.6 0.2-1.2 0.5-1.8 0.7 0.1 0.1 0.2 0.2 0.3 0.3 0.4 0.4 2.1-0.1 1.9-0.6 -0.5-0.9-1-1.7-1.6-2.6 -0.6 0.2-1.2 0.5-1.8 0.7 0.9 1 1.7 2.1 2.6 3 0.5 0.4 2.3-0.3 1.8-0.7 -1-0.9-1.8-2-2.6-3 -0.4-0.5-2.2 0.1-1.8 0.7 0.5 0.8 1 1.6 1.4 2.4 0.6-0.2 1.2-0.4 1.9-0.6 -0.1-0.1-0.2-0.2-0.2-0.2 -0.4-0.4-2.3 0.3-1.8 0.7 1.1 1.1 2.4 2 3.8 2.8 0.4 0.3 2.2-0.4 1.7-0.8 -0.8-0.6-1.5-1.3-2.1-2 -0.5 0.3-1 0.6-1.5 0.9 0.7 0 1.3 0.2 1.8 0.6 0.3 0.2 2-0.1 1.7-0.7 -0.5-1.1-1.1-2.1-1.4-3.2 -0.6 0.2-1.2 0.4-1.9 0.6 1.1 1.3 2 2.7 3.1 4 1.3 1.5 3 2.7 4.3 4.3 0.6-0.2 1.2-0.5 1.8-0.7 -1.6-1.4-15.2-11.1-13.5-12.9C41.9 85.8 40 86 39.6 86.4L39.6 86.4z" class="b"/><path d="M76.2 73.1c-1.1 2.7-4.5 3.8-6.5 5.7 -2.5 2.4-4.8 5.1-6.3 8.2 -0.2 0.4 1.4 0 1.5-0.1 1.7-0.7 2.5-1.9 3.7-3.3 0.1-0.2-1.5 0-1.8 0.3 -0.5 0.4-0.9 0.8-1.4 1.3 -0.4 0.4 1.4 0.1 1.6-0.1 3.9-2.4 6.9-6.1 10.9-8.4 0.9-0.5 6.4-3.2 5.1-4.7 -0.4-0.4-2 0.4-1.9 0.5 1.2 1.4-4.5 4.1-5.6 4.7 -3.7 2.1-6.4 5.6-10 7.9 0.5 0 1.1-0.1 1.6-0.1 0.4-0.5 0.9-0.9 1.4-1.2 -0.6 0.1-1.2 0.2-1.8 0.3 -0.8 1-1.6 2.2-2.8 2.7 0.5 0 1-0.1 1.5-0.1 1.7-3.4 4.2-6.6 7.3-9 1.9-1.5 4.6-2.6 5.6-4.9C78.2 72.4 76.4 72.6 76.2 73.1L76.2 73.1z" class="b"/><path d="M68.3 83.2c0.6-1.2 1.3-2 2.4-2.8 -0.6 0-1.1 0.1-1.7 0.1 -0.3 0.6-0.7 1.2-1.2 1.7 0.6 0 1.2-0.1 1.7-0.1 0.8-0.9 1.5-1.8 2.4-2.6 0.4-0.4-1.4-0.1-1.7 0.1 -0.8 0.6-1.5 1.3-2.2 2 0.6 0 1.2-0.1 1.7-0.1 1.9-1.7 3.6-3.5 5.9-4.7 -0.4-0.1-0.9-0.1-1.3-0.2 -1 0.6-1.8 1.3-2.8 2 0.6 0 1.2-0.1 1.7-0.1 1.9-1.9 3.7-3.9 6.1-5.3 -0.5 0-1.1 0-1.6 0 -1 1.1-3.1 3.4-4.6 3.7 0.3 0.1 0.5 0.1 0.8 0.2 0 0 0-0.1 0-0.1 0.1-0.3-1.7-0.2-1.9 0.3 -0.3 0.5-1.4 1.2-1.8 1.6 -0.5 0.5 1.4 0.1 1.6 0 0.2-0.1 0.4-0.2 0.6-0.4 -0.5 0-1.1 0-1.6 0 -0.5 0.6-0.9 1.2-1.2 2 -0.2 0.5 1.4 0 1.5 0 3-1.6 4.8-4.6 7.8-6.1 -0.5 0-1 0-1.4-0.1 -0.5 0.5-1 0.9-1.5 1.4 -0.5 0.4 1.2 0.1 1.4 0.1 1-0.5 1.9-1.1 2.9-1.7 -0.5 0-1 0-1.5-0.1 -1.4 0.8-2.7 1.6-4 2.5 0.5 0 1.1 0 1.6 0 0.4-0.3 0.8-0.7 1.1-1 0.4-0.4-1.4-0.1-1.7 0.1 -0.2 0.2-0.5 0.4-0.7 0.6 -0.5 0.4 1.4 0.1 1.6 0 1.2-0.7 2.3-1.6 3.5-2.2 0.8-0.5-1.1-0.3-1.5-0.1 -1.2 0.7-2.3 1.6-3.5 2.3 0.5 0 1.1 0 1.6 0 0.3-0.2 0.5-0.4 0.8-0.6 -0.6 0-1.2 0.1-1.7 0.1 -0.4 0.3-0.7 0.7-1.1 1 -0.5 0.4 1.3 0.1 1.6 0 1.3-0.9 2.6-1.7 4-2.5 0.8-0.5-1.1-0.3-1.5-0.1 -0.9 0.5-1.7 1.1-2.6 1.5 0.5 0 1 0 1.4 0.1 0.5-0.4 1-0.9 1.5-1.4 0.5-0.5-1.2-0.2-1.4-0.1 -3 1.5-4.8 4.5-7.7 6.1 0.5 0 1 0 1.5 0 0.2-0.7 0.6-1.3 1-1.8 0.5-0.5-1.4-0.1-1.6 0 -0.2 0.1-0.4 0.3-0.6 0.4 0.5 0 1.1 0 1.6 0 0.6-0.5 1.7-1.1 2-1.8 0.1-0.3-1.7-0.2-1.9 0.3 0 0 0 0.1 0 0.1 -0.2 0.3 0.7 0.2 0.8 0.2 2.5-0.4 5.1-2.7 6.7-4.6 0.5-0.5-1.4-0.1-1.6 0 -2.5 1.4-4.4 3.5-6.4 5.5 -0.5 0.5 1.5 0.1 1.7-0.1 0.8-0.6 1.6-1.3 2.5-1.8 0.8-0.5-1-0.3-1.3-0.2 -2.6 1.3-4.5 3.1-6.6 5.1 -0.4 0.4 1.4 0.2 1.7-0.1 0.7-0.7 1.5-1.4 2.3-2 -0.6 0-1.2 0.1-1.7 0.1 -0.9 0.8-1.6 1.7-2.4 2.6 -0.4 0.5 1.5 0.2 1.7-0.1 0.5-0.6 1-1.1 1.3-1.8 0.2-0.4-1.5 0-1.7 0.1 -1.2 0.9-2.2 1.8-2.8 3.2C66.3 83.9 68.1 83.7 68.3 83.2L68.3 83.2z" class="b"/><path d="M79.2 72.7c-1.2 0.6-2.1 1.2-2.9 2.3 -0.5 0.8 1 0.8 1.3 0.7 0.5-0.2 0.9-0.5 1.3-0.8 -0.4-0.3-0.8-0.6-1.3-0.8 -0.7 0.6-1.4 1.3-2.1 1.9 -1 0.9 0.5 1.3 1.3 0.8 0.9-0.6 1.7-1.3 2.8-1.7 1.1-0.4 0.3-1.4-0.6-1.2 -2.3 0.6-4.4 2.3-6.3 3.6 -1.1 0.7 0.5 1.4 1.3 0.8 0.7-0.5 1.4-0.9 2.2-1.4 1-0.6 2.1-1.5 3.2-1.8 -0.2-0.4-0.4-0.8-0.6-1.2 -1.2 0.5-2.2 1.3-3.2 2 0.4 0.3 0.8 0.6 1.3 0.8 0.7-0.6 1.4-1.3 2.1-1.9 1-0.9-0.5-1.3-1.3-0.8 -0.3 0.2-0.6 0.3-0.9 0.5 0.4 0.2 0.9 0.4 1.3 0.7 0.5-0.7 1.2-1.1 1.9-1.4C81.2 73.2 80.1 72.2 79.2 72.7L79.2 72.7z" class="b"/><path d="M83.9 70.9c-1 0.2-1.9 0.7-2.7 1.4 -0.5 0.4 1.3 0.1 1.4 0 0.7-0.3 1.3-0.6 1.9-1 0.6-0.4-0.3-0.4-0.6-0.4 -1 0.2-1.9 0.4-2.8 1 0.5 0 1 0 1.5 0 0.6-0.4 1.3-0.7 1.9-1.1 0.2-0.1 0.4-0.3 0.1-0.4 -1.3-0.3-2.8 0.1-3.7 1.1 -0.2 0.2 0 0.3 0.2 0.3 1 0 1.9-0.2 2.8-0.6 -0.5 0-1 0-1.4 0 -0.5 0.5-1.1 0.9-1.6 1.4 -0.5 0.4 1.1 0.2 1.2 0.1 0.9-0.3 1.7-0.7 2.5-1.2 -0.5 0-1 0-1.5 0 -0.7 0.5-1.5 1-2.2 1.5 -0.6 0.4 0.2 0.4 0.6 0.4 1.4-0.3 2.5-0.9 3.7-1.6 -0.5 0-1.1 0-1.6 0.1 -0.6 0.6-1.4 1-2.1 1.5 -0.8 0.5 1 0.2 1.3 0.1 0.6-0.3 1.2-0.6 1.9-0.9 -0.4-0.1-0.7-0.2-1.1-0.2 -0.8 0.4-1.6 0.8-2.4 1.3 -1.1 0.6 0.7 0.4 1.1 0.2 0.5-0.3 1.1-0.5 1.6-0.7 -0.5 0-1 0-1.4 0 -0.4 0.3-0.8 0.6-1.3 0.8 -1 0.4 0.2 0.5 0.6 0.4 0.7-0.2 1.4-0.5 2.1-0.8 -0.4 0-0.9-0.1-1.3-0.1 -0.8 0.4-1.7 0.8-2.6 1.2 -1.2 0.5 0.7 0.4 1.1 0.2 1.8-0.7 3.7-1.1 5.5-1.7 0.2-0.1 1.4-0.7 0.6-0.7 -0.2 0-0.5 0-0.7 0 -0.3 0.2-0.5 0.5-0.8 0.7 0.9-0.1 1.8-0.2 2.8-0.4 0.1-0.2 0.2-0.5 0.4-0.7 -0.4 0.1-0.7 0.2-1.1 0.3 -0.1 0-1.6 0.6-1 0.7 1 0.2 2.2 0.1 2.9-0.6 0.8-0.8 0-2.5-0.4-3.2 -0.2-0.4-2 0.1-1.9 0.5 0 0.4 0.2 1.7-0.2 1.8 -0.5 0.1-1.1 0.1-1.6 0.2 -1.1 0.2-2.1 0.6-2.9 1.5 -0.3 0.3 0.3 0.3 0.5 0.3 1-0.1 1.9-0.3 2.9-0.5 0.2 0 1.8-0.7 0.8-0.7 -0.1 0-0.2 0-0.4 0 -0.2 0.2-0.4 0.4-0.6 0.7 0.8-0.2 1.6-0.4 2.4-0.6 0.1 0 1.3-0.3 1.1-0.6 -0.5-0.8-0.5-1.7-0.5-2.6 0-0.3-1.9 0-1.9 0.5 0 0.9 0 1.8 0.5 2.6 0.4-0.2 0.8-0.4 1.1-0.6 -1 0.2-1.9 0.4-2.9 0.7 -0.2 0.1-1.4 0.7-0.6 0.7 0.1 0 0.3 0 0.4 0 0.3-0.2 0.5-0.5 0.8-0.7 -0.8 0.2-1.6 0.4-2.4 0.5 0.2 0.1 0.3 0.2 0.5 0.3 0.9-1 2.4-0.7 3.5-1.2 1.2-0.5 1.5-1.4 1.3-2.6 -0.6 0.2-1.3 0.3-1.9 0.5 0.2 0.4 0.4 0.8 0.5 1.3 0.1 0.3 0.1 0.6 0.2 0.9 0 0.1 0 0.2 0 0.3 -0.2 0.4-0.1 0.5 0.3 0.2 -0.3 0.2-0.7 0.5-1 0.7 0.4-0.1 0.8-0.2 1.1-0.2 0.8-0.1 1.7-0.9 0.4-0.7 -0.9 0.1-1.8 0.2-2.7 0.4 -0.3 0-1.7 0.7-0.8 0.7 0.3 0 0.5 0 0.8 0 0.2-0.2 0.4-0.4 0.6-0.7 -2.2 0.7-4.4 1.2-6.5 2 0.4 0.1 0.7 0.2 1.1 0.2 1-0.4 2-0.8 2.9-1.3 0.8-0.5-1-0.2-1.3-0.1 -0.4 0.2-0.8 0.3-1.1 0.5 0.2 0.1 0.4 0.3 0.6 0.4 0.7-0.3 1.3-0.7 1.9-1.2 0.5-0.4-1.2-0.1-1.4 0 -0.5 0.3-1.1 0.5-1.6 0.8 0.4 0.1 0.7 0.2 1.1 0.2 0.8-0.4 1.6-0.8 2.4-1.2 1.2-0.6-0.7-0.4-1.1-0.2 -0.6 0.3-1.2 0.6-1.9 0.9 0.4 0 0.9 0.1 1.3 0.1 0.8-0.5 1.7-1.1 2.4-1.7 0.5-0.4-1.4-0.1-1.6 0.1 -0.6 0.3-1.2 0.8-1.8 0.9 0.2 0.1 0.4 0.2 0.6 0.4 0.8-0.5 1.5-1 2.3-1.5 0.8-0.5-1.2-0.2-1.5 0 -0.5 0.3-1.1 0.6-1.7 0.8 0.4 0 0.8 0.1 1.2 0.1 0.5-0.5 1.1-0.9 1.6-1.4 0.5-0.4-1.2-0.1-1.4 0 -0.1 0-0.3 0.1-0.4 0.1 0.1 0.1 0.2 0.2 0.2 0.3 0.1-0.1 0.2-0.1 0.3-0.2 0-0.1 0-0.3 0.1-0.4 -0.6 0.4-1.2 0.8-1.9 1.1 -0.8 0.5 1.1 0.2 1.5 0 0.3-0.1 0.6-0.2 1-0.3 -0.2-0.1-0.4-0.2-0.6-0.4 -0.5 0.3-1 0.5-1.6 0.8 0.5 0 1 0 1.4 0 0.3-0.3 0.6-0.5 1.1-0.6C85.2 71.2 85 70.6 83.9 70.9L83.9 70.9z" class="b"/><path d="M87.4 72.3c0.1 0 0.8 0.1 0.8 0.3 0.6-0.2 1.3-0.3 1.9-0.5 0 0 0-0.1-0.1-0.1 -0.3-0.3-1.2 0-1.5 0.2 -0.2 0.1-0.4 0.2-0.5 0.4 -0.2 0.3 0.5 0.2 0.5 0.2 0.5 0 1.1-0.2 1.5-0.5 0.2-0.2 0-0.4-0.2-0.4 -0.3-0.1-0.8 0-1.1 0.2 -0.1 0-0.9 0.4-0.6 0.6 0 0 0 0 0.1 0 0.4 0.2 0.9 0 1.2-0.1 0.1 0 0.9-0.4 0.6-0.6 0 0 0 0-0.1 0 -0.6 0.2-1.1 0.5-1.7 0.7 -0.1 0 0 0 0 0 0-0.1 0.1-0.1 0.1-0.2 0 0 0 0 0 0 0.3-0.1 0.5-0.2 0.8-0.4 0.1 0 0.2 0 0.3-0.1 0.2 0.1 0.4 0.2 0.5 0.2 0 0 0-0.1 0.1-0.1 -0.1 0.1-0.3 0.2-0.4 0.3 0 0 0 0 0 0 -0.5 0.1-1 0.1-1.5 0.2 0 0 0 0 0 0 0.3 0.4 1.9 0 1.9-0.5 0-0.3-0.9-0.5-1.2-0.5 -0.4-0.1-1 0.1-1.4 0.2C87.5 71.8 87 72.1 87.4 72.3L87.4 72.3z" class="b"/><path d="M87.6 72.3c0.3 0.3 0.6 0.4 1 0.6 0.5 0.3 1.3 0 1.7-0.4 0 0 0.1-0.1 0.1-0.1 -0.1 0.1-0.2 0.2-0.3 0.3 -0.3 0.1-0.4 0.2-0.2 0.1 0.2-0.1 0.4-0.1 0.5-0.3 0.3-0.2 0.6-0.6 0.1-0.8 -0.4-0.2-1-0.1-1.4 0.2 0.3-0.1 0.4-0.2 0.2-0.1 -0.2 0-0.3 0.1-0.5 0.2 -0.2 0.1-0.3 0.3-0.4 0.5 0.6-0.1 1.1-0.3 1.7-0.4 -0.2-0.1-0.5-0.2-0.7-0.4 -0.4-0.3-0.9-0.2-1.3-0.1C87.9 71.5 87.2 72 87.6 72.3L87.6 72.3z" class="b"/><path d="M79.6 39.9c0.1-0.4 0.1-0.8 0.3-1.2 0.3-0.7-0.7-0.7-1.1-0.6 -0.8 0.2-1.6 0.4-2.4 0.7 0.4 0.2 0.8 0.4 1.2 0.7 0.6-0.5 1.7-0.4 2.5-0.6 0.8-0.2 1.4-0.7 1.8-1.3 0.4-0.6-0.7-0.7-1.1-0.6 -0.9 0.2-1.7 0.6-2.5 1.1 -1 0.6 0.4 1.1 1 0.8 0.4-0.2 0.7-0.4 1.1-0.5 -0.5-0.1-0.9-0.1-1.4-0.2 0.4 1 0.1 2 0 3.1 -0.1 0.9 1.8 0.5 1.9-0.2 0.2-0.9 0.3-1.9 0.6-2.7 -0.6 0.1-1.3 0.2-1.9 0.4 0.3 0.8 0.4 1.6 0.4 2.5 0.6-0.1 1.3-0.1 1.9-0.2 0-1.1-0.1-2.2 0.1-3.2 -0.6 0.1-1.3 0.1-1.9 0.2 0 1.9-0.4 4 0.4 5.8 0.3 0.7 2.2 0.2 1.9-0.5 -0.8-1.7-0.4-3.7-0.4-5.5 0-0.9-1.8-0.5-1.9 0.2 -0.2 1.1-0.1 2.2-0.1 3.3 0 0.9 1.9 0.5 1.9-0.2 0-1 0-1.9-0.4-2.8 -0.3-0.8-1.7-0.2-1.9 0.4 -0.3 0.9-0.4 1.8-0.6 2.8 0.6-0.1 1.3-0.1 1.9-0.2 0.2-1.2 0.4-2.3 0-3.4 -0.2-0.5-1-0.3-1.4-0.2 -0.4 0.1-0.8 0.3-1.1 0.5 0.3 0.3 0.7 0.5 1 0.8 0.5-0.3 1-0.5 1.5-0.7 -0.4-0.2-0.7-0.4-1.1-0.6 -0.4 0.7-1.4 0.5-2.1 0.6 -0.7 0.2-1.3 0.5-1.9 1 -0.8 0.7 0.8 0.8 1.2 0.7 0.6-0.2 1.2-0.4 1.9-0.5 -0.4-0.2-0.7-0.4-1.1-0.6 -0.2 0.5-0.3 1-0.4 1.5C77.4 40.9 79.4 40.6 79.6 39.9L79.6 39.9z" class="b"/><path d="M77.6 38.6c-0.6 0.4-1.1 1.1-1.4 1.8 0.3 0.2 1 0.2 1.1 0.5 0.2 0.4-0.5 1.2-0.6 1.6 0.4 0.2 0.8 0.2 1.2 0.2 0.1 0.7-0.3 1.1-0.5 1.8 -0.4 1.1-0.4 0.9 0.3 1.3 0.7 0.5 1-0.4 1 0.6 0 0.7-0.7 1-0.6 1.7 0.3-0.1 0.8 0 1.1-0.1 0 1.3-2.1 3 0.5 2.8 -0.1 0.9-1 1.6-0.8 2.6 0.4 0.2 0.9 0.2 1.3 0.2 0.1 0.8-0.6 1.5-0.7 2.3 0.3-0.1 0.7 0.1 1 0 -0.1 0.6-0.4 1.2-0.6 1.9 0.5 0.2 1 0 1.5-0.1 -0.2 1.4-2.3 3 0.4 2.6 0.2 0.9-1.7 3.4 0.6 2.6 0 0.8-0.6 1.3-0.6 2.1 0.5 0.1 1-0.1 1.6-0.1 0.2 1.4-1.6 3.3 1.1 2.4 0.2 1.5-2 3 0.8 2.5 0 0.7-0.6 1.4-0.8 2 0.5 0.1 1-0.1 1.5-0.1 0 0.7-0.5 1.4-0.7 2" class="c"/><path d="M70.2 42.3C70 42.7 69.6 43.2 69.5 43.7c0.3-0.1 0.7 0.1 1 0 0 0.4-0.1 0.8-0.4 1.1 0.3 0.1 0.4 0.3 0.9 0.1 0 0.9-1.4 2.9 0.5 2.3 0.1 0.8-0.5 1.3-0.3 2.1 0.4-0.1 0.7 0.1 1.1-0.1 0.1 0.8-0.4 1.5-0.5 2.2 0.2 0 0.5 0.1 0.7 0 0 0.6-0.4 1.2-0.5 1.8 0.3-0.1 0.6 0 0.8-0.1 0 0.4-0.6 1.4-0.5 1.7 0.2 0.6 0.7 0.1 1 0.8 0.3 0.7-1.1 2.4 0.7 2 0.1 1-1.1 2.8 0.8 2.5 0.1 0.7-0.3 1.5-0.3 2.2 0.4 0 0.8-0.1 1.2-0.2 0.1 0.7-1.2 4 0.5 3.1 0.3 0.7 0.1 1.4 0 2.1 0.1 0 0.3 0 0.5 0 0 0.7-0.3 1.3-0.2 2.1 0.3-0.1 0.6 0 0.8-0.1 0.1 0.8-0.4 3.5 1.1 2.5 0 0.6-0.2 1.1-0.1 1.7 0.2-0.1 0.6-0.1 0.8-0.3 0 0.4 0 0.9 0.1 1.2" class="c"/><path d="M61.4 47.5c-0.3 0.3-0.5 0.8-0.6 1.2 0.2 0 0.5 0.1 0.7 0 0.1 0.5-0.2 1.1-0.2 1.6 0.3-0.1 0.7 0 1-0.1 -0.1 0.6-0.3 1.1-0.2 1.7 0.4 0 0.8 0 1.1-0.3 0.2 0.6-0.2 1.2-0.2 1.9 0.3-0.1 0.8-0.1 1.1-0.3 0.1 0.6 0 1.2-0.1 1.7 0.3-0.1 0.8 0 1.1-0.1 0.1 0.6-0.1 1.2-0.2 1.8 0.2-0.1 0.6 0 0.8-0.1 0.1 0.7-0.4 1.5 0 2 0.2-0.1 0.3-0.2 0.5-0.3 0 0.5-0.2 1.1-0.3 1.6 0.3-0.1 0.8 0 1.1-0.2 0.1 0.9-0.5 2.3 0.1 2.9 0.2-0.3 0.6-0.3 0.9-0.5 0.1 0.6-0.1 1.2-0.1 1.8 0.1-0.1 0.4-0.1 0.6-0.2 0.1 0.7-0.2 1.3-0.1 2 0.2-0.1 0.5 0 0.7-0.1 0.3 0.7-0.2 2.9 1.4 2.1 0.1 1.2-0.3 3 1.2 2 0.1 0.8-0.2 1.6-0.1 2.5 0.2-0.1 0.8-0.3 1-0.5 0 1.3-0.8 3.5 1.1 2.3 -0.1 0.6-0.3 1.1-0.2 1.7 0.1-0.1 0.4-0.2 0.5-0.4 0.1 0.7-0.3 2.3 0.9 1.9 0 0.3 0.1 0.5 0.1 0.7" class="c"/><path d="M54.6 52.3c-0.3 0.5-0.6 1.1-0.6 1.6 1.9-0.3-1.2 3.4 1.8 2.4 0 1.3-1.1 2.9 0.9 2.5 0 0.7 0 1.4 0 2.1 0.4-0.1 0.8-0.4 1.2-0.6 0.1 0.7-0.4 1.6-0.1 2.2 0.2-0.1 0.5-0.2 0.7-0.3 0.1 0.8-0.3 1.6-0.2 2.5 0.4 0 0.9-0.2 1.2-0.5 0.3 0.6 0.1 1.3 0.2 2 1.9-0.1 1.4 0.9 1.5 2.6 0.3-0.2 0.7-0.4 1.1-0.5 0 0.8-0.2 2 0.3 2.5 0.2-0.2 0.6-0.3 0.9-0.5 0.1 0.7-0.3 1.3-0.2 2 0.2-0.1 0.6-0.3 0.8-0.5 0 0.7 0 1.5 0 2.2 0.2-0.2 0.6-0.3 0.8-0.6 0.1 0.7-0.1 1.5-0.1 2.2 1.7-1.2 0.9 0.3 1.1 1.8 0.2-0.2 0.6-0.4 0.8-0.7 0 0.8-0.5 3.3 0.9 1.5 0 0.7 0 1.4 0.2 2.1 0.5 0.1 0.9 0 1.2-0.4 0.3 0.4 0.3 1 0.3 1.5 0.1-0.1 0.4-0.1 0.6-0.2 0.1 0.1 0.2 0.3 0.3 0.4" class="c"/><path d="M45.1 60.3c-0.3 0.4-0.5 0.9-0.7 1.4 0.3-0.2 0.5-0.2 0.8-0.5 0 1-1.2 4 0.9 2.1 0.1 0.8-0.3 1.4-0.2 2.2 0.8 0.1 1.2-0.5 1.7-0.8 -0.1 1-0.6 2-0.5 3.1 0.5 0 1-0.4 1.5-0.6 0 0.7-0.6 2 0.1 2.2 0.3 0.1 1.5-0.6 1.9-0.7 0.1 0.8-0.3 1.5-0.2 2.3 0.5 0 0.9-0.4 1.3-0.6 0.1 0.6-0.6 2.3-0.3 2.6 0.4 0.4 1.6-0.6 2.1-0.7 0.1 0.7-0.2 1.3-0.1 1.9 0.5 0.1 1-0.1 1.4-0.3 0.2 0.4-0.2 2.2 0 2.4 0.5 0.4 1.5-0.6 2-0.8 0 0.5-0.7 2.3-0.2 2.7 0.4 0.3 1.6-0.4 2-0.5 0.1 2.2-0.2 2.7 1.9 1.5 0.1 0.8-0.2 1.7-0.1 2.5 0.7 0 1.1-0.9 1.8-0.8 0.1 1.6-0.1 2.9 1.8 2.5 0.2 0.5 0.3 1.2 0.3 1.7 0.4-0.2 0.8-0.8 1.2-1.1 0 0.6 0 1.2 0 1.8 0.4 0 0.7-0.3 0.9-0.6" class="c"/><path d="M36.3 71.2c-0.3 0.1-0.7 1.4-0.6 1.9 0.3-0.2 0.6-0.6 0.9-0.6 0 0.4-0.4 1.5-0.2 1.9 0.4 0.7 0.7-0.1 1.2-0.5 0 0.4-0.2 1.9 0 2.1 0.4 0.4 1.2-1 1.6-1.1 0.1 0.8-0.3 1.9 0 2.7 0.5 1.2 0.5 0 1.2-0.2 0.9-0.3 0.1 1.2 0.6 1.7 0.5 0.6 0.7-0.3 1.3-0.6 0.1 0.4-0.1 1.5 0.3 1.7 0.6 0.3 0.8-0.9 1.4-0.8 0.1 0.4 0.1 1.8 0.4 2 0.6 0.4 0.6-0.5 1-0.7 1.4-0.7 0.3 1.8 1 2.1 0.8 0.4 1.3-2.4 1.7-0.3 0.1 0.3 0 1.7 0.7 1.6 0.1 0 0.4-0.8 0.6-1 0.3 0.4 0.3 1.5 0.8 1.7 0.5 0.2 0.9-0.7 1.2-1 0.2 0.4 0.3 2.1 0.8 2.1 0.6 0 0.6-1.5 1.3-1 0.4 0.3 0 1.5 0.5 1.8 0.5 0.4 0.7-0.4 1.1-0.7 0.4 0.8 0.4 2.8 1.5 1.8 0.9-0.8 1-1.4 1.4 0.2 0.1 0.3 0.2 1.2 0.7 1.2 0.3 0 0.5-0.9 0.7-1.1 1-0.7 0.6 1.6 1.3 2 0.3-0.4 0.4-0.9 0.8-1.1 0.3 0.4 0.5 1.7 1.1 0.9 0.1 0.4 0.1 0.3 0.3 0.2" class="c"/><path d="M37.2 87.2c-0.1 0.7 0.6 2.1 1.3 2.3 0.2-0.5 0.1-1 0.3-1.5 0.3 0.5 0.5 1.2 0.9 1.7 0.1-0.3 0.2-0.6 0.3-1 0.5 0.3 0.6 1.1 1 1.4 0.2-0.4 0.3-0.8 0.5-1.2 0.4 0.5 0.5 1.3 1.1 1.7 0.2-0.3 0.3-0.7 0.5-1 0.3 0.5 0.5 1.2 1 1.6 0.2-0.3 0.4-0.9 0.6-1.2 0.3 0.5 0.5 1 0.9 1.4 0.3-0.3 0.4-0.7 0.7-1.1 0.6 0.2 0.6 1.3 1.1 1.5 0.5 0.2 0.6-0.7 1-1 0.3 0.5 0.5 1.1 0.9 1.5 0.2-0.5 0.2-1 0.6-1.4 0.2 0.3 0.5 1.2 0.7 1.3 0.6 0.2 0.3-0.3 0.7-0.6 0.7-0.6 0.8 0.3 1.5 0.8 0.2-0.4 0.2-0.9 0.5-1.2 0.3 0.3 0.8 1.4 1.3 1.5 0.8 0.2 0.4-0.7 0.9-1.2 0.5 0.7 0.8 1.6 1.6 2 0.2-0.5 0.4-1 0.6-1.5 0.2 0.3 0.6 1.5 1 1.5 0.5 0 0.4-0.8 0.7-1.1 0.2 0.3 0.3 0.6 0.5 0.8 0.1-0.1 0.2-0.1 0.2-0.2 0.2 0.2 0.4 0.2 0.6 0.5 0-0.2 0.1-0.4 0.2-0.6 0.3 0.2 0.5 0.5 0.9 0.6" class="c"/><path d="M47.7 97.1c0.6 0.5 1.2 1.2 2 1.7 0.2-0.4 0-0.8-0.1-1.2 0.5 0.4 0.7 1 1.2 1.2 0.1-0.4 0-0.8-0.1-1.2 0.5 0.2 0.8 0.9 1.4 1 0.2-0.4 0.1-0.8 0.1-1.2 0.3 0.1 1.2 1.1 1.5 1.1 0.4-0.1 0.2-1 0.3-1.5 0.5 0.2 1 0.7 1.5 1 0-0.4 0-0.8 0-1.2 0.6 0.3 0.9 1 1.6 1.2 0-0.4 0.1-0.9 0.1-1.3 0.4 0.2 0.6 0.5 1 0.7 0.2-0.3 0.1-0.8 0.3-1.2 0.3 0.3 0.6 0.8 1.1 0.8 0.1-0.4 0.1-0.9 0.1-1.4 0.3 0.2 0.6 0.6 0.9 0.8 0.1-0.3 0.1-0.6 0.1-0.9 0.3 0.2 0.6 0.6 1 0.7" class="c"/><path d="M55.5 102.2c0.3 0.4 0.7 0.8 1.1 0.9 -0.1-0.4 0-0.8-0.3-1.2 0.8 0.9 2.7 1.3 1.8-0.4 0.5 0.3 1.2 0.7 1.7 1.1 0.1-0.5 0.2-1.1 0.1-1.6 0.3 0.4 0.8 0.6 1.1 0.9 0-0.3 0.1-0.7 0.1-0.9 0.2 0.2 0.6 0.4 0.8 0.6 0-0.3 0.1-0.8 0.1-1.1 0.3 0.2 0.7 0.4 1 0.7" class="c"/><path d="M61 105.6c-0.2-0.4-0.3-0.9-0.5-1.3 0.7 0.4 1.4 0.7 2.1 0.6 -0.1-0.2-0.2-0.7-0.4-0.9 0.6 0.3 1.1 0.4 1.8 0.4 -0.1-0.2 0-0.5-0.1-0.8 0.5 0.1 1 0.3 1.5 0.6 0-0.1-0.1-0.3-0.1-0.4 0.3 0.2 0.7 0.3 1 0.5" class="c"/><path d="M64.8 107.9c0.3 0 0.6-0.2 1-0.2 -0.1-0.2-0.1-0.5-0.3-0.7 0.7 0 1.4 0.4 1.9 0.7 -0.1-0.3 0-0.6-0.1-1 0.4 0.2 1 0.1 1.5 0.4 0-0.3 0.1-0.6 0-0.9 0.4 0.2 1 0.4 1.3 0.7" class="c"/><path d="M69.5 109.9c0.2 0.4 0.6 0.7 1 1 0-0.3 0.1-0.7 0.1-1 0.4 0.3 0.9 0.5 1.3 0.8 -0.1-0.3 0-0.8-0.1-1.1 0.5 0.1 1 0.2 1.4 0.6 -0.1-0.4 0.1-1 0.1-1.4 0.6 0.2 1.2 0.6 1.8 0.8 -0.1-0.2-0.1-0.7-0.3-1 0.6 0.2 1.2 0.7 1.8 1" class="c"/><path d="M74.2 114.6c-0.2-0.5-0.4-0.9-0.5-1.4 0.4 0.5 0.8 0.9 1.3 1.3 -0.1-0.4 0.1-0.9 0.1-1.3 0.4 0.2 1.1 0.3 1.4 0.6 0-0.5 0.2-1.1 0.4-1.6 0.7 0.6 1 1.4 1.8 1.9 -0.1-0.5 0.2-1 0.2-1.5 0.6 0.5 1 1.3 1.6 1.8 0-0.6 0.3-1 0.4-1.5 0.3 0.3 0.8 0.7 1.1 1.1 0.1-0.5 0.4-1 0.7-1.4 0.4 0.5 0.8 1.1 1.3 1.4 0-0.4 0.2-0.8 0.2-1.1 0.4 0.4 0.9 0.9 1.4 1.3 0-0.4 0.4-0.8 0.4-1.1 0.7 0.3 1.2 1.1 1.9 1.3 0-0.4 0.3-0.8 0.4-1.1 1 0.7 1.8 1.4 2.8 1.9 0-0.2 0.2-0.5 0.2-0.8 0.4 0.5 0.7 1 1 0.7" class="c"/><path d="M82.7 126.1c0.1-0.3 0.2-0.6 0.4-0.8 0.5 0.6 0.6 1.5 1.2 2.1 0.3-0.4 0.6-0.9 0.8-1.4 0.5 0.5 0.5 1.4 0.7 2.1 0.3-0.6 0.6-1.2 1-1.6 0.3 0.6 0.5 1.2 0.6 1.8 0.4-0.4 0.8-1.1 1.3-1.5 0.3 0.7 0.6 1.4 0.7 2.1 0.7-0.4 1.2-1.3 2-1.8 0.2 0.6 0.4 1.3 0.6 1.9 2.1-2.9 1.7-0.3 2.8 1.1 1.7-1.9 2.5-1.2 2.4 1.1 0.8-0.5 1.4-1.4 2.3-1.6 0.3 0.8 0.4 1.7 0.6 2.5 2.5-1.5 1.5 0.4 2.7 2.2 0.7-0.5 1.2-1.3 2-1.5 0.3 0.8 0.5 1.7 0.5 2.6 0.5-0.6 1.3-1.2 2.1-1.5 0 0.8 0.2 1.6 0.2 2.5 0.4-0.7 1.2-1.4 2.1-1.6 0.2 1.1 0.3 2.3 0.5 3.4 1.2-3.3 1.9-0.4 2.4 1.2 0.5-0.6 0.9-1.5 1.8-1.8 0.4 0.9 0.3 2 0.4 3 0.6-0.3 1.3-1.5 2.1-1 0.5 0.3 0.7 2.2 0.7 2.7 0.5-0.6 1-1.4 1.6-1.8 0.1 1 0 2.1 0.1 3.1 0.5-0.5 1-1 1.6-1.4 0.2 1.2 0 2.7 0.4 3.7 0.4-0.6 1-1 1.6-1.3 0.4 0.9 0.4 2.3 0.4 3.3 0.2-0.4 0.7-0.7 1-1.1 0.5 1.1 0.3 2.6 0.3 3.8 1.5-3 1.5 0.6 2.1 1.9 0.1-0.2 0.5-0.5 0.6-0.7 0.6 0.8 0.3 2.1 0.8 3" class="c"/><path d="M37.2 194.6c0.2-0.1 0.3-0.2 0.5-0.3 0.1 0.6 0 1.3-0.1 1.9 0.8-0.2 1.4-1 2.3-1 0.1 0.8-0.3 1.6 0.2 2.2 0.7-0.5 1.3-1.3 2.1-1.5 0.2 1.2-0.4 2.3-0.3 3.5 1-0.1 1.7-1.1 2.8-1.3 0.2 0.7 0.1 1.4 0.4 2.1 1-0.3 1.6-1.6 2.8-1.6 0.1 1-0.3 1.8-0.3 2.8 0.9 0 1.5-0.8 2.4-0.8 0 0.6 0 1.2 0.1 1.8 0.8-0.5 1.3-1.3 2.3-1.6 0.1 1-0.5 2.1-0.6 3.1 1.2-0.2 2-1.7 3.3-1.8 0.1 0.6 0 1.4-0.1 1.9 1.2 0.2 2-0.9 3.1-0.9 0.1 0.6-0.6 2.1-0.2 2.4 0.5 0.5 2.2-0.9 2.8-0.9 0.1 0.8-0.1 1.5-0.1 2.3 1.4 0.1 2.3-1.3 3.8-1.1 0.2 1.2-0.5 2.3-0.3 3.5 1.4 0.2 2.6-1.6 4-2.1 0.1 1.7-0.8 3.1 1.3 2.9 2.2-0.3 3.3-1.4 2.4 1.8 1.1 0.5 2.1-0.7 3.1-1 0.2 1-0.4 1.8-0.2 2.8 1.5 0.1 2.4-1.5 3.9-1.3 0 0.8 0 1.5 0.1 2.3 1.1-0.1 1.9-1.4 3.1-1.6 0.2 1.1-0.4 2.2-0.5 3.3 1.7 0.3 2.8-1.5 4.3-1.6 0 0.7-0.3 2.3 0 3 0.9 1.7 1.7-0.8 3.2-0.7 2.1 0.3 0 2.4 0.9 3.4 0.8 0.9 1.8-0.4 2.6-0.7 0.1 1 0 2.1 0.1 3.1 1-0.2 1.7-1.4 2.7-1.6 0.3 0.7-0.4 2.6 0.1 3 0.6 0.4 2.4-1.5 3-1.6 0 1.1-0.3 2.2-0.3 3.3 0.8-0.2 1.2-1.2 1.9-1.6 0 0.4-0.4 1-0.1 0.6" class="c"/><path d="M45.8 187.2c0.3-0.3 0.8-0.6 1.1-0.8 0.1 0.6 0 1.1-0.3 1.6 0.7-0.3 1.3-1.1 2.1-1.5 0.1 0.7-0.1 1.4-0.1 2.1 0.9-0.1 1.7-0.8 2.5-1.1 0.1 0.7 0 1.4-0.1 2.1 0.8-0.3 1.5-1.1 2.5-1.1 -0.3 0.5-0.5 1.1-0.6 1.7 0.6-0.2 1.2-0.5 1.9-0.7 0.1 0.7-0.1 1.3-0.1 2 1 0 2-0.8 2.9-1 0.1 0.8-0.2 1.5-0.3 2.3 1.1-0.1 2-1.1 3.1-1.1 0.1 0.7-0.1 1.4-0.3 2.1 0.9 0.1 1.5-0.4 2.3-0.6 0 0.7-0.2 1.4-0.1 2.1 1.2 0.4 2.3-1.2 3.6-1.2 0.1 0.9-0.2 1.6-0.3 2.4 0.7-0.1 1.3-0.5 1.9-0.6 0 0.5 0.1 1.1 0 1.6 1.1 0 2-1.1 3.1-1.3 0.1 1.2-0.8 2.1-0.6 3.3 1.3-0.3 2.4-1.4 3.8-1.3 0 0.7-0.2 1.4-0.1 2.1 1 0.1 2-0.6 3-0.8 0.1 0.8-0.7 2.6 0 3 0.7 0.4 2.5-1.2 3.3-1.3 0.1 0.8-0.1 1.7-0.3 2.4 1 0.5 2-0.9 3.1-0.9 0.1 0.7-0.2 1.4-0.1 2.1 2-0.7 3.2-2.7 3.6 0.1 0.1 0.8-0.6 1.3 0.5 1.5 0.7 0.1 1.9-1.3 2.8-1.3 0.1 0.8 0 1.6-0.1 2.3 1.3 0.1 2.1-1.4 3.5-1.1 0 0.7-0.9 2.9-0.3 3.3 0.7 0.5 2.2-0.7 3-0.7 0.1 0.8 0 1.6-0.3 2.3 0.8-0.1 2-1.9 2.8-1.7 0.8 0.3 0.2 2.4 0.2 3.2 1.2 0.1 1.9-1 2.9-1.3 0.4 1.3-0.1 2.5 0.1 3.8 1.1 0.1 1.9-1.4 3-1.8 0 0.8 0 1.6 0 2.3 0.4-0.3 0.8-0.9 1.3-1.1 -0.1 0.6 0.3 0.7 0.4 0.8" class="c"/><path d="M57.3 177.6c0 0.1 0.2 0.7 0.2 1 1-0.1 1.5-1.3 2.4-1.6 0.1 0.8-0.2 1.7-0.3 2.5 0.8-0.1 1.1-0.9 2-1.1 0 0.7 0 1.4 0.1 2.1 1 0 1.6-1 2.4-1.3 0 0.9 0 1.8 0.1 2.6 0.9 0 1.4-0.9 2.3-1.1 0.1 0.6 0 1.2-0.1 1.8 0.8 0 1.4-0.6 2.1-0.8 0.3 0.7-0.2 1.8 0.7 1.9 0.6 0.1 1.5-0.9 2.3-0.8 0.2 0.8 0.2 1.7 0.2 2.6 1.5 0.3 2.5-1.4 3.9-1.4 0.2 1.1-0.3 2-0.5 2.9 1.3 0.7 2.2-1.1 3.5-1.1 0.1 0.8-0.1 1.6-0.3 2.3 1.1 0.6 2.3-1.1 3.5-1.3 0 0.8-0.4 1.6-0.5 2.5 1.2 0 2.2-1 3.4-0.9 0.3 0.8 0.2 1.6 0.2 2.5 1.3-0.3 2.4-1.6 3.8-1.8 0.1 1.4-0.7 2.6-0.8 4 0.8 0.1 1.5-0.3 2.2-0.6 0.2 0.5 0.2 1.2 0.2 1.8 1 0 1.9-0.9 2.8-1.1 0.1 0.9-0.6 1.6-0.4 2.5 1.2 0.2 1.9-1 3-1.1 0.3 0.8 0.1 1.8-0.1 2.5 1.2 0 2.3-1.2 3.4-1.5 0.2 1.1-0.5 1.9-0.5 3 1.6 0.4 2.3-1.4 3.6-1.6 0.1 1.1-0.5 2.3-0.8 3.3 1.3 0 2.2-1.4 3.5-1.5 0 0.9-0.4 1.8-0.6 2.6 1.2-0.4 2.2-1.9 3.6-2.3 0 1.2-0.7 2.5-1 3.6 1.2 0 2-1.5 3.1-2 0 1.1-0.5 2.4-0.8 3.5 1 0.1 2.1-0.9 2.8-1.6 -0.4 0.8-0.6 1.8-0.9 2.6 0.9-0.1 2.1-0.3 2.8-0.8" class="c"/><path d="M69 167.4c0.2-0.3 0.5-0.7 0.8-0.9 0.1 0.9-0.3 1.6-0.3 2.4 0.7-0.2 1.2-0.7 1.8-1 0 0.9 0 1.8 0 2.6 1.1 0 2-1.5 3.1-1.8 0 0.5-0.4 2.7 0 3 0.9 0.5 2.3-1.5 3.3-1.4 0.1 0.9-0.1 1.8-0.3 2.6 1.1-0.1 2.1-1.4 3.3-1.6 0.1 0.7-0.1 1.4-0.3 2.1 1.1 0 1.8-1.4 3-1.6 0.4 2.8-1 2.7 2 2.3 0.4 0.8-0.1 1.7-0.2 2.5 1.4-0.4 2.5-1.7 3.9-2 0.1 1-0.3 2-0.3 3 1.5 0.2 2.5-1.6 4-2 0 1-0.4 2-0.6 3 1.5 0.6 3-1.8 4.6-2 0.2 0.8-0.5 2.4 0.2 2.8 0.9 0.5 2.3-1.1 3.1-1.3 0.5 1.3-0.1 2.6-0.1 4 1.1-0.1 1.9-1.3 3-1.5 0.1 1.3-0.5 2.4-0.5 3.6 1.4 0.3 2.4-1.2 3.8-1.1 0 0.7 0 1.6 0.1 2.3 1.3 0.3 2.1-1.3 3.3-1.5 0.2 3-0.8 3.7 2.3 2.5 0.1 1.2 0.1 2.3-0.2 3.5 1.1 0.1 2-1.3 3.1-1.5 0 0.9 0 1.8 0 2.6 0.7-0.2 1.2-1 2-1.3 0.2 1.1-0.3 2.2-0.3 3.3 0.3-0.3 0.9-0.7 1.3-1 0.2 0.9-0.5 2 0.2 2.5" class="c"/><path d="M79.3 153.9c0 0.2 0 0.4 0 0.7 0.4-0.3 0.9-0.7 1.3-1.1 0.3 0.6-0.2 2.1 0.2 2.3 0.7 0.4 1.7-1.1 2.2-1.5 0.4 0.8-0.1 1.8-0.3 2.6 1.2 0 2-1.2 3-1.7 0.4 1-0.4 2.1-0.3 3.2 1-0.5 1.8-1.9 3.1-1.8 0 1.1-0.6 2.2-0.6 3.3 1.2-0.2 1.9-1.6 3.1-1.9 0.1 0.9-0.2 1.8-0.1 2.8 1.2-0.3 2.3-1.5 3.6-1.8 0.2 1.1-0.3 2-0.5 3 1.1-0.5 2.1-1.9 3.5-1.8 0.1 1.1-0.5 2.1-0.6 3.1 1.3-0.1 2.3-1.7 3.8-1.6 0.1 1-0.2 2-0.5 2.9 1.1 0.1 2-0.8 3.1-1 0.2 1.1-0.6 2-0.4 3 0.7 0.1 1.4-0.7 1.9-0.6 1.3 0.2 0.3 0.4 0.8 1.3 0.6 1-0.3 0.8 1 0.8 0.8 0 1.4-0.8 2.3-0.8 0.1 0.9-0.2 1.9-0.3 2.8 1.2-0.1 2.2-1.2 3.5-1.5 0 1-0.5 1.9-0.5 3 0.8 0.2 1.6-0.3 2.3-0.6 0 0.7-0.3 2.9 0.2 3.4 1 0.9 2.7-1.2 3.9-1 0.2 1.2-0.6 2.5-0.6 3.8 0.9 0.1 1.8-0.3 2.6-0.6 0.1 1.4-0.3 2.8-0.3 4.1 0.6-0.2 1-0.6 1.6-0.8 0.5 1.3-0.3 2.6-0.3 4 0.6 0 1.2-0.2 1.6-0.6 0.2 1.2-0.4 2.2-0.5 3.3" class="c"/><path d="M84.3 140.1c0.1-0.2 0-0.3 0.2-0.4 0 0.6 0 1.2 0 1.7 0.3-0.4 0.8-0.6 1.1-0.9 0.1 0.8 0 1.5 0.1 2.3 0.8-0.2 1-1.2 1.8-1.5 0 0.8 0 1.5 0.1 2.3 1.2-0.7 2.1-1.5 1.8 0.7 0.7-0.4 1.3-1.3 1.9-1.6 0.2 0.6 0.3 1.3 0.2 2 0.8-0.4 1.2-1.4 2-1.8 0.2 0.9 0.1 1.9 0.1 2.8 0.9-0.3 1.7-1 2.8-1.3 0.4 0.7 0.2 1.8 0.2 2.6 0.9-0.3 1.5-1.2 2.5-1.3 0 0.9 0 1.8 0 2.6 0.8-0.3 1.4-1.1 2.3-1.3 0 0.7 0 1.4 0.1 2.1 2.4-0.2 3.1-2.8 2.8 1.3 2.6-0.8 2.6-2.6 2.8 1.2 0.6-0.7 1.5-1.7 2.4-1.8 0.5 1-0.1 2.1 0.1 3.1 1-0.2 1.6-1.6 2.8-1.6 0.1 1.3 0 2.5 0.1 3.8 1.2-0.4 2.2-1.9 3.4-2.1 0.2 1.1-0.2 2.3-0.1 3.5 0.6-0.2 1.9-1.9 2.8-1.3 0.7 0.5 0.1 3.1 0.1 3.8 0.6-0.3 1.1-1.1 1.8-1.3 0.3 0.8 0 1.6 0.2 2.3 0.5 1.6 0.1 0.5 1.3 0.5 1.3 0 0.8-1.1 1.2 0.6 0.2 0.7 0 1.7 0 2.5 0.8-0.1 1.2-0.9 2-1.2 0.7 1.4 0.3 3.3 0.4 4.9 0.7-0.3 0.9-1.3 1.4-1.8 0.1 1.1 0 2.6 0.5 3.5" class="c"/><path d="M116.6 129.1c-0.3 0-0.5 0.3-0.7 0.6 -0.6-0.4-0.3-2.6-1.5-1.9 -0.4 0.2-0.3 0.9-0.9 0.7 -0.3-0.1-0.6-1.4-0.7-1.8 -0.5 0.5-0.3 1.4-1.1 0.6 -0.4-0.4-0.4-1.2-0.8-1.6 -0.3 0.3-0.5 0.8-0.8 1.2 -0.8-0.3-0.7-1.5-1.4-2 -0.3 0.4-0.5 0.9-0.6 1.4 -0.3-0.5-0.4-1.1-0.7-1.6 -0.5 0.3-0.5 1.1-1.1 0.7 -0.4-0.3-0.4-1.2-0.9-1.6 -0.5 0.4-0.5 1.4-1.3 1 -0.5-0.3-0.7-1.4-1.1-1.8 -0.5 0.2-0.7 0.9-0.8 1.4 -0.7-0.4-0.6-1.6-1.1-2.2 -0.5 0.4-0.4 1.5-1.2 1.1 -0.7-0.3-0.6-1.5-1.3-1.8 -0.2 0.2-0.3 0.6-0.4 0.9 -0.2-0.5-0.5-1.6-1.1-1.6 -0.8 0-0.7 1.4-1.4 1.2 -0.6-0.1-0.5-1.3-1-1.6 -0.6-0.3-1 0.7-1 1.3 -0.7 0-1-1.5-1.4-1.9 -0.3 0.4-0.5 0.9-0.7 1.3 -0.4-0.3-0.6-0.9-1.1-1.3 -0.4 0.3-0.4 0.9-0.6 1.3 -0.4-0.5-0.7-1.2-1.2-1.6 -0.3 0.3-0.6 0.7-0.6 1.2 -0.4-0.4-0.5-1-0.9-1.4 -0.3 0.4-0.4 1.1-0.9 1 -0.3-0.1-0.6-0.8-0.8-1.1 -0.3 0.4-0.5 0.9-0.6 1.4 -0.7-1.3-1-1.9-1.9-0.3 -0.3-0.4-0.3-1.1-0.6-1.6 -0.3 0.3-0.5 1.3-1 1.2 -0.2-0.1-0.4-0.7-0.6-0.9 -0.1 0.4-0.3 0.7-0.4 1.1 -0.5-0.2-0.4-0.9-0.9-1.1 -0.2 0.2-0.4 0.5-0.3 0.7" class="c"/><path d="M81.9 35.6c-9.5 3.8-18.7 8.8-27 14.7C47.2 55.9 38.4 62.7 34.4 71.7c-7.6 17.2 13.4 27.4 25.3 34.5 8.1 4.8 16.1 9.8 20.5 18.4 4.5 8.6 2.8 18.2-1.6 26.5 -9.5 18-28.2 30.3-43.3 43.3 -2.5 2.2-5 4.4-7.4 6.8 -0.8 0.8 1.1 0.7 1.5 0.3 18.6-18.6 76.5-52.2 47.9-84.3 -11.5-12.9-33.5-16.2-41.5-32.4 -4.7-9.5 3.2-19 9.6-25.3 8.8-8.5 19.6-15 30.6-20.3 2.1-1 4.3-1.9 6.4-2.8C84 35.9 82.8 35.3 81.9 35.6L81.9 35.6z" class="d"/><path d="M89.2 72.6c-6.5 0.3-12.3 4.3-17.3 8.2 -5.1 4-12.6 10.8-10.6 18.1 1.9 6.9 13 9.4 18.7 11.6 9.4 3.5 18.9 6.7 27.5 11.9 18.8 11.6 23.2 34.1 17.6 54.3 -5.8 20.9-19.7 38.7-30.8 56.9 -0.1 0.2 1.6 0.1 1.9-0.3 10.2-16.7 21.9-32.6 28.9-51 6.3-16.6 6.9-36.9-5.2-51.2 -10.7-12.8-27.5-17.2-42.5-22.9 -7.2-2.8-17.4-6.7-13.6-16.3 3.3-8.2 15.8-18 24.5-18.4C88.9 73.4 90.5 72.5 89.2 72.6L89.2 72.6z" class="d"/><path d="M81.4 35.8c2 12.4 4.2 24.8 8.5 36.6 0.3 0.8 2.2 0.2 1.9-0.5 -4.3-11.8-6.5-24.2-8.5-36.6C83.2 34.5 81.2 35 81.4 35.8L81.4 35.8z" class="d"/><path d="M27.5 201.8c21.8 11.3 45.9 18 66.5 31.7 0.5 0.4 2.3-0.4 1.5-0.9 -20.6-13.7-44.7-20.4-66.5-31.7C28.5 200.6 26.7 201.4 27.5 201.8L27.5 201.8z" class="d"/>
</svg>