<svg class="svg-light" xmlns="http://www.w3.org/2000/svg" xmlns:xlink="http://www.w3.org/1999/xlink" version="1.1" x="0px" y="0px" viewBox="0 0 100 100" xml:space="preserve">
	<defs><link href="../css/svg.css" type="text/css" rel="stylesheet" xmlns="http://www.w3.org/1999/xhtml"/></defs>
	<path fill="#000000" d="M94.634,20.366l-15-15c-0.488-0.488-1.279-0.488-1.768,0L48.567,34.665L19.19,5.289  c-0.32-0.321-0.79-0.444-1.228-0.318l-0.354,0.101C11.504,6.817,6.817,11.504,5.071,17.611l-0.101,0.354  c-0.124,0.436-0.002,0.905,0.318,1.226l29.376,29.376L5.366,77.866c-0.488,0.488-0.488,1.279,0,1.768l15,15  C20.61,94.878,20.93,95,21.25,95s0.64-0.122,0.884-0.366l29.299-29.299l12.922,12.922c0.074,0.074,0.157,0.139,0.248,0.192  l27.568,16.29c0.197,0.117,0.417,0.174,0.636,0.174c0.323,0,0.643-0.125,0.884-0.366l0.856-0.856  c0.403-0.403,0.482-1.029,0.192-1.52l-16.29-27.568c-0.054-0.09-0.118-0.174-0.192-0.248L65.335,51.433l29.299-29.299  C95.122,21.646,95.122,20.854,94.634,20.366z M7.58,17.946c1.354-4.359,4.46-7.842,8.554-9.681c0.585-0.263,1.19-0.492,1.813-0.685  l4.295,4.295L11.875,22.241L7.58,17.946z M12.759,23.125l10.366-10.366l0.991,0.991L13.75,24.116L12.759,23.125z M14.634,25  L25,14.634l2.866,2.866L17.5,27.866L14.634,25z M18.384,28.75L28.75,18.384l2.866,2.866L21.25,31.616L18.384,28.75z M22.134,32.5  L32.5,22.134L35.366,25L25,35.366L22.134,32.5z M25.884,36.25L36.25,25.884l0.991,0.991L26.875,37.241L25.884,36.25z M48.308,64.924  l-4.116-4.116c-0.244-0.244-0.641-0.244-0.885,0c-0.243,0.244-0.243,0.64,0,0.884l4.116,4.116l-1.616,1.616l-1.616-1.616  c-0.244-0.244-0.641-0.244-0.885,0c-0.243,0.244-0.243,0.64,0,0.884l1.616,1.616l-1.616,1.616l-2.866-2.866  c-0.244-0.244-0.641-0.244-0.885,0c-0.243,0.244-0.243,0.64,0,0.884l2.866,2.866l-1.616,1.616l-1.616-1.616  c-0.244-0.244-0.641-0.244-0.885,0c-0.243,0.244-0.243,0.64,0,0.884l1.616,1.616l-1.616,1.616l-4.116-4.116  c-0.244-0.244-0.641-0.244-0.885,0c-0.243,0.244-0.243,0.64,0,0.884l4.116,4.116l-1.616,1.616l-1.616-1.616  c-0.244-0.244-0.641-0.244-0.885,0c-0.243,0.244-0.243,0.64,0,0.884l1.616,1.616l-1.616,1.616l-2.866-2.866  c-0.244-0.244-0.641-0.244-0.885,0c-0.243,0.244-0.243,0.64,0,0.884l2.866,2.866l-1.616,1.616l-1.616-1.616  c-0.244-0.244-0.641-0.244-0.885,0c-0.243,0.244-0.243,0.64,0,0.884l1.616,1.616l-1.616,1.616l-4.116-4.116  c-0.244-0.244-0.641-0.244-0.885,0c-0.243,0.244-0.243,0.64,0,0.884l4.116,4.116l-1.616,1.616l-1.616-1.616  c-0.244-0.244-0.641-0.244-0.885,0c-0.243,0.244-0.243,0.64,0,0.884l1.616,1.616l-3.674,3.674L8.018,78.75l28.415-28.415  l13.232,13.232L48.308,64.924z M27.759,38.125l4.116-4.116l38.118,38.118c-0.126,2.216-1.914,3.979-4.132,4.1L27.759,38.125z   M86.74,88.626L67.411,77.204c2.047-0.688,3.573-2.52,3.807-4.734c1.712-0.147,3.243-0.923,4.367-2.096l12.476,16.932L86.74,88.626z   M77.241,67.473l6.623,11.208l2.453,4.151l-9.927-13.473C76.763,68.784,77.051,68.149,77.241,67.473z M76.237,65.872  c-0.006,0.142-0.014,0.283-0.031,0.422c-0.306,2.567-2.346,4.607-4.913,4.913c-0.139,0.017-0.28,0.025-0.422,0.031L32.759,33.125  l5.366-5.366L76.237,65.872z M88.308,24.924l-4.116-4.116c-0.244-0.244-0.641-0.244-0.885,0c-0.243,0.244-0.243,0.64,0,0.884  l4.116,4.116l-1.616,1.616l-1.616-1.616c-0.244-0.244-0.641-0.244-0.885,0c-0.243,0.244-0.243,0.64,0,0.884l1.616,1.616  l-1.616,1.616l-2.866-2.866c-0.244-0.244-0.641-0.244-0.885,0c-0.243,0.244-0.243,0.64,0,0.884l2.866,2.866l-1.616,1.616  l-1.616-1.616c-0.244-0.244-0.641-0.244-0.885,0c-0.243,0.244-0.243,0.64,0,0.884l1.616,1.616l-1.616,1.616l-4.116-4.116  c-0.244-0.244-0.641-0.244-0.885,0c-0.243,0.244-0.243,0.64,0,0.884l4.116,4.116l-1.616,1.616l-1.616-1.616  c-0.244-0.244-0.641-0.244-0.885,0c-0.243,0.244-0.243,0.64,0,0.884l1.616,1.616l-1.616,1.616l-2.866-2.866  c-0.244-0.244-0.641-0.244-0.885,0c-0.243,0.244-0.243,0.64,0,0.884l2.866,2.866l-1.616,1.616l-1.616-1.616  c-0.244-0.244-0.641-0.244-0.885,0c-0.243,0.244-0.243,0.64,0,0.884l1.616,1.616l-1.616,1.616l-4.116-4.116  c-0.244-0.244-0.641-0.244-0.885,0c-0.243,0.244-0.243,0.64,0,0.884l4.116,4.116l-1.616,1.616l-1.616-1.616  c-0.244-0.244-0.641-0.244-0.885,0c-0.243,0.244-0.243,0.64,0,0.884l1.616,1.616l-1.357,1.357L50.335,36.433L78.75,8.018  L91.982,21.25L88.308,24.924z"></path>
</svg>